<svg width="375" height="305" viewBox="0 0 375 305" fill="none" xmlns="http://www.w3.org/2000/svg">
<g clip-path="url(#clip0_244_9414)">
<path opacity="0.941" fill-rule="evenodd" clip-rule="evenodd" d="M288.618 101.636C289.843 102.455 290.498 103.764 290.582 105.564C290.255 106.873 289.927 108.183 289.6 109.492C288.637 106.952 288.31 104.333 288.618 101.636Z" fill="#197D96"/>
<path opacity="0.973" fill-rule="evenodd" clip-rule="evenodd" d="M275.852 114.401C278.697 114.033 281.315 114.524 283.708 115.874C281.298 117.386 278.68 117.714 275.852 116.856C274.774 116.1 274.774 115.282 275.852 114.401Z" fill="#1B86A1"/>
<path opacity="0.973" fill-rule="evenodd" clip-rule="evenodd" d="M296.474 114.401C299.319 114.033 301.937 114.524 304.33 115.874C301.919 117.386 299.301 117.714 296.474 116.856C295.396 116.1 295.396 115.282 296.474 114.401Z" fill="#1C88A3"/>
<path opacity="0.973" fill-rule="evenodd" clip-rule="evenodd" d="M119.717 139.933C117.156 142.297 117.483 144.424 120.699 146.316C119.681 148.183 118.536 149.984 117.262 151.717C113.778 148.73 110.014 147.093 105.969 146.807C104.848 144.909 103.212 143.436 101.059 142.388C90.7866 136.856 80.6388 131.129 70.6177 125.203C70.2907 126.185 69.9627 127.167 69.6357 128.149C70.2426 142.703 70.8975 157.106 71.5997 171.356C70.6324 187.975 70.3054 204.668 70.6177 221.438C70.929 225.564 70.601 229.492 69.6357 233.221C69.5139 213.905 69.1869 194.592 68.6537 175.284C67.9948 158.601 67.5038 141.907 67.1807 125.203C66.1988 126.512 65.2168 126.512 64.2348 125.203C64.0335 143.563 63.5425 161.894 62.7618 180.194C62.3798 192.907 62.0528 206.982 61.7798 222.42C60.9569 222.084 60.629 221.43 60.7979 220.456C60.2077 214.271 60.2077 207.069 60.7979 198.852C60.791 193.892 60.137 189.31 58.8339 185.104C60.3569 173.76 61.0119 162.304 60.7979 150.735C60.4709 142.224 60.1429 133.714 59.8159 125.203C58.8555 125.672 58.0375 126.326 57.3609 127.167C56.2562 130.496 54.7832 133.606 52.942 136.496C43.788 139.768 34.6231 143.041 25.4465 146.316C26.236 148.055 27.382 149.528 28.8834 150.735C29.6189 151.849 29.4559 152.831 28.3924 153.681C26.2399 152.346 24.603 150.546 23.4825 148.28C22.0646 147.513 20.7556 147.677 19.5546 148.771C22.4426 153.135 25.8796 157.063 29.8654 160.555C30.4458 161.52 30.1178 162.175 28.8834 162.519C24.2907 159.399 20.5268 155.471 17.5906 150.735C15.9851 149.575 14.3481 149.575 12.6807 150.735C10.7561 148.976 9.44707 146.849 8.75281 144.352C24.6265 135.271 40.3383 125.942 55.8879 116.365C57.6653 112.976 59.3013 109.539 60.7979 106.055C60.5062 102.49 58.7062 100.035 55.397 98.6898C55.233 97.2168 55.07 95.7438 54.906 94.2709C56.6244 85.2734 58.2604 76.2719 59.8159 67.2664C57.4395 67.0625 55.1485 67.3899 52.942 68.2483C52.1486 67.9463 51.4936 67.4553 50.978 66.7754C53.924 64.8085 57.1969 63.9901 60.7979 64.3204C60.7979 63.3384 60.7979 62.3565 60.7979 61.3745C55.395 61.5111 50.1581 62.493 45.0861 64.3204C44.2161 63.5103 43.8891 62.5283 44.1042 61.3745C49.9136 59.7588 55.8055 58.4494 61.7798 57.4465C62.5124 56.2326 62.8394 54.9233 62.7618 53.5186C65.3808 53.5186 67.9987 53.5186 70.6177 53.5186C70.4537 71.8518 70.6177 90.1822 71.1087 108.51C73.8906 110.804 75.0366 113.749 74.5456 117.347C76.4939 117.233 78.1298 117.888 79.4555 119.311C82.8944 117.581 86.4944 117.09 90.2573 117.838C96.9859 124.077 103.86 130.132 110.879 136.005C112.124 134.234 112.779 132.27 112.843 130.113C113.825 130.113 114.807 130.113 115.789 130.113C115.372 132.916 114.391 135.535 112.843 137.969C113.572 138.742 114.39 139.396 115.298 139.933C117.724 134.805 119.851 129.568 121.681 124.221C122.875 129.661 121.893 134.734 118.735 139.442C118.959 139.834 119.287 139.997 119.717 139.933ZM54.906 120.293C56.7315 120.255 58.0404 121.073 58.8339 122.748C57.0801 123.519 55.6071 124.664 54.415 126.185C53.7826 129.238 52.6366 132.021 50.978 134.532C39.5812 138.609 28.1244 142.537 16.6087 146.316C15.1907 147.083 13.8817 146.919 12.6807 145.825C26.6514 137.044 40.7271 128.533 54.906 120.293ZM62.7618 110.474C72.0592 110.262 74.3502 114.026 69.6357 121.766C64.0679 123.998 60.4669 122.197 58.8339 116.365C59.1933 113.659 60.5033 111.695 62.7618 110.474ZM64.7258 56.4646C65.7078 56.4646 66.6897 56.4646 67.6717 56.4646C67.6717 73.4855 67.6717 90.5066 67.6717 107.528C66.3627 107.528 65.0528 107.528 63.7438 107.528C63.9206 103.259 62.1206 99.985 58.3429 97.7078C58.1789 96.7258 58.0159 95.7438 57.8519 94.7619C60.3039 82.0126 62.5949 69.2468 64.7258 56.4646ZM113.825 142.879C112.736 142.935 111.754 143.262 110.879 143.861C107.745 143.28 104.799 142.134 102.041 140.424C92.2213 134.532 82.4015 128.64 72.5816 122.748C73.0707 121.611 73.8887 120.793 75.0366 120.293C78.7927 121.564 82.5576 121.564 86.3294 120.293C87.7415 120.508 89.0505 120.999 90.2573 121.766C98.3292 128.7 106.185 135.737 113.825 142.879ZM68.6537 175.284C66.0858 176.217 64.1219 177.854 62.7618 180.194C63.5425 161.894 64.0335 143.563 64.2348 125.203C65.2168 126.512 66.1988 126.512 67.1807 125.203C67.5038 141.907 67.9948 158.601 68.6537 175.284Z" fill="#218BA4"/>
<path opacity="0.941" fill-rule="evenodd" clip-rule="evenodd" d="M288.618 122.257C290.116 123.231 290.771 124.704 290.582 126.676C290.255 127.822 289.927 128.967 289.6 130.113C288.637 127.573 288.31 124.954 288.618 122.257Z" fill="#158BA8"/>
<path fill-rule="evenodd" clip-rule="evenodd" d="M325.933 229.293C319.027 242.259 321.645 252.734 333.789 260.716C335.018 268.184 335.673 275.713 335.752 283.302C324.703 284.261 313.573 284.589 302.365 284.284C302.365 281.011 302.365 277.737 302.365 274.464C311.552 272.968 316.461 267.568 317.095 258.261C316.357 248.522 311.119 243.121 301.383 242.059C286.857 245.252 282.438 253.763 288.126 267.59C291.156 271.805 295.247 274.096 300.401 274.464C300.68 277.682 300.353 280.791 299.419 283.793C279.454 284.284 259.488 284.448 239.518 284.284C238.231 280.25 238.559 276.322 240.5 272.5C247.047 272.5 253.593 272.5 260.14 272.5C259.266 261.36 258.284 250.231 257.194 239.113C242.791 239.113 228.389 239.113 213.987 239.113C213.416 249.97 212.434 260.772 211.041 271.518C217.563 272.334 224.11 272.825 230.68 272.991C231.236 273.968 231.891 274.786 232.644 275.446C232.644 278.065 232.644 280.683 232.644 283.302C217.005 284.431 201.294 284.595 185.509 283.793C184.393 280.077 184.393 276.312 185.509 272.5C192.056 272.5 198.602 272.5 205.149 272.5C204.587 261.638 203.932 250.509 203.185 239.113C188.767 238.786 174.366 239.114 159.978 240.095C158.584 250.841 157.602 261.642 157.032 272.5C163.579 272.5 170.125 272.5 176.671 272.5C176.472 274.356 177.126 275.829 178.635 276.919C177.712 278.79 177.385 280.918 177.653 283.302C161.715 284.602 145.84 284.602 130.027 283.302C129.115 279.625 129.606 276.188 131.5 272.991C138.038 272.5 144.585 272.337 151.14 272.5C150.058 261.379 149.076 250.25 148.194 239.113C133.791 239.113 119.389 239.113 104.987 239.113C104.221 250.271 103.239 261.4 102.041 272.5C108.595 272.337 115.142 272.5 121.68 272.991C123.79 276.44 124.117 280.041 122.662 283.793C105.972 284.284 89.2779 284.448 72.5813 284.284C72.1433 272.23 71.8153 258.809 71.5993 244.023C71.9184 236.312 71.5914 228.784 70.6173 221.437C70.305 204.668 70.632 187.974 71.5993 171.356C81.6833 161.275 93.1401 153.091 105.969 146.806C110.013 147.092 113.777 148.729 117.261 151.716C118.536 149.983 119.681 148.182 120.698 146.315C117.482 144.423 117.155 142.296 119.716 139.933C188.383 115.618 247.793 129.693 297.946 182.158C309.551 196.533 318.88 212.245 325.933 229.293Z" fill="#24DCFC"/>
<path fill-rule="evenodd" clip-rule="evenodd" d="M113.826 142.879C117.052 143.608 118.362 145.408 117.754 148.28C115.048 147.951 112.429 146.969 109.898 145.334C110.444 144.958 110.771 144.467 110.88 143.861C111.755 143.262 112.737 142.935 113.826 142.879Z" fill="#18B4DB"/>
<path fill-rule="evenodd" clip-rule="evenodd" d="M68.6535 175.284C69.1867 194.591 69.5137 213.904 69.6354 233.221C69.3242 237.347 69.6521 241.275 70.6174 245.004C70.3022 256.482 70.3022 269.247 70.6174 283.302C67.3445 283.302 64.0706 283.302 60.7976 283.302C60.7976 270.209 60.7976 257.115 60.7976 244.022C61.7717 237.003 62.0987 229.802 61.7796 222.419C62.0526 206.981 62.3796 192.906 62.7616 180.193C64.1216 177.853 66.0856 176.216 68.6535 175.284Z" fill="#18B4DB"/>
<path fill-rule="evenodd" clip-rule="evenodd" d="M58.8339 185.104C60.137 189.31 60.791 193.892 60.7979 198.852C60.2077 207.069 60.2077 214.271 60.7979 220.455C59.8306 224.515 59.5036 228.771 59.8159 233.221C59.7962 250.25 59.4692 267.27 58.8339 284.284C46.9716 284.59 35.1878 284.263 23.4825 283.302C23.8086 246.31 35.5923 213.577 58.8339 185.104Z" fill="#1BCBF5"/>
<path fill-rule="evenodd" clip-rule="evenodd" d="M60.7982 220.455C60.6293 221.429 60.9572 222.083 61.7801 222.419C62.0993 229.803 61.7723 237.004 60.7982 244.023C61.1075 240.222 60.7805 236.621 59.8162 233.221C59.5039 228.771 59.8309 224.515 60.7982 220.455Z" fill="#719F7D"/>
<path fill-rule="evenodd" clip-rule="evenodd" d="M70.6178 221.437C71.5919 228.784 71.9189 236.312 71.5998 244.023C70.9448 244.023 70.6178 244.35 70.6178 245.005C69.6525 241.275 69.3245 237.347 69.6358 233.221C70.6011 229.491 70.9291 225.563 70.6178 221.437Z" fill="#719F7D"/>
<path opacity="0.973" fill-rule="evenodd" clip-rule="evenodd" d="M-23.6525 160.554C-22.0676 159.008 -20.1036 158.354 -17.7606 158.59C-18.0837 171.857 -17.7567 184.951 -16.7786 197.87C-14.8667 199.555 -13.5567 201.683 -12.8507 204.252C-9.55516 204.464 -6.28223 204.464 -3.03088 204.252C2.04301 208.671 7.11594 213.09 12.1898 217.509C12.4452 215.429 13.4272 213.793 15.1358 212.599C15.6268 213.09 16.1178 213.581 16.6088 214.072C15.291 216.051 14.8 218.179 15.1358 220.455C17.1744 217.123 18.3194 213.522 18.5727 209.653C19.5547 209.653 20.5367 209.653 21.5187 209.653C20.848 213.645 19.866 217.573 18.5727 221.437C18.6012 222.939 19.2562 224.085 20.5367 224.874C20.0791 226.959 18.9331 228.432 17.0998 229.293C5.72937 223.484 -5.39941 217.265 -16.2876 210.635C-16.6225 229.016 -16.4585 246.364 -15.7966 262.68C-16.7708 269.7 -17.0978 276.9 -16.7786 284.284C-3.18407 284.607 10.2357 284.28 23.4826 283.302C35.1879 284.263 46.9716 284.59 58.834 284.284C118.569 285.265 178.47 285.592 238.537 285.266C525.275 285.266 812.014 285.266 1098.75 285.266C1172.73 285.266 1246.71 285.266 1320.68 285.266C1320.68 285.593 1320.68 285.921 1320.68 286.248C796.96 286.248 273.233 286.248 -250.49 286.248C-250.49 285.266 -250.49 284.284 -250.49 283.302C-234.779 283.302 -219.067 283.302 -203.355 283.302C-203.355 265.953 -203.355 248.606 -203.355 231.257C-201.217 231.341 -199.253 231.996 -197.463 233.221C-196.02 220.421 -194.383 207.655 -192.553 194.924C-189.935 194.924 -187.316 194.924 -184.698 194.924C-184.706 193.148 -184.215 191.511 -183.225 190.014C-181.055 188.174 -179.255 186.047 -177.824 183.631C-170.147 182.835 -165.401 178.744 -163.585 171.356C-154.821 168.165 -150.239 161.945 -149.837 152.698C-149.431 152.25 -148.94 151.922 -148.364 151.716C-146.474 159.296 -148.765 165.351 -155.238 169.883C-157.444 170.903 -159.572 172.049 -161.621 173.32C-163.424 180.704 -168.171 184.795 -175.86 185.595C-176.538 186.643 -177.029 187.789 -177.333 189.032C-180.115 190.505 -182.243 192.633 -183.716 195.415C-183.225 195.906 -182.734 196.397 -182.243 196.888C-180.76 212.025 -178.796 227.083 -176.351 242.059C-176.179 238.415 -175.688 234.814 -174.878 231.257C-167.324 234.134 -159.959 237.407 -152.783 241.077C-152.294 237.82 -152.13 234.547 -152.292 231.257C-150.697 231.394 -149.552 230.739 -148.855 229.293C-147.283 223.267 -145.319 217.375 -142.963 211.617C-142.473 207.046 -142.309 202.464 -142.472 197.87C-130.997 198.196 -119.541 197.869 -108.103 196.888C-103.187 193.279 -100.568 188.369 -100.247 182.158C-93.0953 182.869 -89.1674 179.596 -88.4633 172.338C-76.0265 171.69 -68.8256 165.144 -66.8597 152.698C-65.6617 153.078 -65.0067 153.896 -64.8958 155.153C-67.4077 166.994 -74.6085 174.032 -86.4994 176.266C-88.2257 182.258 -92.1536 185.204 -98.2831 185.104C-98.1565 190.58 -100.447 194.672 -105.157 197.379C-104.363 202.698 -103.872 208.099 -103.684 213.581C-96.0963 236.509 -88.4034 259.422 -80.6075 282.32C-62.2886 283.302 -43.9589 283.629 -25.6165 283.302C-24.4734 259.08 -24.4734 234.858 -25.6165 210.635C-26.9785 213.573 -28.6154 216.355 -30.5264 218.982C-36.7787 221.283 -42.9975 223.575 -49.184 225.856C-48.3238 227.414 -47.3418 228.886 -46.2381 230.275C-46.7291 230.602 -47.2201 230.93 -47.7111 231.257C-49.3264 229.642 -50.9634 228.005 -52.621 226.347C-53.112 226.838 -53.603 227.329 -54.0939 227.82C-51.639 230.275 -49.184 232.73 -46.7291 235.185C-46.1762 236.388 -46.5032 237.37 -47.7111 238.131C-50.8573 235.314 -53.6393 232.205 -56.0579 228.802C-59.4398 228.693 -61.7308 227.057 -62.9318 223.892C-51.5074 217.195 -40.0506 210.485 -28.5624 203.761C-27.6501 200.902 -26.3412 198.283 -24.6345 195.906C-26.0584 193.331 -27.6953 190.876 -29.5444 188.541C-27.9987 181.869 -26.6898 175.159 -25.6165 168.41C-27.6826 168.704 -29.6465 168.377 -31.5084 167.428C-29.5611 165.932 -27.2701 164.95 -24.6345 164.482C-25.1255 164.155 -25.6165 163.827 -26.1075 163.5C-29.8547 164.946 -33.6186 165.273 -37.4003 164.482C-36.5351 163.038 -35.2261 162.22 -33.4723 162.027C-30.2387 161.216 -26.9657 160.725 -23.6525 160.554ZM-141.49 213.581C-129.791 213.266 -118.171 213.593 -106.63 214.563C-98.6386 237.39 -90.9467 260.304 -83.5534 283.302C-97.3012 283.302 -111.049 283.302 -124.797 283.302C-124.47 269.866 -124.798 256.445 -125.779 243.041C-133.318 239.926 -140.519 236.325 -147.382 232.239C-144.625 226.258 -142.661 220.039 -141.49 213.581ZM-21.6885 211.617C-21.6296 211.084 -21.3026 210.757 -20.7066 210.635C-19.5537 234.844 -18.8987 259.067 -18.7426 283.302C-20.0516 283.302 -21.3615 283.302 -22.6705 283.302C-22.3779 259.499 -21.7229 235.768 -20.7066 212.108C-20.9305 211.717 -21.2584 211.554 -21.6885 211.617ZM-14.8147 206.707C-11.2412 207.595 -7.64128 207.759 -4.01286 207.198C2.41225 212.194 8.63113 217.432 14.6448 222.91C16.1246 223.732 16.6156 224.878 16.1178 226.347C6.21448 220.494 -3.76933 214.767 -13.8327 209.162C-14.5711 208.503 -14.8991 207.685 -14.8147 206.707ZM-28.5624 206.707C-27.7022 206.579 -27.0472 206.906 -26.5984 207.689C-29.0446 210.112 -30.3535 213.058 -30.5264 216.527C-40.0683 219.439 -49.5611 222.221 -59.0039 224.874C-48.9464 218.562 -38.7996 212.506 -28.5624 206.707ZM-107.121 200.816C-107.121 204.088 -107.121 207.362 -107.121 210.635C-118.25 210.635 -129.38 210.635 -140.508 210.635C-140.508 207.362 -140.508 204.088 -140.508 200.816C-129.38 200.816 -118.25 200.816 -107.121 200.816ZM-21.6885 198.852C-14.5741 201.316 -14.2461 204.262 -20.7066 207.689C-24.1572 206.71 -25.3032 204.419 -24.1435 200.816C-23.1664 200.26 -22.3484 199.605 -21.6885 198.852ZM-190.589 197.87C-188.658 197.635 -186.857 197.962 -185.189 198.852C-182.988 212.198 -181.515 225.618 -180.77 239.113C-186.084 238.253 -190.667 236.125 -194.517 232.73C-192.788 221.16 -191.478 209.539 -190.589 197.87ZM-20.7066 159.572C-19.4054 171.526 -19.4054 183.637 -20.7066 195.906C-22.1029 193.032 -24.0669 190.577 -26.5984 188.541C-24.7022 178.896 -22.7383 169.24 -20.7066 159.572ZM-200.409 235.185C-191.43 239.022 -182.264 242.295 -172.914 245.005C-173.076 241.715 -172.912 238.442 -172.423 235.185C-165.015 238.315 -157.65 241.588 -150.328 245.005C-149.519 241.779 -149.028 238.506 -148.855 235.185C-142.219 238.421 -135.509 241.53 -128.725 244.514C-127.753 257.365 -127.425 270.295 -127.743 283.302C-131.344 283.302 -134.943 283.302 -138.544 283.302C-138.544 280.029 -138.544 276.755 -138.544 273.482C-141.817 273.482 -145.091 273.482 -148.364 273.482C-148.364 276.755 -148.364 280.029 -148.364 283.302C-165.713 283.302 -183.061 283.302 -200.409 283.302C-200.409 267.263 -200.409 251.224 -200.409 235.185ZM-138.544 252.861C-138.544 254.825 -138.544 256.789 -138.544 258.752C-141.377 258.452 -143.996 258.779 -146.4 259.734C-147.351 257.665 -147.679 255.373 -147.382 252.861C-144.436 252.861 -141.49 252.861 -138.544 252.861ZM-181.752 252.861C-178.806 252.861 -175.86 252.861 -172.914 252.861C-172.914 254.825 -172.914 256.789 -172.914 258.752C-175.808 258.48 -178.591 258.807 -181.261 259.734C-181.748 257.466 -181.912 255.175 -181.752 252.861ZM-164.076 252.861C-161.13 252.861 -158.184 252.861 -155.238 252.861C-155.238 254.825 -155.238 256.789 -155.238 258.752C-158.184 258.752 -161.13 258.752 -164.076 258.752C-164.076 256.789 -164.076 254.825 -164.076 252.861ZM-145.418 276.428C-144.109 276.428 -142.799 276.428 -141.49 276.428C-141.188 278.808 -141.516 281.099 -142.472 283.302C-143.381 282.182 -144.2 282.182 -144.927 283.302C-145.415 281.034 -145.578 278.743 -145.418 276.428Z" fill="#1A9DBD"/>
<path opacity="0.973" fill-rule="evenodd" clip-rule="evenodd" d="M1072.24 100.653C1073.29 101.57 1074.6 101.898 1076.17 101.635C1075.84 162.357 1076.17 222.912 1077.15 283.302C1084.35 283.957 1091.56 284.611 1098.75 285.266C812.015 285.266 525.276 285.266 238.537 285.266C238.537 284.611 238.864 284.284 239.519 284.284C259.489 284.448 279.456 284.284 299.42 283.793C300.354 280.791 300.681 277.682 300.402 274.464C301.124 277.162 301.779 280.435 302.366 284.284C313.575 284.589 324.704 284.261 335.754 283.302C337.147 284.236 338.783 284.563 340.663 284.284C340.663 276.428 340.663 268.572 340.663 260.716C339.027 260.716 337.391 260.716 335.754 260.716C335.099 260.716 334.445 260.716 333.79 260.716C321.646 252.734 319.028 242.259 325.934 229.293C336.813 219.854 347.452 220.182 357.848 230.275C364.363 243.921 360.926 254.231 347.537 261.207C345.933 261.692 344.296 261.855 342.627 261.698C342.627 268.899 342.627 276.101 342.627 283.302C363.914 283.629 385.19 283.302 406.456 282.32C412.387 265.67 418.607 249.14 425.114 232.73C421.317 228.604 417.226 224.84 412.839 221.437C412.35 218.509 412.186 215.563 412.348 212.599C407.329 211.949 407.329 210.804 412.348 209.162C408.352 208.229 407.861 206.756 410.875 204.743C411.202 205.07 411.53 205.398 411.857 205.725C412.331 204.794 412.494 203.812 412.348 202.779C413.33 202.779 414.312 202.779 415.294 202.779C415.148 203.812 415.311 204.794 415.785 205.725C416.896 204.641 417.715 204.968 418.24 206.707C417.661 207.983 416.679 208.801 415.294 209.162C419.004 210.773 419.004 211.919 415.294 212.599C415.294 214.236 415.294 215.872 415.294 217.509C418.567 217.509 421.841 217.509 425.114 217.509C425.278 205.066 425.114 192.628 424.623 180.194C422.042 178.597 419.751 176.633 417.749 174.302C417.26 171.374 417.096 168.428 417.258 165.464C412.158 165.03 412.158 164.048 417.258 162.518C416.176 161.854 415.194 161.2 414.312 160.554C416.716 159.599 419.335 159.272 422.168 159.572C422.598 159.508 422.926 159.671 423.15 160.063C421.841 161.045 420.531 162.027 419.222 163.009C424.459 163.991 424.459 164.973 419.222 165.955C420.112 167.623 420.439 169.424 420.204 171.356C422.27 171.65 424.234 171.323 426.096 170.374C429.409 160.924 433.01 151.596 436.898 142.388C434.629 141.899 432.338 141.736 430.024 141.897C430.208 143.471 429.717 144.781 428.551 145.824C427.223 143.768 426.732 141.477 427.078 138.951C441.812 138.787 456.541 138.951 471.267 139.442C472.65 141.692 472.486 143.82 470.776 145.824C469.609 144.781 469.119 143.471 469.303 141.897C467.15 140.623 464.858 140.623 462.429 141.897C462.551 142.493 462.878 142.82 463.411 142.878C466.565 152.136 470.002 161.301 473.722 170.374C475.726 171.28 477.854 171.607 480.105 171.356C480.105 169.392 480.105 167.428 480.105 165.464C475.203 165.387 475.203 164.405 480.105 162.518C478.961 161.454 477.652 160.636 476.177 160.063C478.381 159.085 480.181 157.612 481.578 155.644C482.668 157.356 484.141 158.665 485.997 159.572C485.248 160.769 484.266 161.751 483.051 162.518C486.859 163.878 486.859 165.023 483.051 165.955C491.157 179.357 502.613 188.85 517.42 194.433C532.129 199.485 546.531 201.94 560.627 201.797C567.945 200.916 575.147 199.443 582.231 197.378C584.005 195.805 585.969 194.495 588.123 193.451C587.192 192.976 586.21 192.813 585.177 192.96C585.177 191.978 585.177 190.996 585.177 190.014C586.79 190.033 588.099 189.378 589.105 188.05C590.456 189.367 591.765 190.676 593.033 191.978C592.173 192.715 591.191 193.206 590.087 193.451C593.517 194.519 593.68 195.665 590.578 196.887C590.104 197.818 589.941 198.8 590.087 199.833C591.701 200.044 593.174 199.716 594.506 198.851C597.24 192.403 599.695 185.856 601.871 179.212C600.703 178.3 599.394 177.973 597.943 178.23C597.241 181.988 596.259 181.988 594.997 178.23C595.103 177.305 595.43 176.487 595.979 175.775C606.781 175.12 617.582 175.12 628.384 175.775C629.621 177.556 629.621 179.356 628.384 181.176C627.109 180.596 626.291 179.614 625.929 178.23C625.274 179.539 624.62 179.539 623.965 178.23C623.801 178.885 623.638 179.539 623.474 180.194C625.961 186.343 628.252 192.562 630.348 198.851C631.516 199.764 632.825 200.091 634.276 199.833C634.391 197.885 633.736 196.249 632.312 194.924C632.828 194.244 633.483 193.753 634.276 193.451C633.365 193.07 632.71 192.415 632.312 191.487C634.731 187.144 637.023 187.144 639.186 191.487C638.788 192.415 638.133 193.07 637.222 193.451C638.373 193.862 639.355 194.516 640.168 195.415C638.738 195.83 638.247 196.648 638.695 197.869C653.094 218.414 672.897 229.706 698.105 231.748C713.754 232.615 729.138 230.978 744.258 226.838C744.916 224.547 745.564 222.255 746.222 219.964C759.636 219.473 773.06 219.309 786.483 219.473C786.316 229.299 786.483 239.119 786.974 248.933C791.649 252.837 797.049 254.474 803.177 253.842C811.701 254.405 819.065 251.787 825.272 245.987C824.81 241.261 826.774 238.315 831.164 237.149C832.43 237.591 833.569 238.246 834.6 239.113C835.396 236.888 835.887 234.596 836.073 232.239C838.175 230.993 840.306 230.993 842.456 232.239C843.006 234.55 843.664 236.841 844.42 239.113C847.042 236.494 849.654 236.494 852.276 239.113C853.081 241.673 853.572 244.292 853.749 246.969C855.566 244.451 857.363 244.451 859.15 246.969C859.661 244.267 860.8 241.976 862.587 240.095C863.569 240.422 864.551 240.75 865.533 241.077C867.016 242.842 867.173 244.643 866.024 246.478C867.841 245.709 869.805 245.382 871.916 245.496C873.291 246.538 874.273 247.847 874.862 249.424C874.538 251.412 874.38 253.539 874.371 255.806C872.034 256.725 869.579 257.052 867.006 256.788C867.006 265.626 867.006 274.464 867.006 283.302C883.375 283.302 899.735 283.302 916.105 283.302C916.105 233.876 916.105 184.449 916.105 135.023C919.051 135.023 921.997 135.023 924.943 135.023C924.943 129.131 924.943 123.239 924.943 117.347C939.672 115.924 954.559 113.96 969.623 111.455C969.947 111.782 970.281 112.11 970.605 112.437C977.95 111.185 985.315 109.876 992.7 108.509C993.279 108.714 993.77 109.042 994.172 109.491C994.978 117.916 994.811 126.262 993.682 134.532C995.616 135.018 997.58 135.182 999.573 135.023C999.573 123.566 999.573 112.11 999.573 100.653C1002.84 100.653 1006.12 100.653 1009.39 100.653C1009.39 95.0887 1009.39 89.5242 1009.39 83.9596C1021.51 84.1231 1033.62 83.9595 1045.73 83.4686C1046.36 78.771 1047.01 74.0248 1047.69 69.2298C1048.27 69.4354 1048.76 69.7627 1049.16 70.2118C1049.65 74.7828 1049.82 79.3654 1049.65 83.9596C1052.6 83.9596 1055.55 83.9596 1058.49 83.9596C1059.15 56.4641 1059.8 56.4641 1060.46 83.9596C1062.74 83.9596 1065.04 83.9596 1067.33 83.9596C1067.33 89.5242 1067.33 95.0887 1067.33 100.653C1068.97 100.653 1070.6 100.653 1072.24 100.653ZM471.267 234.203C478.069 249.572 484.288 265.284 489.925 281.338C487.701 282.464 485.41 282.628 483.051 281.829C472.309 272.383 461.834 262.726 451.627 252.86C458.194 246.62 464.741 240.401 471.267 234.203ZM427.078 234.203C433.631 240.429 440.177 246.647 446.718 252.86C436.449 261.981 426.301 271.31 416.276 280.847C414.121 282.195 411.829 282.522 409.402 281.829C415.149 265.913 421.041 250.038 427.078 234.203ZM431.006 234.203C443.274 233.064 455.712 232.9 468.321 233.712C461.938 239.44 455.555 245.169 449.172 250.897C442.95 245.492 436.894 239.927 431.006 234.203ZM1016.27 225.365C1035.91 225.365 1055.55 225.365 1075.19 225.365C1075.19 227.656 1075.19 229.948 1075.19 232.239C1055.55 232.239 1035.91 232.239 1016.27 232.239C1016.27 229.948 1016.27 227.656 1016.27 225.365ZM343.609 245.987C344.802 244.367 346.111 242.731 347.537 241.077C345.606 240.387 343.969 240.387 342.627 241.077C344.327 239.265 345.964 237.465 347.537 235.676C347.21 235.185 346.882 234.694 346.555 234.203C345.265 235.001 344.119 235.983 343.118 237.149C342.92 235.424 342.429 233.788 341.645 232.239C341.07 232.444 340.579 232.772 340.172 233.221C339.681 241.725 339.518 250.236 339.681 258.752C337.149 258.856 334.858 258.201 332.808 256.788C331.815 248.594 329.851 240.738 326.916 233.221C337.105 221.472 347.089 221.799 356.866 234.203C360.492 243.945 358.037 251.637 349.501 257.279C347.364 258.46 345.072 258.951 342.627 258.752C341.491 253.458 343.128 249.367 347.537 246.478C347.21 245.987 346.882 245.496 346.555 245.005C345.655 245.62 344.673 245.948 343.609 245.987ZM625.438 233.221C616.779 234.196 607.941 234.524 598.925 234.203C603.439 230.622 608.022 227.021 612.672 223.401C616.81 226.929 621.065 230.202 625.438 233.221ZM748.186 222.419C759.97 222.419 771.754 222.419 783.537 222.419C783.537 242.714 783.537 263.007 783.537 283.302C771.754 283.302 759.97 283.302 748.186 283.302C748.186 263.007 748.186 242.714 748.186 222.419ZM474.213 220.455C477.177 220.293 480.123 220.457 483.051 220.946C479.977 223.036 477.195 225.491 474.704 228.311C474.216 225.713 474.052 223.094 474.213 220.455ZM428.06 220.455C442.463 220.455 456.864 220.455 471.267 220.455C471.267 223.728 471.267 227.002 471.267 230.275C456.864 230.275 442.463 230.275 428.06 230.275C428.06 227.002 428.06 223.728 428.06 220.455ZM416.276 221.437C419.013 220.478 421.959 220.151 425.114 220.455C425.275 223.094 425.111 225.713 424.623 228.311C422.25 225.441 419.468 223.149 416.276 221.437ZM486.979 214.563C498.31 225.959 512.058 232.996 528.222 235.676C547.001 238.427 565.496 237.281 583.704 232.239C585.218 238.025 588.655 242.444 594.015 245.496C588.888 257.6 584.142 269.874 579.776 282.32C551.205 283.461 522.565 283.624 493.853 282.811C487.347 266.406 481.128 249.876 475.195 233.221C478.09 228.524 481.854 224.596 486.488 221.437C486.976 219.169 487.139 216.878 486.979 214.563ZM596.961 210.635C601.509 213.874 605.765 217.474 609.727 221.437C605.805 225.192 601.714 228.793 597.452 232.239C596.961 225.045 596.798 217.844 596.961 210.635ZM627.402 209.653C628.537 217.335 628.701 225.191 627.893 233.221C623.821 228.824 619.402 224.732 614.636 220.946C619.082 217.314 623.338 213.55 627.402 209.653ZM599.907 208.671C608.096 208.508 616.279 208.671 624.456 209.162C620.358 212.445 616.431 215.882 612.672 219.473C608.086 216.189 603.83 212.589 599.907 208.671ZM1016.27 203.761C1035.91 203.761 1055.55 203.761 1075.19 203.761C1075.19 206.052 1075.19 208.344 1075.19 210.635C1055.55 210.635 1035.91 210.635 1016.27 210.635C1016.27 208.344 1016.27 206.052 1016.27 203.761ZM627.402 201.797C628.661 202.984 628.661 204.294 627.402 205.725C617.35 204.606 607.367 204.606 597.452 205.725C596.977 204.794 596.814 203.812 596.961 202.779C607.285 203.101 617.432 202.773 627.402 201.797ZM448.682 201.797C455.346 206.616 461.893 211.69 468.321 217.018C455.882 217.673 443.445 217.673 431.006 217.018C437.376 212.444 443.268 207.371 448.682 201.797ZM637.222 200.815C654.494 223.893 677.735 235.35 706.943 235.185C719.659 234.823 732.101 232.859 744.258 229.293C745.564 235.84 745.564 242.386 744.258 248.933C715.787 261.227 687.637 260.409 659.808 246.478C651.701 241.958 645.482 236.066 641.15 228.802C643.525 226.321 642.871 224.52 639.186 223.401C637.989 224.526 636.68 225.508 635.258 226.347C635.987 228.164 636.969 228.818 638.204 228.311C634.438 229.78 634.438 230.762 638.204 231.257C638.204 232.239 638.204 233.221 638.204 234.203C635.913 234.203 633.621 234.203 631.33 234.203C631.167 225.032 631.33 215.866 631.821 206.707C634.111 205.035 635.911 203.071 637.222 200.815ZM470.285 184.122C471.594 194.597 471.594 205.07 470.285 215.545C463.965 210.378 457.745 204.977 451.627 199.342C458.032 194.402 464.252 189.329 470.285 184.122ZM428.06 184.122C434.71 188.961 441.257 194.034 447.7 199.342C441.604 205.112 435.221 210.512 428.551 215.545C428.06 205.076 427.896 194.601 428.06 184.122ZM1016.27 182.158C1035.74 183.462 1055.22 183.462 1074.7 182.158C1075.19 184.426 1075.34 186.717 1075.19 189.032C1055.55 189.032 1035.91 189.032 1016.27 189.032C1016.27 186.741 1016.27 184.449 1016.27 182.158ZM430.024 182.158C442.947 181.019 456.04 180.855 469.303 181.667C463.012 187.185 456.629 192.585 450.154 197.869C443.548 192.398 436.838 187.161 430.024 182.158ZM604.817 179.212C609.737 179.049 614.647 179.213 619.546 179.703C622.448 185.95 625.067 192.333 627.402 198.851C617.271 199.996 607.123 200.159 596.961 199.342C599.676 192.67 602.295 185.96 604.817 179.212ZM474.213 174.302C477.781 174.246 477.945 175.228 474.704 177.248C474.23 176.317 474.067 175.335 474.213 174.302ZM428.06 174.302C442.463 174.302 456.864 174.302 471.267 174.302C471.267 175.939 471.267 177.575 471.267 179.212C456.864 179.212 442.463 179.212 428.06 179.212C428.06 177.575 428.06 175.939 428.06 174.302ZM422.168 175.284C423.038 174.031 424.02 174.031 425.114 175.284C424.206 176.327 423.224 176.327 422.168 175.284ZM483.051 172.338C497.814 190.037 516.799 200.348 540.006 203.27C556.089 205.521 571.8 204.048 587.141 198.851C588.229 202.417 590.356 205.363 593.524 207.689C594.015 216.521 594.178 225.359 594.015 234.203C591.724 234.203 589.432 234.203 587.141 234.203C587.121 232.589 587.776 231.28 589.105 230.275C588.589 229.595 587.934 229.104 587.141 228.802C589.77 226.333 589.279 224.533 585.668 223.401C584.195 224.383 582.722 225.365 581.249 226.347C581.774 228.086 582.593 228.413 583.704 227.329C584.284 228.294 583.956 228.949 582.722 229.293C558.5 236.256 534.442 235.765 510.546 227.82C502.558 224.091 495.357 219.181 488.943 213.09C490.373 212.675 490.864 211.857 490.416 210.635C489.136 210.034 487.99 209.706 486.979 209.653C491.116 208.645 491.607 207.008 488.452 204.743C488.125 205.07 487.797 205.398 487.47 205.725C486.538 201.917 485.393 201.917 484.033 205.725C482.663 204.434 481.681 204.762 481.087 206.707C482.168 208.567 483.477 209.222 485.015 208.671C480.058 210.641 480.058 211.95 485.015 212.599C485.015 214.236 485.015 215.872 485.015 217.509C481.414 217.509 477.814 217.509 474.213 217.509C473.887 205.054 474.214 192.615 475.195 180.194C478.162 177.882 480.781 175.263 483.051 172.338ZM1016.27 160.554C1035.91 160.554 1055.55 160.554 1075.19 160.554C1075.19 162.845 1075.19 165.137 1075.19 167.428C1055.55 167.428 1035.91 167.428 1016.27 167.428C1016.27 165.137 1016.27 162.845 1016.27 160.554ZM470.285 170.374C456.599 171.664 442.851 171.664 429.042 170.374C432.212 161.091 435.649 151.926 439.353 142.878C446.334 141.59 453.371 141.59 460.465 142.878C463.94 151.992 467.212 161.157 470.285 170.374ZM1016.27 139.933C1035.91 139.933 1055.55 139.933 1075.19 139.933C1075.19 142.224 1075.19 144.515 1075.19 146.806C1055.55 146.806 1035.91 146.806 1016.27 146.806C1016.27 144.515 1016.27 142.224 1016.27 139.933ZM919.051 136.987C946.546 136.987 974.042 136.987 1001.54 136.987C1001.54 185.759 1001.54 234.53 1001.54 283.302C974.042 283.302 946.546 283.302 919.051 283.302C919.051 234.53 919.051 185.759 919.051 136.987ZM976.988 229.293C979.61 229.293 982.222 229.293 984.844 229.293C984.844 231.912 984.844 234.53 984.844 237.149C982.222 237.149 979.61 237.149 976.988 237.149C976.988 234.53 976.988 231.912 976.988 229.293ZM955.384 229.293C958.006 229.293 960.618 229.293 963.24 229.293C963.24 231.912 963.24 234.53 963.24 237.149C960.599 237.31 957.986 237.146 955.384 236.658C956.042 234.37 956.042 231.915 955.384 229.293ZM933.781 229.293C936.403 229.293 939.015 229.293 941.636 229.293C941.636 231.912 941.636 234.53 941.636 237.149C939.015 237.149 936.403 237.149 933.781 237.149C933.781 234.53 933.781 231.912 933.781 229.293ZM955.384 209.653C958.006 209.653 960.618 209.653 963.24 209.653C963.24 212.272 963.24 214.89 963.24 217.509C960.599 217.67 957.986 217.506 955.384 217.018C956.042 214.73 956.042 212.275 955.384 209.653ZM976.988 209.653C979.61 209.653 982.222 209.653 984.844 209.653C984.844 212.272 984.844 214.89 984.844 217.509C982.222 217.509 979.61 217.509 976.988 217.509C976.988 214.89 976.988 212.272 976.988 209.653ZM933.781 209.653C936.403 209.653 939.015 209.653 941.636 209.653C941.636 212.272 941.636 214.89 941.636 217.509C939.015 217.509 936.403 217.509 933.781 217.509C933.781 214.89 933.781 212.272 933.781 209.653ZM976.988 190.014C979.61 190.014 982.222 190.014 984.844 190.014C984.844 192.633 984.844 195.251 984.844 197.869C982.222 197.869 979.61 197.869 976.988 197.869C976.988 195.251 976.988 192.633 976.988 190.014ZM955.384 190.014C958.006 190.014 960.618 190.014 963.24 190.014C963.24 192.633 963.24 195.251 963.24 197.869C960.599 198.031 957.986 197.867 955.384 197.378C956.042 195.09 956.042 192.636 955.384 190.014ZM933.781 190.014C936.403 190.014 939.015 190.014 941.636 190.014C941.636 192.633 941.636 195.251 941.636 197.869C939.015 197.869 936.403 197.869 933.781 197.869C933.781 195.251 933.781 192.633 933.781 190.014ZM976.988 170.374C979.61 170.374 982.222 170.374 984.844 170.374C984.844 172.993 984.844 175.611 984.844 178.23C982.222 178.23 979.61 178.23 976.988 178.23C976.988 175.611 976.988 172.993 976.988 170.374ZM955.384 170.374C958.006 170.374 960.618 170.374 963.24 170.374C963.24 172.993 963.24 175.611 963.24 178.23C960.599 178.391 957.986 178.227 955.384 177.739C956.042 175.451 956.042 172.996 955.384 170.374ZM933.781 170.374C936.403 170.374 939.015 170.374 941.636 170.374C941.636 172.993 941.636 175.611 941.636 178.23C939.015 178.23 936.403 178.23 933.781 178.23C933.781 175.611 933.781 172.993 933.781 170.374ZM934.763 150.734C937.384 150.734 939.997 150.734 942.618 150.734C942.618 153.353 942.618 155.971 942.618 158.59C939.997 158.59 937.384 158.59 934.763 158.59C934.763 155.971 934.763 153.353 934.763 150.734ZM977.97 150.734C980.592 150.734 983.204 150.734 985.826 150.734C985.826 153.353 985.826 155.971 985.826 158.59C983.204 158.59 980.592 158.59 977.97 158.59C977.97 155.971 977.97 153.353 977.97 150.734ZM956.366 150.734C958.988 150.734 961.6 150.734 964.222 150.734C964.222 153.353 964.222 155.971 964.222 158.59C961.6 158.59 958.988 158.59 956.366 158.59C956.366 155.971 956.366 153.353 956.366 150.734ZM1016.27 118.329C1035.91 118.329 1055.55 118.329 1075.19 118.329C1075.19 120.62 1075.19 122.912 1075.19 125.203C1055.55 125.203 1035.91 125.203 1016.27 125.203C1016.27 122.912 1016.27 120.62 1016.27 118.329ZM990.736 111.455C991.708 119.13 992.042 126.986 991.718 135.023C970.114 135.187 948.51 135.023 926.907 134.532C927.859 129.88 928.183 125.134 927.889 120.293C949.011 117.695 969.967 114.749 990.736 111.455ZM1002.52 103.599C1026.74 103.599 1050.96 103.599 1075.19 103.599C1075.19 107.527 1075.19 111.455 1075.19 115.383C1054.89 115.219 1034.59 115.383 1014.3 115.874C1013 119.802 1013 123.73 1014.3 127.658C1034.59 128.149 1054.89 128.313 1075.19 128.149C1075.19 131.095 1075.19 134.041 1075.19 136.987C1054.56 136.987 1033.94 136.987 1013.32 136.987C1013.03 141.177 1013.36 145.269 1014.3 149.261C1034.59 149.752 1054.89 149.916 1075.19 149.752C1075.19 152.698 1075.19 155.644 1075.19 158.59C1054.56 158.59 1033.94 158.59 1013.32 158.59C1013.32 162.518 1013.32 166.446 1013.32 170.374C1033.94 170.374 1054.56 170.374 1075.19 170.374C1075.19 173.647 1075.19 176.921 1075.19 180.194C1054.56 180.194 1033.94 180.194 1013.32 180.194C1013.32 184.122 1013.32 188.05 1013.32 191.978C1033.94 191.978 1054.56 191.978 1075.19 191.978C1075.19 194.924 1075.19 197.869 1075.19 200.815C1054.56 200.815 1033.94 200.815 1013.32 200.815C1013.32 205.07 1013.32 209.326 1013.32 213.581C1033.94 213.581 1054.56 213.581 1075.19 213.581C1075.19 216.527 1075.19 219.473 1075.19 222.419C1054.56 222.419 1033.94 222.419 1013.32 222.419C1013.32 226.347 1013.32 230.275 1013.32 234.203C1033.94 234.203 1054.56 234.203 1075.19 234.203C1075.19 237.476 1075.19 240.75 1075.19 244.023C1054.56 244.023 1033.94 244.023 1013.32 244.023C1012.9 248.473 1013.39 252.728 1014.79 256.788C1034.76 256.461 1054.73 256.133 1074.7 255.806C1075.19 264.965 1075.35 274.131 1075.19 283.302C1051.62 283.302 1028.05 283.302 1004.48 283.302C1004.86 223.384 1004.21 163.483 1002.52 103.599ZM1012.34 86.9055C1030.01 86.9055 1047.69 86.9055 1065.37 86.9055C1065.37 91.4881 1065.37 96.0707 1065.37 100.653C1047.69 100.653 1030.01 100.653 1012.34 100.653C1012.34 96.0707 1012.34 91.4881 1012.34 86.9055ZM838.528 234.203C839.697 234.664 840.355 235.646 840.492 237.149C840.09 251.533 840.09 266.918 840.492 283.302C838.538 267.296 837.89 250.93 838.528 234.203ZM745.24 283.302C711.685 283.628 678.297 283.3 645.078 282.32C640.351 270.3 635.768 258.189 631.33 245.987C634.615 242.211 638.052 238.611 641.641 235.185C655.231 249.098 671.76 257.117 691.231 259.243C709.831 262.015 727.67 259.56 744.749 251.878C745.24 262.347 745.407 272.822 745.24 283.302ZM589.105 238.131C590.498 237.197 592.134 236.87 594.015 237.149C594.172 238.817 594.009 240.454 593.524 242.059C592.178 240.545 590.705 239.235 589.105 238.131ZM596.961 237.149C607.436 237.149 617.909 237.149 628.384 237.149C628.384 239.44 628.384 241.732 628.384 244.023C617.909 244.023 607.436 244.023 596.961 244.023C596.961 241.732 596.961 239.44 596.961 237.149ZM630.348 238.131C632.104 237.029 634.068 236.865 636.24 237.64C634.486 238.411 633.013 239.556 631.821 241.077C631.593 239.862 631.102 238.88 630.348 238.131ZM759.97 241.077C763.908 240.914 767.835 241.078 771.754 241.568C773.06 248.115 773.06 254.66 771.754 261.207C767.835 261.697 763.908 261.861 759.97 261.698C759.145 254.582 759.145 247.708 759.97 241.077ZM624.456 246.969C620.858 251.385 616.766 255.312 612.181 258.752C607.616 255.007 603.197 251.079 598.925 246.969C607.292 246.028 615.802 246.028 624.456 246.969ZM1016.27 246.969C1035.91 246.969 1055.55 246.969 1075.19 246.969C1075.19 249.26 1075.19 251.551 1075.19 253.842C1055.55 253.842 1035.91 253.842 1016.27 253.842C1016.27 251.551 1016.27 249.26 1016.27 246.969ZM594.997 247.951C600.183 251.824 605.093 256.078 609.727 260.716C601.676 268.261 593.329 275.462 584.686 282.32C584.195 281.993 583.704 281.665 583.213 281.338C587.342 270.26 591.27 259.13 594.997 247.951ZM627.402 247.951C628.63 248.026 629.448 248.681 629.857 249.915C633.761 260.646 637.852 271.284 642.132 281.829C640.495 282.484 638.859 282.484 637.222 281.829C629.519 274.944 621.992 267.906 614.636 260.716C619.213 256.794 623.468 252.539 627.402 247.951ZM835.582 250.897C835.582 261.698 835.582 272.5 835.582 283.302C819.213 283.302 802.853 283.302 786.483 283.302C786.159 273.133 786.483 262.987 787.465 252.86C798.964 258.173 810.414 258.01 821.835 252.369C822.984 251.224 824.123 250.079 825.272 248.933C825.763 249.424 826.254 249.915 826.745 250.406C829.671 250.895 832.617 251.059 835.582 250.897ZM933.781 249.915C936.403 249.915 939.015 249.915 941.636 249.915C941.636 252.205 941.636 254.497 941.636 256.788C939.015 256.788 936.403 256.788 933.781 256.788C933.781 254.497 933.781 252.205 933.781 249.915ZM955.384 250.897C957.79 249.941 960.402 249.614 963.24 249.915C963.24 252.205 963.24 254.497 963.24 256.788C960.599 256.949 957.986 256.785 955.384 256.297C956.602 254.37 956.602 252.569 955.384 250.897ZM976.988 249.915C979.61 249.915 982.222 249.915 984.844 249.915C984.844 252.205 984.844 254.497 984.844 256.788C982.222 256.788 979.61 256.788 976.988 256.788C976.988 254.497 976.988 252.205 976.988 249.915ZM853.258 255.806C855.33 256.757 857.618 257.085 860.132 256.788C860.132 265.626 860.132 274.464 860.132 283.302C854.564 283.302 849.006 283.302 843.438 283.302C843.438 273.482 843.438 263.662 843.438 253.842C846.404 253.642 849.35 253.315 852.276 252.86C852.04 254.128 852.374 255.11 853.258 255.806ZM448.682 254.824C459.575 263.585 470.049 272.914 480.105 282.811C459.156 283.466 438.207 283.466 417.258 282.811C427.923 273.615 438.398 264.286 448.682 254.824ZM610.709 262.68C618.959 268.794 626.815 275.504 634.276 282.811C619.219 283.466 604.162 283.466 589.105 282.811C596.566 276.312 603.767 269.602 610.709 262.68Z" fill="#1C849E"/>
<path fill-rule="evenodd" clip-rule="evenodd" d="M326.914 233.221C329.849 240.738 331.813 248.594 332.806 256.789C325.196 252.491 322.414 245.945 324.459 237.149C324.655 235.362 325.474 234.053 326.914 233.221Z" fill="#18B4DB"/>
<path opacity="0.973" fill-rule="evenodd" clip-rule="evenodd" d="M302.365 284.284C301.778 280.434 301.123 277.162 300.401 274.464C295.247 274.096 291.156 271.805 288.127 267.59C282.438 253.763 286.857 245.252 301.383 242.059C311.12 243.121 316.358 248.522 317.095 258.261C316.462 267.568 311.552 272.968 302.365 274.464C302.365 277.737 302.365 281.011 302.365 284.284Z" fill="#4A8C8F"/>
<path fill-rule="evenodd" clip-rule="evenodd" d="M298.437 244.022C308.473 243.907 314.365 248.817 316.113 258.752C315.069 266.996 310.487 271.579 302.365 272.499C301.499 268.17 302.809 264.733 306.293 262.189C304.868 262.447 303.559 262.283 302.365 261.698C303.347 260.061 304.656 258.752 306.293 257.77C304.817 257.441 303.508 257.441 302.365 257.77C303.492 256.15 304.801 254.677 306.293 253.351C305.263 252.868 304.281 253.031 303.347 253.842C302.692 252.86 302.038 251.878 301.383 250.896C300.404 258.067 300.076 265.269 300.401 272.499C292.021 271.483 287.438 266.737 286.653 258.261C287.953 251.24 291.881 246.494 298.437 244.022Z" fill="#18B4DB"/>
<path opacity="0.247" fill-rule="evenodd" clip-rule="evenodd" d="M335.753 260.717C337.39 260.717 339.026 260.717 340.663 260.717C340.663 268.573 340.663 276.429 340.663 284.285C338.782 284.564 337.146 284.237 335.753 283.303C337.062 283.303 338.372 283.303 339.681 283.303C339.681 276.102 339.681 268.9 339.681 261.699C338.11 261.963 336.801 261.635 335.753 260.717Z" fill="#1CCDF7"/>
<path opacity="0.973" fill-rule="evenodd" clip-rule="evenodd" d="M59.8157 233.221C60.78 236.621 61.107 240.222 60.7977 244.023C60.7977 257.116 60.7977 270.21 60.7977 283.302C64.0707 283.302 67.3446 283.302 70.6175 283.302C70.3023 269.248 70.3023 256.482 70.6175 245.005C70.6175 244.35 70.9445 244.023 71.5995 244.023C71.8155 258.81 72.1435 272.23 72.5815 284.284C89.2781 284.448 105.972 284.284 122.663 283.793C124.117 280.041 123.79 276.44 121.681 272.991C115.143 272.5 108.596 272.337 102.041 272.5C103.239 261.4 104.221 250.271 104.987 239.113C119.39 239.113 133.791 239.113 148.194 239.113C149.076 250.251 150.058 261.38 151.14 272.5C144.585 272.337 138.038 272.5 131.5 272.991C129.606 276.189 129.115 279.626 130.027 283.302C145.84 284.602 161.715 284.602 177.654 283.302C177.385 280.918 177.712 278.79 178.636 276.919C177.126 275.829 176.472 274.356 176.672 272.5C170.125 272.5 163.579 272.5 157.032 272.5C157.602 261.643 158.584 250.841 159.978 240.095C174.366 239.114 188.768 238.786 203.185 239.113C203.932 250.509 204.587 261.639 205.149 272.5C198.602 272.5 192.056 272.5 185.509 272.5C184.393 276.313 184.393 280.077 185.509 283.793C201.294 284.596 217.006 284.432 232.645 283.302C233.3 283.302 233.954 283.302 234.609 283.302C235.591 283.302 236.572 283.302 237.554 283.302C237.554 280.683 237.554 278.065 237.554 275.446C236.572 275.446 235.591 275.446 234.609 275.446C233.954 275.446 233.3 275.446 232.645 275.446C231.891 274.787 231.236 273.969 230.681 272.991C224.11 272.826 217.563 272.335 211.041 271.518C212.434 260.773 213.416 249.971 213.987 239.113C228.39 239.113 242.791 239.113 257.194 239.113C258.284 250.231 259.266 261.361 260.14 272.5C253.593 272.5 247.047 272.5 240.5 272.5C238.559 276.322 238.231 280.25 239.518 284.284C238.863 284.284 238.536 284.611 238.536 285.266C178.47 285.592 118.569 285.265 58.8337 284.284C59.4691 267.27 59.7961 250.25 59.8157 233.221Z" fill="#3C8894"/>
<path fill-rule="evenodd" clip-rule="evenodd" d="M199.257 242.058C199.593 241.235 200.247 240.907 201.221 241.076C202.133 250.693 203.115 260.022 204.167 269.063C204.025 269.821 203.698 270.476 203.185 271.027C188.454 270.215 173.724 270.379 158.996 271.518C158.996 269.881 158.996 268.245 158.996 266.608C159.884 267.304 160.211 268.286 159.978 269.554C174.227 269.877 188.301 269.55 202.203 268.572C201.608 259.561 200.626 250.723 199.257 242.058Z" fill="#18B4DB"/>
<path fill-rule="evenodd" clip-rule="evenodd" d="M213.986 260.717C214.313 260.717 214.641 260.717 214.968 260.717C215.255 263.13 215.255 265.749 214.968 268.573C228.716 268.573 242.464 268.573 256.212 268.573C256.867 268.573 257.521 268.573 258.176 268.573C258.26 269.551 257.932 270.369 257.194 271.028C254.412 271.192 251.629 271.355 248.847 271.519C238.135 271.194 226.515 271.03 213.986 271.028C213.234 267.672 213.234 264.235 213.986 260.717Z" fill="#18B4DB"/>
<path fill-rule="evenodd" clip-rule="evenodd" d="M201.221 241.076C200.247 240.907 199.593 241.235 199.257 242.058C186.819 242.058 174.381 242.058 161.942 242.058C161.568 250.894 161.241 259.732 160.96 268.572C174.708 268.572 188.456 268.572 202.203 268.572C188.301 269.55 174.227 269.877 159.978 269.554C160.211 268.286 159.884 267.304 158.996 266.608C159.705 257.775 160.359 248.937 160.96 240.094C174.555 239.771 187.974 240.098 201.221 241.076Z" fill="#18B4DB"/>
<path fill-rule="evenodd" clip-rule="evenodd" d="M147.212 243.04C147.571 250.917 148.225 258.772 149.176 266.608C149.126 268.179 148.799 269.652 148.194 271.027C133.695 271.219 119.293 271.219 104.987 271.027C104.357 267.351 104.357 263.586 104.987 259.734C105.642 259.734 105.969 260.061 105.969 260.716C105.969 263.335 105.969 265.953 105.969 268.572C119.717 268.572 133.464 268.572 147.212 268.572C146.699 260.726 146.372 252.87 146.23 245.004C146.061 244.03 146.389 243.376 147.212 243.04Z" fill="#18B4DB"/>
<path opacity="0.973" fill-rule="evenodd" clip-rule="evenodd" d="M256.211 268.571C242.464 268.571 228.716 268.571 214.968 268.571C215.255 265.747 215.255 263.128 214.968 260.716C215.992 254.676 216.647 248.457 216.932 242.058C229.375 241.894 241.814 242.058 254.247 242.549C255.355 251.138 256.01 259.812 256.211 268.571Z" fill="#458A91"/>
<path fill-rule="evenodd" clip-rule="evenodd" d="M248.356 261.698C250.32 261.698 252.284 261.698 254.248 261.698C254.248 263.662 254.248 265.626 254.248 267.59C249.338 268.572 247.374 266.608 248.356 261.698Z" fill="#18B4DB"/>
<path fill-rule="evenodd" clip-rule="evenodd" d="M240.5 261.699C242.566 261.405 244.53 261.732 246.392 262.681C248.287 266.845 246.65 268.318 241.482 267.099C240.593 265.431 240.266 263.63 240.5 261.699Z" fill="#18B4DB"/>
<path fill-rule="evenodd" clip-rule="evenodd" d="M233.626 261.698C235.263 261.698 236.899 261.698 238.536 261.698C240.466 267.13 238.666 268.766 233.135 266.608C232.507 264.874 232.671 263.238 233.626 261.698Z" fill="#18B4DB"/>
<path fill-rule="evenodd" clip-rule="evenodd" d="M224.789 261.698C226.753 261.698 228.717 261.698 230.68 261.698C230.68 263.662 230.68 265.626 230.68 267.59C228.717 267.59 226.753 267.59 224.789 267.59C224.789 265.626 224.789 263.662 224.789 261.698Z" fill="#18B4DB"/>
<path fill-rule="evenodd" clip-rule="evenodd" d="M217.915 261.699C222.704 260.622 224.341 262.259 222.825 266.609C220.964 267.557 219 267.884 216.933 267.591C216.762 265.508 217.09 263.544 217.915 261.699Z" fill="#18B4DB"/>
<path opacity="0.973" fill-rule="evenodd" clip-rule="evenodd" d="M199.257 242.059C200.626 250.724 201.608 259.561 202.203 268.572C188.456 268.572 174.708 268.572 160.96 268.572C161.241 259.732 161.568 250.894 161.942 242.059C174.381 242.059 186.819 242.059 199.257 242.059Z" fill="#438A91"/>
<path fill-rule="evenodd" clip-rule="evenodd" d="M194.348 261.699C199.258 260.717 201.222 262.681 200.24 267.59C194.878 268.502 192.914 266.538 194.348 261.699Z" fill="#18B4DB"/>
<path fill-rule="evenodd" clip-rule="evenodd" d="M186.492 261.698C188.456 261.698 190.42 261.698 192.383 261.698C192.383 263.662 192.383 265.626 192.383 267.59C190.42 267.59 188.456 267.59 186.492 267.59C186.492 265.626 186.492 263.662 186.492 261.698Z" fill="#18B4DB"/>
<path fill-rule="evenodd" clip-rule="evenodd" d="M178.636 261.699C183.175 260.626 184.975 262.263 184.037 266.609C178.557 268.82 176.757 267.183 178.636 261.699Z" fill="#18B4DB"/>
<path fill-rule="evenodd" clip-rule="evenodd" d="M170.779 261.698C172.743 261.698 174.707 261.698 176.671 261.698C176.828 263.366 176.665 265.003 176.18 266.608C170.364 268.482 168.564 266.845 170.779 261.698Z" fill="#18B4DB"/>
<path fill-rule="evenodd" clip-rule="evenodd" d="M162.923 261.699C167.463 260.626 169.263 262.263 168.324 266.609C162.85 268.824 161.05 267.188 162.923 261.699Z" fill="#18B4DB"/>
<path fill-rule="evenodd" clip-rule="evenodd" d="M193.366 255.806C195.33 255.806 197.294 255.806 199.258 255.806C199.258 257.443 199.258 259.079 199.258 260.716C194.9 261.772 192.936 260.135 193.366 255.806Z" fill="#18B4DB"/>
<path fill-rule="evenodd" clip-rule="evenodd" d="M185.509 255.806C187.8 255.806 190.092 255.806 192.383 255.806C192.716 260.462 190.752 261.771 186.491 259.734C185.759 258.52 185.432 257.21 185.509 255.806Z" fill="#18B4DB"/>
<path fill-rule="evenodd" clip-rule="evenodd" d="M178.635 255.806C180.599 255.806 182.563 255.806 184.527 255.806C184.527 257.443 184.527 259.079 184.527 260.716C182.563 260.716 180.599 260.716 178.635 260.716C178.635 259.079 178.635 257.443 178.635 255.806Z" fill="#18B4DB"/>
<path fill-rule="evenodd" clip-rule="evenodd" d="M170.779 255.806C172.743 255.806 174.707 255.806 176.671 255.806C176.671 257.443 176.671 259.079 176.671 260.716C174.707 260.716 172.743 260.716 170.779 260.716C170.779 259.079 170.779 257.443 170.779 255.806Z" fill="#18B4DB"/>
<path fill-rule="evenodd" clip-rule="evenodd" d="M162.923 255.806C164.887 255.806 166.851 255.806 168.815 255.806C168.815 257.443 168.815 259.079 168.815 260.716C166.851 260.716 164.887 260.716 162.923 260.716C162.923 259.079 162.923 257.443 162.923 255.806Z" fill="#18B4DB"/>
<path fill-rule="evenodd" clip-rule="evenodd" d="M193.365 249.914C195.329 249.914 197.293 249.914 199.257 249.914C199.257 251.223 199.257 252.533 199.257 253.842C197.293 253.842 195.329 253.842 193.365 253.842C193.365 252.533 193.365 251.223 193.365 249.914Z" fill="#18B4DB"/>
<path fill-rule="evenodd" clip-rule="evenodd" d="M185.51 249.914C187.474 249.914 189.438 249.914 191.402 249.914C191.402 251.223 191.402 252.533 191.402 253.842C189.438 253.842 187.474 253.842 185.51 253.842C185.51 252.533 185.51 251.223 185.51 249.914Z" fill="#18B4DB"/>
<path fill-rule="evenodd" clip-rule="evenodd" d="M178.635 249.914C180.599 249.914 182.563 249.914 184.527 249.914C184.527 251.223 184.527 252.533 184.527 253.842C182.563 253.842 180.599 253.842 178.635 253.842C178.635 252.533 178.635 251.223 178.635 249.914Z" fill="#18B4DB"/>
<path fill-rule="evenodd" clip-rule="evenodd" d="M170.779 249.914C172.743 249.914 174.707 249.914 176.671 249.914C176.671 251.223 176.671 252.533 176.671 253.842C174.707 253.842 172.743 253.842 170.779 253.842C170.779 252.533 170.779 251.223 170.779 249.914Z" fill="#18B4DB" fill-opacity="0.0941176"/>
<path fill-rule="evenodd" clip-rule="evenodd" d="M163.906 249.914C165.87 249.914 167.834 249.914 169.798 249.914C169.965 251.212 169.638 252.358 168.816 253.351C166.879 253.837 164.915 254.001 162.924 253.842C162.858 252.409 163.185 251.1 163.906 249.914Z" fill="#18B4DB"/>
<path fill-rule="evenodd" clip-rule="evenodd" d="M193.365 244.022C196.103 243.607 198.066 244.589 199.257 246.968C197.395 247.917 195.431 248.244 193.365 247.95C193.365 246.641 193.365 245.331 193.365 244.022Z" fill="#18B4DB"/>
<path fill-rule="evenodd" clip-rule="evenodd" d="M190.42 243.04C191.354 244.433 191.681 246.069 191.402 247.95C189.438 247.95 187.474 247.95 185.51 247.95C185.51 246.641 185.51 245.331 185.51 244.022C187.391 244.301 189.027 243.974 190.42 243.04Z" fill="#18B4DB"/>
<path fill-rule="evenodd" clip-rule="evenodd" d="M182.563 243.04C184.245 244.155 184.9 245.792 184.527 247.95C182.563 247.95 180.599 247.95 178.635 247.95C178.635 246.641 178.635 245.331 178.635 244.022C180.205 244.285 181.514 243.957 182.563 243.04Z" fill="#18B4DB"/>
<path fill-rule="evenodd" clip-rule="evenodd" d="M175.689 243.04C176.623 244.433 176.95 246.069 176.671 247.95C174.707 247.95 172.743 247.95 170.779 247.95C170.779 246.641 170.779 245.331 170.779 244.022C172.66 244.301 174.296 243.974 175.689 243.04Z" fill="#18B4DB"/>
<path fill-rule="evenodd" clip-rule="evenodd" d="M167.833 243.04C169.515 244.155 170.17 245.792 169.797 247.95C167.833 247.95 165.869 247.95 163.905 247.95C163.905 246.641 163.905 245.331 163.905 244.022C165.475 244.285 166.784 243.957 167.833 243.04Z" fill="#18B4DB"/>
<path opacity="0.973" fill-rule="evenodd" clip-rule="evenodd" d="M146.23 245.005C146.372 252.87 146.699 260.726 147.212 268.572C133.465 268.572 119.717 268.572 105.969 268.572C105.969 265.953 105.969 263.335 105.969 260.716C106.917 254.669 107.572 248.449 107.933 242.059C120.372 242.059 132.81 242.059 145.249 242.059C145.016 243.326 145.343 244.308 146.23 245.005Z" fill="#468B90"/>
<path fill-rule="evenodd" clip-rule="evenodd" d="M139.356 261.698C141.32 261.698 143.284 261.698 145.248 261.698C145.248 263.662 145.248 265.626 145.248 267.59C140.338 268.572 138.374 266.608 139.356 261.698Z" fill="#18B4DB"/>
<path fill-rule="evenodd" clip-rule="evenodd" d="M131.501 261.698C133.465 261.698 135.429 261.698 137.393 261.698C137.393 263.662 137.393 265.626 137.393 267.59C135.429 267.59 133.465 267.59 131.501 267.59C131.501 265.626 131.501 263.662 131.501 261.698Z" fill="#18B4DB"/>
<path fill-rule="evenodd" clip-rule="evenodd" d="M124.626 261.698C126.263 261.698 127.899 261.698 129.536 261.698C129.536 263.662 129.536 265.626 129.536 267.59C127.572 267.59 125.608 267.59 123.644 267.59C123.472 265.507 123.8 263.543 124.626 261.698Z" fill="#18B4DB" fill-opacity="0.705882"/>
<path fill-rule="evenodd" clip-rule="evenodd" d="M116.772 261.698C118.409 261.698 120.044 261.698 121.681 261.698C121.681 263.662 121.681 265.626 121.681 267.59C119.717 267.59 117.754 267.59 115.79 267.59C115.618 265.507 115.946 263.543 116.772 261.698Z" fill="#18B4DB"/>
<path fill-rule="evenodd" clip-rule="evenodd" d="M108.915 261.698C114.295 260.845 115.931 262.809 113.825 267.59C111.861 267.59 109.897 267.59 107.933 267.59C107.761 265.507 108.089 263.543 108.915 261.698Z" fill="#18B4DB"/>
<path fill-rule="evenodd" clip-rule="evenodd" d="M139.356 255.806C141.32 255.806 143.284 255.806 145.248 255.806C145.248 257.443 145.248 259.079 145.248 260.716C143.284 260.716 141.32 260.716 139.356 260.716C139.356 259.079 139.356 257.443 139.356 255.806Z" fill="#18B4DB"/>
<path fill-rule="evenodd" clip-rule="evenodd" d="M131.501 255.806C133.465 255.806 135.429 255.806 137.393 255.806C137.393 257.443 137.393 259.079 137.393 260.716C135.429 260.716 133.465 260.716 131.501 260.716C131.501 259.079 131.501 257.443 131.501 255.806Z" fill="#18B4DB"/>
<path fill-rule="evenodd" clip-rule="evenodd" d="M123.645 255.806C125.608 255.806 127.572 255.806 129.536 255.806C129.536 257.443 129.536 259.079 129.536 260.716C127.572 260.716 125.608 260.716 123.645 260.716C123.645 259.079 123.645 257.443 123.645 255.806Z" fill="#18B4DB"/>
<path fill-rule="evenodd" clip-rule="evenodd" d="M115.788 255.806C117.752 255.806 119.716 255.806 121.68 255.806C121.68 257.443 121.68 259.079 121.68 260.716C119.716 260.716 117.752 260.716 115.788 260.716C115.788 259.079 115.788 257.443 115.788 255.806Z" fill="#18B4DB"/>
<path fill-rule="evenodd" clip-rule="evenodd" d="M108.915 255.806C110.879 255.806 112.843 255.806 114.807 255.806C114.92 260.547 112.792 261.856 108.424 259.734C107.856 258.332 108.02 257.022 108.915 255.806Z" fill="#18B4DB"/>
<path fill-rule="evenodd" clip-rule="evenodd" d="M138.375 249.914C140.339 249.914 142.303 249.914 144.267 249.914C144.1 251.212 144.427 252.358 145.249 253.351C143.285 254.006 141.321 254.006 139.357 253.351C138.535 252.358 138.208 251.212 138.375 249.914Z" fill="#18B4DB"/>
<path fill-rule="evenodd" clip-rule="evenodd" d="M131.501 249.914C133.465 249.914 135.429 249.914 137.393 249.914C137.393 251.223 137.393 252.533 137.393 253.842C135.429 253.842 133.465 253.842 131.501 253.842C131.501 252.533 131.501 251.223 131.501 249.914Z" fill="#18B4DB"/>
<path fill-rule="evenodd" clip-rule="evenodd" d="M123.645 249.914C125.608 249.914 127.572 249.914 129.536 249.914C129.536 251.223 129.536 252.533 129.536 253.842C127.572 253.842 125.608 253.842 123.645 253.842C123.645 252.533 123.645 251.223 123.645 249.914Z" fill="#18B4DB"/>
<path fill-rule="evenodd" clip-rule="evenodd" d="M116.77 249.914C118.734 249.914 120.698 249.914 122.662 249.914C122.662 251.223 122.662 252.533 122.662 253.842C120.347 254.002 118.056 253.839 115.788 253.351C115.905 252.227 116.232 251.081 116.77 249.914Z" fill="#18B4DB"/>
<path fill-rule="evenodd" clip-rule="evenodd" d="M108.915 249.914C110.879 249.914 112.843 249.914 114.807 249.914C114.807 251.223 114.807 252.533 114.807 253.842C112.843 253.842 110.879 253.842 108.915 253.842C108.915 252.533 108.915 251.223 108.915 249.914Z" fill="#18B4DB"/>
<path fill-rule="evenodd" clip-rule="evenodd" d="M142.302 243.04C143.984 244.155 144.639 245.792 144.266 247.95C142.302 247.95 140.338 247.95 138.374 247.95C138.374 246.641 138.374 245.331 138.374 244.022C139.944 244.285 141.253 243.957 142.302 243.04Z" fill="#18B4DB"/>
<path fill-rule="evenodd" clip-rule="evenodd" d="M135.429 243.04C137.111 244.155 137.766 245.792 137.393 247.95C135.429 247.95 133.465 247.95 131.501 247.95C131.501 246.641 131.501 245.331 131.501 244.022C133.071 244.285 134.38 243.957 135.429 243.04Z" fill="#18B4DB"/>
<path fill-rule="evenodd" clip-rule="evenodd" d="M123.645 244.023C125.608 244.023 127.572 244.023 129.536 244.023C129.536 245.332 129.536 246.642 129.536 247.951C127.572 247.951 125.608 247.951 123.645 247.951C123.645 246.642 123.645 245.332 123.645 244.023Z" fill="#18B4DB"/>
<path fill-rule="evenodd" clip-rule="evenodd" d="M120.699 243.04C122.381 244.155 123.036 245.792 122.663 247.95C120.699 247.95 118.735 247.95 116.771 247.95C116.771 246.641 116.771 245.331 116.771 244.022C118.341 244.285 119.65 243.957 120.699 243.04Z" fill="#18B4DB"/>
<path fill-rule="evenodd" clip-rule="evenodd" d="M108.915 244.023C110.879 244.023 112.843 244.023 114.807 244.023C114.807 245.332 114.807 246.642 114.807 247.951C112.843 247.951 110.879 247.951 108.915 247.951C108.915 246.642 108.915 245.332 108.915 244.023Z" fill="#18B4DB"/>
<path fill-rule="evenodd" clip-rule="evenodd" d="M258.176 268.572C257.521 268.572 256.867 268.572 256.212 268.572C256.011 259.812 255.356 251.139 254.248 242.549C241.814 242.058 229.375 241.894 216.933 242.058C216.648 248.457 215.993 254.677 214.969 260.716C214.642 260.716 214.314 260.716 213.987 260.716C214.406 253.811 215.061 246.937 215.951 240.094C229.047 239.93 242.141 240.094 255.23 240.585C256.723 249.816 257.705 259.145 258.176 268.572Z" fill="#18B4DB"/>
<path fill-rule="evenodd" clip-rule="evenodd" d="M248.356 255.806C250.32 255.806 252.284 255.806 254.248 255.806C254.248 257.443 254.248 259.079 254.248 260.716C252.284 260.716 250.32 260.716 248.356 260.716C248.356 259.079 248.356 257.443 248.356 255.806Z" fill="#18B4DB"/>
<path fill-rule="evenodd" clip-rule="evenodd" d="M240.5 255.806C242.464 255.806 244.428 255.806 246.392 255.806C246.392 257.443 246.392 259.079 246.392 260.716C244.428 260.716 242.464 260.716 240.5 260.716C240.5 259.079 240.5 257.443 240.5 255.806Z" fill="#18B4DB"/>
<path fill-rule="evenodd" clip-rule="evenodd" d="M232.645 255.806C234.609 255.806 236.573 255.806 238.537 255.806C238.537 257.443 238.537 259.079 238.537 260.716C236.573 260.716 234.609 260.716 232.645 260.716C232.645 259.079 232.645 257.443 232.645 255.806Z" fill="#18B4DB"/>
<path fill-rule="evenodd" clip-rule="evenodd" d="M224.788 255.806C226.752 255.806 228.716 255.806 230.68 255.806C230.68 257.443 230.68 259.079 230.68 260.716C226.322 261.772 224.358 260.135 224.788 255.806Z" fill="#18B4DB" fill-opacity="0.705882"/>
<path fill-rule="evenodd" clip-rule="evenodd" d="M217.915 255.805C219.879 255.805 221.843 255.805 223.807 255.805C223.92 260.546 221.792 261.855 217.424 259.733C217.233 258.438 217.397 257.128 217.915 255.805Z" fill="#18B4DB"/>
<path fill-rule="evenodd" clip-rule="evenodd" d="M247.374 249.914C249.338 249.914 251.302 249.914 253.266 249.914C253.099 251.212 253.426 252.358 254.248 253.351C252.284 254.006 250.32 254.006 248.356 253.351C247.534 252.358 247.207 251.212 247.374 249.914Z" fill="#18B4DB"/>
<path fill-rule="evenodd" clip-rule="evenodd" d="M240.5 249.914C242.464 249.914 244.428 249.914 246.392 249.914C246.392 251.223 246.392 252.533 246.392 253.842C244.428 253.842 242.464 253.842 240.5 253.842C240.5 252.533 240.5 251.223 240.5 249.914Z" fill="#18B4DB" fill-opacity="0.0941176"/>
<path fill-rule="evenodd" clip-rule="evenodd" d="M232.645 249.914C234.609 249.914 236.573 249.914 238.537 249.914C238.537 251.223 238.537 252.533 238.537 253.842C236.573 253.842 234.609 253.842 232.645 253.842C232.645 252.533 232.645 251.223 232.645 249.914Z" fill="#18B4DB"/>
<path fill-rule="evenodd" clip-rule="evenodd" d="M225.771 249.915C227.735 249.915 229.699 249.915 231.663 249.915C231.663 251.224 231.663 252.534 231.663 253.843C229.699 253.843 227.735 253.843 225.771 253.843C225.771 252.534 225.771 251.224 225.771 249.915Z" fill="#18B4DB"/>
<path fill-rule="evenodd" clip-rule="evenodd" d="M217.915 249.914C219.879 249.914 221.843 249.914 223.807 249.914C223.807 251.223 223.807 252.533 223.807 253.842C221.843 253.842 219.879 253.842 217.915 253.842C217.915 252.533 217.915 251.223 217.915 249.914Z" fill="#18B4DB"/>
<path fill-rule="evenodd" clip-rule="evenodd" d="M251.302 243.04C252.984 244.155 253.639 245.792 253.266 247.95C251.302 247.95 249.338 247.95 247.374 247.95C247.374 246.641 247.374 245.331 247.374 244.022C248.944 244.285 250.253 243.957 251.302 243.04Z" fill="#18B4DB"/>
<path fill-rule="evenodd" clip-rule="evenodd" d="M244.428 243.04C246.11 244.155 246.765 245.792 246.392 247.95C244.428 247.95 242.464 247.95 240.5 247.95C240.5 246.641 240.5 245.331 240.5 244.022C242.07 244.285 243.379 243.957 244.428 243.04Z" fill="#18B4DB"/>
<path fill-rule="evenodd" clip-rule="evenodd" d="M232.645 244.023C234.609 244.023 236.573 244.023 238.537 244.023C238.537 245.332 238.537 246.642 238.537 247.951C236.573 247.951 234.609 247.951 232.645 247.951C232.645 246.642 232.645 245.332 232.645 244.023Z" fill="#18B4DB"/>
<path fill-rule="evenodd" clip-rule="evenodd" d="M229.699 243.04C231.381 244.155 232.036 245.792 231.663 247.95C229.699 247.95 227.735 247.95 225.771 247.95C225.771 246.641 225.771 245.331 225.771 244.022C227.341 244.285 228.65 243.957 229.699 243.04Z" fill="#18B4DB"/>
<path fill-rule="evenodd" clip-rule="evenodd" d="M222.825 243.04C223.759 244.433 224.086 246.069 223.807 247.95C221.843 247.95 219.879 247.95 217.915 247.95C217.915 246.641 217.915 245.331 217.915 244.022C219.796 244.301 221.432 243.974 222.825 243.04Z" fill="#18B4DB"/>
<path fill-rule="evenodd" clip-rule="evenodd" d="M147.212 243.041C146.389 243.377 146.061 244.031 146.23 245.005C145.342 244.309 145.015 243.327 145.248 242.059C132.809 242.059 120.372 242.059 107.933 242.059C107.571 248.45 106.916 254.67 105.969 260.717C105.969 260.062 105.642 259.735 104.987 259.735C105.293 253.27 105.947 246.887 106.951 240.586C120.044 239.931 133.137 239.931 146.23 240.586C146.969 241.245 147.296 242.063 147.212 243.041Z" fill="#18B4DB"/>
<path fill-rule="evenodd" clip-rule="evenodd" d="M125.609 275.446C126.835 276.265 127.49 277.574 127.573 279.374C127.246 280.683 126.918 281.993 126.591 283.302C125.629 280.762 125.302 278.143 125.609 275.446Z" fill="#1BCBF5"/>
<path fill-rule="evenodd" clip-rule="evenodd" d="M179.617 275.446C180.599 275.446 181.581 275.446 182.563 275.446C182.563 278.065 182.563 280.683 182.563 283.302C181.581 283.302 180.599 283.302 179.617 283.302C179.617 280.683 179.617 278.065 179.617 275.446Z" fill="#18B4DB"/>
<path fill-rule="evenodd" clip-rule="evenodd" d="M232.645 275.446C233.3 275.446 233.954 275.446 234.609 275.446C234.609 278.065 234.609 280.683 234.609 283.302C233.954 283.302 233.3 283.302 232.645 283.302C232.645 280.683 232.645 278.065 232.645 275.446Z" fill="#719F7D"/>
<path fill-rule="evenodd" clip-rule="evenodd" d="M234.609 275.446C235.591 275.446 236.573 275.446 237.555 275.446C237.555 278.065 237.555 280.683 237.555 283.302C236.573 283.302 235.591 283.302 234.609 283.302C234.609 280.683 234.609 278.065 234.609 275.446Z" fill="#18B4DB"/>
<path opacity="0.596" fill-rule="evenodd" clip-rule="evenodd" d="M-15.7974 262.68C-15.7974 269.554 -15.7974 276.428 -15.7974 283.302C-2.70463 283.302 10.3891 283.302 23.4819 283.302C10.235 284.28 -3.18481 284.607 -16.7794 284.284C-17.0985 276.9 -16.7715 269.699 -15.7974 262.68Z" fill="#1ABDE5"/>
</g>
<defs>
<clipPath id="clip0_244_9414">
<rect width="1571.17" height="327" fill="white" transform="translate(-250)"/>
</clipPath>
</defs>
</svg>
