<svg width="1438" height="309" viewBox="0 0 1438 309" fill="none" xmlns="http://www.w3.org/2000/svg">
<g clip-path="url(#clip0_187_2828)">
<path opacity="0.973" fill-rule="evenodd" clip-rule="evenodd" d="M1435.97 66.3469C1437.34 66.1037 1438.58 66.413 1439.68 67.2748C1431.33 69.8364 1424.68 74.7853 1419.73 82.1216C1417.34 87.8617 1416.88 93.7384 1418.34 99.7523C1403.07 100.579 1394.72 108.621 1393.28 123.878C1386.92 122.48 1381.19 124.336 1376.12 129.446C1373.19 134.609 1373.04 139.868 1375.65 145.221C1372.54 147.257 1370.22 150.04 1368.69 153.572C1368.56 157.366 1368.41 161.078 1368.23 164.707C1364.45 159.09 1364.61 153.522 1368.69 148.005C1370.52 147.258 1371.91 146.02 1372.87 144.293C1369.42 129.156 1375.61 121.113 1391.43 120.167C1393.81 107.419 1401.39 99.6864 1414.16 96.9685C1414.16 81.4715 1421.44 71.2643 1435.97 66.3469Z" fill="#1B8DAA"/>
<path opacity="0.596" fill-rule="evenodd" clip-rule="evenodd" d="M1249.45 95.1128C1251 95.1128 1252.54 95.1128 1254.09 95.1128C1254.09 152.644 1254.09 210.176 1254.09 267.707C1253.17 210.642 1252.86 153.42 1253.17 96.0407C1251.68 96.2894 1250.45 95.9795 1249.45 95.1128Z" fill="#18B4DB"/>
<path opacity="0.941" fill-rule="evenodd" clip-rule="evenodd" d="M508.969 96.0408C510.127 96.8147 510.746 98.0516 510.824 99.7525C510.515 100.989 510.205 102.227 509.896 103.464C508.987 101.065 508.678 98.5898 508.969 96.0408Z" fill="#197D96"/>
<path opacity="0.941" fill-rule="evenodd" clip-rule="evenodd" d="M1471.23 92.3289C1472.55 92.5605 1473.48 93.3338 1474.01 94.6487C1472.04 108.533 1463.99 115.802 1449.89 116.455C1447.63 125.838 1441.76 130.169 1432.26 129.446C1430.74 140.405 1424.55 145.044 1413.7 143.365C1418.41 142.243 1422.75 140.078 1426.69 136.869C1428.62 133.778 1429.55 130.377 1429.47 126.662C1440.39 128.275 1446.73 123.635 1448.5 112.743C1462.87 113.686 1470.45 106.882 1471.23 92.3289Z" fill="#1C87A2"/>
<path opacity="0.973" fill-rule="evenodd" clip-rule="evenodd" d="M496.906 108.104C499.594 107.756 502.068 108.22 504.329 109.495C502.051 110.924 499.577 111.234 496.906 110.423C495.887 109.709 495.887 108.936 496.906 108.104Z" fill="#1B86A1"/>
<path opacity="0.973" fill-rule="evenodd" clip-rule="evenodd" d="M516.392 108.104C519.081 107.756 521.554 108.22 523.816 109.495C521.538 110.924 519.064 111.234 516.392 110.423C515.373 109.709 515.373 108.936 516.392 108.104Z" fill="#1C88A3"/>
<path opacity="0.973" fill-rule="evenodd" clip-rule="evenodd" d="M349.365 132.23C346.945 134.463 347.254 136.473 350.293 138.261C349.331 140.025 348.249 141.727 347.045 143.365C343.753 140.542 340.196 138.995 336.374 138.725C335.314 136.931 333.768 135.54 331.734 134.549C322.027 129.322 312.438 123.91 302.968 118.311C302.659 119.239 302.349 120.167 302.04 121.095C302.614 134.847 303.233 148.457 303.896 161.923C302.982 177.627 302.673 193.401 302.968 209.248C303.262 213.147 302.952 216.859 302.04 220.383C301.925 202.13 301.616 183.88 301.112 165.635C300.49 149.87 300.026 134.095 299.721 118.311C298.793 119.548 297.865 119.548 296.937 118.311C296.746 135.66 296.283 152.982 295.545 170.275C295.184 182.288 294.875 195.588 294.617 210.176C293.839 209.858 293.529 209.24 293.689 208.32C293.131 202.476 293.131 195.67 293.689 187.905C293.682 183.218 293.064 178.889 291.833 174.914C293.272 164.195 293.891 153.369 293.689 142.437C293.38 134.395 293.07 126.353 292.761 118.311C291.854 118.753 291.081 119.371 290.441 120.167C289.397 123.312 288.005 126.251 286.266 128.982C277.615 132.074 268.955 135.167 260.284 138.261C261.03 139.905 262.113 141.296 263.531 142.437C264.226 143.49 264.072 144.418 263.067 145.221C261.033 143.96 259.486 142.259 258.428 140.117C257.088 139.392 255.851 139.547 254.716 140.581C257.445 144.705 260.693 148.416 264.459 151.716C265.008 152.628 264.698 153.247 263.531 153.572C259.191 150.624 255.635 146.912 252.86 142.437C251.343 141.341 249.796 141.341 248.221 142.437C246.402 140.775 245.165 138.765 244.509 136.405C259.509 127.824 274.356 119.009 289.049 109.959C290.729 106.756 292.275 103.508 293.689 100.216C293.413 96.8478 291.712 94.528 288.585 93.2567C288.43 91.8648 288.276 90.4729 288.121 89.081C289.745 80.5788 291.291 72.0729 292.761 63.563C290.515 63.3704 288.351 63.6797 286.266 64.4909C285.516 64.2055 284.897 63.7415 284.41 63.099C287.193 61.2404 290.286 60.4671 293.689 60.7792C293.689 59.8513 293.689 58.9234 293.689 57.9954C288.584 58.1245 283.635 59.0524 278.842 60.7792C278.02 60.0137 277.711 59.0858 277.914 57.9954C283.404 56.4687 288.971 55.2314 294.617 54.2837C295.309 53.1366 295.618 51.8994 295.545 50.572C298.02 50.572 300.493 50.572 302.968 50.572C302.813 67.8961 302.968 85.2174 303.432 102.536C306.061 104.704 307.144 107.487 306.68 110.887C308.521 110.779 310.067 111.398 311.32 112.743C314.569 111.108 317.971 110.644 321.527 111.351C327.885 117.246 334.38 122.968 341.013 128.518C342.19 126.844 342.809 124.988 342.869 122.95C343.797 122.95 344.725 122.95 345.653 122.95C345.259 125.599 344.332 128.073 342.869 130.374C343.558 131.104 344.331 131.722 345.189 132.23C347.482 127.384 349.492 122.435 351.22 117.383C352.349 122.523 351.421 127.317 348.437 131.766C348.648 132.136 348.958 132.29 349.365 132.23ZM288.121 113.671C289.846 113.635 291.083 114.408 291.833 115.991C290.176 116.719 288.784 117.801 287.657 119.239C287.06 122.124 285.977 124.753 284.41 127.126C273.64 130.979 262.814 134.691 251.932 138.261C250.592 138.986 249.355 138.831 248.221 137.797C261.422 129.5 274.723 121.457 288.121 113.671ZM295.545 104.392C304.33 104.192 306.495 107.749 302.04 115.063C296.779 117.172 293.376 115.47 291.833 109.959C292.173 107.402 293.411 105.546 295.545 104.392ZM297.401 53.3558C298.329 53.3558 299.257 53.3558 300.184 53.3558C300.184 69.4399 300.184 85.524 300.184 101.608C298.948 101.608 297.71 101.608 296.473 101.608C296.64 97.5744 294.939 94.4806 291.369 92.3288C291.214 91.4008 291.06 90.4729 290.905 89.545C293.222 77.4975 295.387 65.4345 297.401 53.3558ZM343.797 135.013C342.768 135.066 341.84 135.375 341.013 135.941C338.052 135.392 335.268 134.309 332.662 132.694C323.383 127.126 314.103 121.559 304.824 115.991C305.286 114.916 306.059 114.143 307.144 113.671C310.693 114.872 314.251 114.872 317.815 113.671C319.149 113.874 320.386 114.338 321.527 115.063C329.154 121.615 336.578 128.265 343.797 135.013ZM301.112 165.635C298.686 166.517 296.83 168.063 295.545 170.275C296.283 152.982 296.746 135.66 296.937 118.311C297.865 119.548 298.793 119.548 299.721 118.311C300.026 134.095 300.49 149.87 301.112 165.635Z" fill="#218BA4"/>
<path opacity="0.941" fill-rule="evenodd" clip-rule="evenodd" d="M508.969 115.527C510.385 116.448 511.004 117.839 510.824 119.703C510.515 120.786 510.205 121.868 509.896 122.951C508.987 120.551 508.678 118.076 508.969 115.527Z" fill="#158BA8"/>
<path fill-rule="evenodd" clip-rule="evenodd" d="M544.229 216.671C537.704 228.924 540.178 238.822 551.653 246.365C552.815 253.422 553.434 260.536 553.509 267.707C543.068 268.614 532.551 268.924 521.959 268.635C521.959 265.543 521.959 262.449 521.959 259.356C530.64 257.943 535.28 252.839 535.878 244.045C535.181 234.842 530.232 229.738 521.031 228.734C507.304 231.752 503.129 239.794 508.504 252.861C511.367 256.843 515.233 259.008 520.103 259.356C520.367 262.397 520.058 265.335 519.175 268.171C500.31 268.635 481.442 268.79 462.572 268.635C461.355 264.823 461.665 261.112 463.5 257.5C469.686 257.5 475.872 257.5 482.058 257.5C481.232 246.974 480.305 236.457 479.275 225.951C465.665 225.951 452.056 225.951 438.446 225.951C437.907 236.211 436.979 246.418 435.662 256.572C441.825 257.343 448.012 257.807 454.22 257.964C454.746 258.887 455.365 259.66 456.076 260.284C456.076 262.759 456.076 265.233 456.076 267.707C441.298 268.774 426.451 268.929 411.536 268.171C410.481 264.66 410.481 261.102 411.536 257.5C417.722 257.5 423.908 257.5 430.094 257.5C429.564 247.236 428.945 236.719 428.238 225.951C414.615 225.642 401.006 225.952 387.41 226.879C386.093 237.033 385.165 247.24 384.626 257.5C390.812 257.5 396.998 257.5 403.184 257.5C402.996 259.254 403.614 260.646 405.04 261.676C404.168 263.444 403.859 265.454 404.112 267.707C389.051 268.936 374.05 268.936 359.108 267.707C358.246 264.233 358.71 260.985 360.5 257.964C366.678 257.5 372.864 257.346 379.058 257.5C378.036 246.991 377.108 236.475 376.275 225.951C362.665 225.951 349.056 225.951 335.446 225.951C334.722 236.495 333.794 247.011 332.662 257.5C338.856 257.346 345.042 257.5 351.22 257.964C353.214 261.223 353.523 264.626 352.148 268.171C336.376 268.635 320.602 268.79 304.824 268.635C304.41 257.245 304.1 244.563 303.896 230.59C304.198 223.304 303.889 216.191 302.968 209.248C302.673 193.402 302.982 177.627 303.896 161.924C313.425 152.397 324.251 144.664 336.374 138.725C340.196 138.995 343.752 140.542 347.045 143.365C348.249 141.727 349.331 140.025 350.293 138.261C347.254 136.473 346.945 134.463 349.365 132.23C414.252 109.253 470.391 122.554 517.784 172.131C528.75 185.715 537.565 200.562 544.229 216.671Z" fill="#24DCFC"/>
<path fill-rule="evenodd" clip-rule="evenodd" d="M343.798 135.014C346.847 135.702 348.085 137.403 347.509 140.117C344.953 139.806 342.478 138.878 340.086 137.333C340.602 136.978 340.911 136.514 341.014 135.942C341.841 135.376 342.769 135.067 343.798 135.014Z" fill="#18B4DB"/>
<path opacity="0.973" fill-rule="evenodd" clip-rule="evenodd" d="M1340.39 112.743C1342.68 112.962 1344.23 114.199 1345.03 116.455C1347.7 114.061 1350.33 114.061 1352.92 116.455C1353.61 118.256 1353.46 119.957 1352.45 121.558C1354 121.867 1355.54 122.177 1357.09 122.486C1357.72 124.033 1358.33 125.579 1358.95 127.126C1357.58 128.587 1356.03 129.824 1354.31 130.838C1358.02 133.313 1358.02 135.786 1354.31 138.261C1353.01 138.813 1351.78 138.658 1350.6 137.797C1349.39 139.603 1348.77 141.304 1348.74 142.901C1347.15 143.222 1345.61 143.686 1344.1 144.293C1342.87 143.056 1341.63 141.818 1340.39 140.581C1338 142.895 1335.52 142.895 1332.97 140.581C1332.29 138.817 1332.29 136.961 1332.97 135.013C1328.65 134.876 1326.96 132.711 1327.86 128.518C1332.01 126.863 1332.16 124.854 1328.33 122.486C1329.39 120.656 1330.62 118.954 1332.04 117.383C1335.91 120.005 1337.46 118.767 1336.68 113.671C1338.16 113.92 1339.4 113.61 1340.39 112.743ZM1339.46 115.527C1341.09 117.289 1343.1 118.527 1345.5 119.239C1347.08 119.295 1348.32 118.676 1349.21 117.383C1349.85 117.87 1350.31 118.489 1350.6 119.239C1349.32 123.228 1350.87 125.084 1355.24 124.806C1354.15 126.953 1352.92 129.117 1351.53 131.302C1355.18 135.244 1354.26 136.636 1348.74 135.477C1347.52 137.598 1346.13 139.609 1344.57 141.509C1342.84 137.261 1340.06 136.643 1336.22 139.653C1335.75 139.189 1335.29 138.725 1334.82 138.261C1336.98 133.479 1335.44 131.468 1330.18 132.23C1331.1 130.055 1332.34 128.044 1333.9 126.198C1333.91 124.517 1333.28 123.125 1332.04 122.022C1333.44 120.865 1334.83 120.865 1336.22 122.022C1338.68 120.575 1339.77 118.41 1339.46 115.527ZM1340.39 124.806C1346.07 124.583 1347.62 126.902 1345.03 131.766C1339.74 132.189 1338.19 129.869 1340.39 124.806Z" fill="#1D849F"/>
<path opacity="0.973" fill-rule="evenodd" clip-rule="evenodd" d="M1340.39 122.022C1347.87 121.905 1350.5 125.307 1348.28 132.23C1344.3 136.035 1340.59 135.726 1337.14 131.302C1335.98 127.344 1337.07 124.251 1340.39 122.022ZM1340.39 124.806C1338.19 129.869 1339.74 132.189 1345.03 131.766C1347.62 126.902 1346.07 124.583 1340.39 124.806Z" fill="#1C87A2"/>
<path opacity="0.941" fill-rule="evenodd" clip-rule="evenodd" d="M80.2659 139.653C81.1733 139.942 81.7919 140.561 82.1218 141.509C77.7132 143.17 73.8469 145.645 70.5227 148.933C68.1518 152.743 67.6879 156.763 69.1308 160.996C63.9084 162.201 60.506 165.295 58.9236 170.275C60.3069 173.097 59.5336 175.262 56.6038 176.77C56.4314 178.997 55.9674 181.163 55.2119 183.266C53.8703 182.643 53.2516 181.56 53.356 180.018C55.3754 176.104 56.4579 171.929 56.6038 167.491C58.4839 164.219 61.113 161.745 64.4912 160.068C65.3131 149.735 70.5714 142.93 80.2659 139.653Z" fill="#1993B1"/>
<path opacity="0.69" fill-rule="evenodd" clip-rule="evenodd" d="M635.167 150.788C632.489 150.504 630.015 150.813 627.743 151.716C627.239 151.661 626.93 151.352 626.815 150.788C627.918 149.926 629.155 149.617 630.527 149.86C630.324 148.77 630.633 147.842 631.455 147.077C632.428 148.669 633.665 149.906 635.167 150.788Z" fill="#1C96B5"/>
<path opacity="0.247" fill-rule="evenodd" clip-rule="evenodd" d="M220.383 186.977C219.458 174.77 219.149 162.397 219.455 149.86C217.241 149.637 215.385 150.255 213.887 151.716C213.887 150.788 213.887 149.86 213.887 148.932C216.052 148.932 218.218 148.932 220.383 148.932C220.383 161.614 220.383 174.295 220.383 186.977Z" fill="#1CCFF9"/>
<path opacity="0.973" fill-rule="evenodd" clip-rule="evenodd" d="M139.653 137.797C140.581 137.797 141.509 137.797 142.437 137.797C142.64 138.887 142.331 139.815 141.509 140.581C138.775 141.77 136.609 143.625 135.014 146.148C128.172 145.846 123.532 148.785 121.095 154.964C118.62 155.273 116.146 155.583 113.671 155.892C106.55 159.577 105.313 164.836 109.96 171.666C107.101 172.884 105.554 175.049 105.32 178.162C105.247 179.932 105.556 181.787 106.248 183.73C103.414 185.567 102.177 184.639 102.536 180.946C102.648 177.072 103.885 173.669 106.248 170.739C102.512 159.054 106.843 152.869 119.239 152.18C122.281 146.283 127.23 143.345 134.086 143.365C135.573 141.088 137.429 139.232 139.653 137.797Z" fill="#1A8DAA"/>
<path fill-rule="evenodd" clip-rule="evenodd" d="M301.112 165.635C301.616 183.88 301.925 202.13 302.04 220.383C301.746 224.282 302.056 227.994 302.968 231.518C302.67 242.364 302.67 254.427 302.968 267.707C299.875 267.707 296.782 267.707 293.689 267.707C293.689 255.335 293.689 242.962 293.689 230.59C294.609 223.957 294.918 217.153 294.617 210.176C294.875 195.588 295.184 182.288 295.545 170.275C296.83 168.064 298.686 166.517 301.112 165.635Z" fill="#18B4DB"/>
<path fill-rule="evenodd" clip-rule="evenodd" d="M291.833 174.914C293.065 178.889 293.683 183.218 293.689 187.905C293.132 195.67 293.132 202.476 293.689 208.32C292.775 212.156 292.466 216.177 292.761 220.383C292.743 236.474 292.434 252.558 291.833 268.635C280.624 268.925 269.489 268.616 258.428 267.707C258.736 232.751 269.871 201.82 291.833 174.914Z" fill="#1BCBF5"/>
<path opacity="0.973" fill-rule="evenodd" clip-rule="evenodd" d="M1308.84 135.014C1310.22 134.771 1311.45 135.08 1312.55 135.942C1313.44 138.21 1314.83 140.066 1316.73 141.509C1318.42 140.441 1320.13 139.358 1321.83 138.262C1325.12 138.095 1327.9 139.332 1330.18 141.973C1328.76 144.12 1328.29 146.439 1328.79 148.933C1331.32 149.719 1333.78 150.647 1336.22 151.717C1337.13 154.153 1337.45 156.628 1337.14 159.14C1334.86 160.198 1332.86 161.59 1331.11 163.316C1332.64 165.471 1334.19 167.636 1335.75 169.811C1334.17 172.214 1332.47 174.533 1330.65 176.771C1328.27 175.213 1325.64 174.594 1322.76 174.915C1322.33 177.682 1322.02 180.466 1321.83 183.266C1319.03 183.616 1316.25 183.771 1313.48 183.73C1312.8 180.879 1311.1 178.868 1308.38 177.699C1303.96 183.644 1300.09 183.18 1296.78 176.307C1297.03 174.311 1297.65 172.455 1298.63 170.739C1295.98 169.669 1293.2 168.896 1290.28 168.419C1289.51 166.138 1288.9 163.818 1288.43 161.46C1290.6 159.448 1292.76 157.437 1294.92 155.428C1293.2 153.55 1291.66 151.539 1290.28 149.397C1291.98 147.077 1293.69 144.757 1295.39 142.437C1297.82 143.821 1300.44 144.44 1303.27 144.293C1302.37 139.263 1304.23 136.169 1308.84 135.014ZM1307.91 137.798C1311.07 138.012 1312.93 139.713 1313.48 142.901C1316.91 145.164 1319.69 144.546 1321.83 141.045C1323.13 140.493 1324.37 140.648 1325.54 141.509C1325.54 144.97 1326 148.372 1326.94 151.717C1329.23 152.292 1331.55 152.91 1333.9 153.572C1334.3 154.308 1334.6 155.082 1334.82 155.892C1333.72 157.696 1332.18 159.088 1330.18 160.068C1327.42 163.369 1327.88 166.152 1331.58 168.419C1332.29 170.697 1331.52 172.244 1329.26 173.059C1327.44 172.711 1325.74 172.093 1324.15 171.203C1320.78 173.342 1319.38 176.435 1319.98 180.482C1318.65 180.409 1317.42 180.718 1316.27 181.41C1314.82 180.069 1313.57 178.523 1312.55 176.771C1311.28 175.884 1309.89 175.266 1308.38 174.915C1306.26 176.099 1304.41 177.646 1302.81 179.554C1299.02 177.144 1298.55 174.205 1301.42 170.739C1299.28 167.36 1296.19 165.968 1292.14 166.563C1292.21 165.236 1291.91 163.999 1291.21 162.852C1292.63 161.285 1294.33 160.048 1296.32 159.14C1298.49 155.758 1297.86 152.974 1294.46 150.789C1294.5 146.318 1296.66 145.081 1300.95 147.077C1302.47 146.961 1303.86 146.497 1305.13 145.685C1305.62 142.856 1306.55 140.227 1307.91 137.798ZM1309.77 152.645C1317.34 152.014 1320.59 155.417 1319.51 162.852C1314.74 167.93 1310.41 167.621 1306.52 161.924C1305.76 158.183 1306.85 155.091 1309.77 152.645Z" fill="#1B8AA6"/>
<path opacity="0.69" fill-rule="evenodd" clip-rule="evenodd" d="M1310.7 149.86C1320.63 150.342 1324.18 155.292 1321.37 164.707C1314.73 171.316 1308.86 170.697 1303.74 162.851C1302.42 156.519 1304.74 152.189 1310.7 149.86ZM1309.77 152.644C1306.85 155.09 1305.76 158.183 1306.52 161.923C1310.41 167.621 1314.74 167.93 1319.51 162.851C1320.59 155.417 1317.34 152.014 1309.77 152.644Z" fill="#1A91AF"/>
<path fill-rule="evenodd" clip-rule="evenodd" d="M293.689 208.32C293.529 209.24 293.839 209.858 294.617 210.175C294.919 217.153 294.61 223.957 293.689 230.59C293.981 226.998 293.672 223.595 292.761 220.383C292.466 216.177 292.775 212.156 293.689 208.32Z" fill="#719F7D"/>
<path fill-rule="evenodd" clip-rule="evenodd" d="M302.968 209.248C303.889 216.191 304.198 223.304 303.896 230.59C303.277 230.59 302.968 230.899 302.968 231.518C302.056 227.994 301.746 224.282 302.041 220.383C302.953 216.859 303.263 213.147 302.968 209.248Z" fill="#719F7D"/>
<path opacity="0.129" fill-rule="evenodd" clip-rule="evenodd" d="M1416.48 217.599C1418.76 218.124 1420.93 218.743 1422.98 219.455C1420.3 219.928 1418.13 219.31 1416.48 217.599Z" fill="#090401"/>
<path opacity="0.973" fill-rule="evenodd" clip-rule="evenodd" d="M213.887 151.716C215.385 150.255 217.241 149.637 219.455 149.86C219.15 162.397 219.459 174.77 220.383 186.977C222.19 188.57 223.428 190.581 224.095 193.009C227.209 193.208 230.302 193.208 233.374 193.009C238.169 197.185 242.962 201.36 247.757 205.536C247.998 203.571 248.926 202.025 250.541 200.896C251.005 201.36 251.469 201.824 251.933 202.288C250.687 204.158 250.223 206.169 250.541 208.32C252.467 205.171 253.549 201.769 253.788 198.112C254.716 198.112 255.644 198.112 256.572 198.112C255.938 201.885 255.01 205.596 253.788 209.248C253.815 210.666 254.434 211.749 255.644 212.495C255.212 214.465 254.129 215.857 252.396 216.671C241.652 211.181 231.136 205.305 220.847 199.04C220.531 216.409 220.685 232.802 221.311 248.221C220.39 254.853 220.081 261.658 220.383 268.635C233.229 268.94 245.91 268.631 258.428 267.707C269.489 268.616 280.624 268.925 291.833 268.635C348.28 269.562 404.884 269.871 461.644 269.563C732.599 269.563 1003.55 269.563 1274.51 269.563C1344.41 269.563 1414.32 269.563 1484.22 269.563C1484.22 269.872 1484.22 270.182 1484.22 270.491C989.329 270.491 494.431 270.491 -0.463867 270.491C-0.463867 269.563 -0.463867 268.635 -0.463867 267.707C14.383 267.707 29.2298 267.707 44.0767 267.707C44.0767 251.313 44.0767 234.921 44.0767 218.527C46.0968 218.607 47.9526 219.226 49.6442 220.383C51.0082 208.287 52.5547 196.224 54.2839 184.194C56.7584 184.194 59.2328 184.194 61.7073 184.194C61.6993 182.516 62.1633 180.969 63.0992 179.554C65.1489 177.816 66.8501 175.805 68.2028 173.522C75.4566 172.771 79.9416 168.904 81.6578 161.923C89.9392 158.908 94.2692 153.03 94.6487 144.293C95.0329 143.869 95.4969 143.559 96.0406 143.365C97.8269 150.527 95.662 156.249 89.5451 160.531C87.4607 161.496 85.4502 162.578 83.5136 163.779C81.8097 170.756 77.3246 174.623 70.0587 175.378C69.4179 176.368 68.954 177.451 68.6668 178.626C66.0377 180.018 64.0271 182.029 62.6352 184.658C63.0992 185.122 63.5632 185.585 64.0271 186.049C65.4285 200.353 67.2843 214.582 69.5947 228.734C69.7568 225.291 70.2208 221.888 70.9866 218.527C78.1242 221.246 85.0837 224.339 91.865 227.806C92.3273 224.728 92.482 221.635 92.3289 218.527C93.8359 218.657 94.9178 218.038 95.5767 216.671C97.0623 210.976 98.9181 205.409 101.144 199.968C101.607 195.649 101.762 191.319 101.608 186.977C112.452 187.285 123.277 186.976 134.086 186.049C138.731 182.639 141.206 178 141.509 172.131C148.267 172.802 151.979 169.71 152.644 162.851C164.396 162.239 171.201 156.053 173.059 144.293C174.191 144.652 174.81 145.425 174.915 146.612C172.541 157.801 165.736 164.452 154.5 166.563C152.869 172.225 149.157 175.009 143.365 174.914C143.485 180.089 141.32 183.956 136.869 186.513C137.62 191.54 138.084 196.644 138.261 201.824C145.431 223.489 152.701 245.142 160.068 266.779C177.378 267.707 194.699 268.016 212.032 267.707C213.112 244.819 213.112 221.93 212.032 199.04C210.745 201.817 209.198 204.446 207.392 206.928C201.484 209.102 195.607 211.268 189.761 213.423C190.574 214.895 191.502 216.287 192.545 217.599C192.081 217.908 191.617 218.218 191.153 218.527C189.627 217 188.08 215.454 186.514 213.887C186.05 214.351 185.586 214.815 185.122 215.279C187.442 217.599 189.761 219.919 192.081 222.239C192.604 223.375 192.295 224.303 191.153 225.022C188.18 222.36 185.551 219.422 183.266 216.207C180.07 216.104 177.905 214.558 176.77 211.567C187.566 205.239 198.392 198.898 209.248 192.545C210.11 189.843 211.347 187.368 212.96 185.122C211.614 182.688 210.067 180.369 208.32 178.162C209.78 171.858 211.017 165.517 212.032 159.14C210.079 159.417 208.223 159.108 206.464 158.212C208.304 156.797 210.469 155.87 212.96 155.428C212.496 155.119 212.032 154.809 211.568 154.5C208.027 155.866 204.47 156.175 200.896 155.428C201.714 154.063 202.951 153.29 204.608 153.108C207.664 152.342 210.757 151.878 213.887 151.716ZM102.536 201.824C113.591 201.526 124.572 201.835 135.478 202.752C143.029 224.323 150.298 245.975 157.284 267.707C144.293 267.707 131.302 267.707 118.311 267.707C118.62 255.01 118.31 242.328 117.383 229.662C110.258 226.719 103.454 223.316 96.9686 219.455C99.5742 213.803 101.43 207.926 102.536 201.824ZM215.743 199.968C215.799 199.464 216.108 199.155 216.671 199.04C217.761 221.917 218.38 244.806 218.527 267.707C217.29 267.707 216.052 267.707 214.815 267.707C215.092 245.214 215.711 222.79 216.671 200.432C216.46 200.062 216.15 199.908 215.743 199.968ZM222.239 195.329C225.616 196.168 229.017 196.323 232.446 195.793C238.517 200.513 244.394 205.463 250.077 210.64C251.475 211.416 251.939 212.499 251.469 213.887C242.11 208.357 232.676 202.944 223.167 197.649C222.469 197.026 222.159 196.253 222.239 195.329ZM209.248 195.329C210.061 195.207 210.68 195.516 211.104 196.257C208.792 198.546 207.555 201.33 207.392 204.608C198.375 207.359 189.405 209.988 180.482 212.495C189.986 206.531 199.574 200.808 209.248 195.329ZM135.014 189.761C135.014 192.854 135.014 195.948 135.014 199.04C124.497 199.04 113.98 199.04 103.464 199.04C103.464 195.948 103.464 192.854 103.464 189.761C113.98 189.761 124.497 189.761 135.014 189.761ZM215.743 187.905C222.466 190.234 222.776 193.018 216.671 196.257C213.411 195.331 212.328 193.167 213.424 189.761C214.347 189.236 215.12 188.617 215.743 187.905ZM56.1397 186.977C57.9652 186.756 59.6663 187.065 61.2433 187.905C63.3225 200.517 64.7144 213.199 65.419 225.95C60.3972 225.137 56.0669 223.127 52.428 219.919C54.0627 208.986 55.2999 198.005 56.1397 186.977ZM216.671 150.788C217.901 162.084 217.901 173.528 216.671 185.122C215.352 182.406 213.496 180.087 211.104 178.162C212.896 169.048 214.751 159.924 216.671 150.788ZM46.8605 222.239C55.3459 225.865 64.0065 228.958 72.8424 231.518C72.6893 228.409 72.844 225.317 73.3064 222.239C80.3064 225.197 87.2659 228.29 94.1848 231.518C94.9494 228.47 95.4134 225.377 95.5767 222.239C101.848 225.296 108.188 228.235 114.599 231.054C115.517 243.198 115.827 255.416 115.527 267.707C112.124 267.707 108.723 267.707 105.32 267.707C105.32 264.614 105.32 261.521 105.32 258.428C102.227 258.428 99.1334 258.428 96.0406 258.428C96.0406 261.521 96.0406 264.614 96.0406 267.707C79.6472 267.707 63.2539 267.707 46.8605 267.707C46.8605 252.551 46.8605 237.394 46.8605 222.239ZM105.32 238.941C105.32 240.797 105.32 242.653 105.32 244.509C102.643 244.225 100.168 244.534 97.8965 245.437C96.9983 243.482 96.6883 241.316 96.9686 238.941C99.7523 238.941 102.536 238.941 105.32 238.941ZM64.4911 238.941C67.2749 238.941 70.0587 238.941 72.8424 238.941C72.8424 240.797 72.8424 242.653 72.8424 244.509C70.1074 244.252 67.4782 244.561 64.955 245.437C64.4942 243.293 64.3396 241.128 64.4911 238.941ZM81.1938 238.941C83.9776 238.941 86.7614 238.941 89.5451 238.941C89.5451 240.797 89.5451 242.653 89.5451 244.509C86.7614 244.509 83.9776 244.509 81.1938 244.509C81.1938 242.653 81.1938 240.797 81.1938 238.941ZM98.8244 261.212C100.061 261.212 101.299 261.212 102.536 261.212C102.822 263.461 102.512 265.626 101.608 267.707C100.75 266.648 99.976 266.648 99.2884 267.707C98.8272 265.564 98.6732 263.399 98.8244 261.212Z" fill="#1A9DBD"/>
<path opacity="0.247" fill-rule="evenodd" clip-rule="evenodd" d="M103.464 199.04C113.98 199.04 124.497 199.04 135.014 199.04C135.014 195.947 135.014 192.854 135.014 189.761C135.944 192.437 136.253 195.84 135.942 199.968C124.95 200.273 114.124 199.964 103.464 199.04Z" fill="#1CD2FD"/>
<path opacity="0.973" fill-rule="evenodd" clip-rule="evenodd" d="M130.374 158.212C132.033 157.947 133.58 158.256 135.013 159.14C131.454 160.661 128.206 162.827 125.27 165.635C124.2 168.615 123.581 171.707 123.414 174.914C121.187 177.074 119.485 179.549 118.311 182.338C116.908 179.004 117.681 176.22 120.63 173.986C121.068 166.911 124.316 161.653 130.374 158.212Z" fill="#1C8BA7"/>
<path opacity="0.973" fill-rule="evenodd" clip-rule="evenodd" d="M1249.46 95.1123C1250.45 95.979 1251.68 96.2889 1253.17 96.0403C1252.86 153.42 1253.17 210.641 1254.09 267.707C1260.9 268.326 1267.71 268.944 1274.51 269.563C1003.55 269.563 732.599 269.563 461.645 269.563C461.645 268.944 461.954 268.635 462.572 268.635C481.443 268.79 500.31 268.635 519.176 268.171C520.059 265.334 520.368 262.396 520.104 259.356C520.786 261.905 521.405 264.997 521.96 268.635C532.551 268.923 543.068 268.614 553.509 267.707C554.826 268.589 556.372 268.898 558.149 268.635C558.149 261.211 558.149 253.788 558.149 246.365C556.602 246.365 555.056 246.365 553.509 246.365C552.89 246.365 552.272 246.365 551.654 246.365C540.179 238.821 537.705 228.923 544.23 216.671C554.511 207.752 564.564 208.062 574.388 217.599C580.544 230.493 577.296 240.237 564.645 246.829C563.128 247.287 561.581 247.441 560.005 247.293C560.005 254.097 560.005 260.902 560.005 267.707C580.12 268.016 600.225 267.707 620.32 266.779C625.925 251.046 631.802 235.425 637.951 219.919C634.363 216.02 630.497 212.463 626.352 209.247C625.89 206.48 625.735 203.697 625.888 200.896C621.145 200.282 621.145 199.2 625.888 197.648C622.112 196.767 621.648 195.375 624.496 193.473C624.805 193.782 625.115 194.092 625.424 194.401C625.872 193.521 626.026 192.593 625.888 191.617C626.816 191.617 627.744 191.617 628.672 191.617C628.533 192.593 628.687 193.521 629.136 194.401C630.185 193.376 630.959 193.685 631.455 195.329C630.908 196.534 629.98 197.307 628.672 197.648C632.177 199.17 632.177 200.253 628.672 200.896C628.672 202.443 628.672 203.989 628.672 205.536C631.764 205.536 634.858 205.536 637.951 205.536C638.106 193.778 637.951 182.024 637.487 170.275C635.048 168.766 632.883 166.91 630.991 164.707C630.529 161.94 630.374 159.156 630.527 156.356C625.708 155.945 625.708 155.018 630.527 153.572C629.505 152.945 628.577 152.327 627.744 151.716C630.015 150.813 632.49 150.504 635.167 150.788C635.573 150.728 635.883 150.882 636.095 151.252C634.858 152.18 633.62 153.108 632.383 154.036C637.332 154.964 637.332 155.892 632.383 156.82C633.224 158.396 633.533 160.098 633.311 161.923C635.264 162.201 637.119 161.892 638.879 160.995C642.01 152.066 645.412 143.25 649.086 134.549C646.942 134.088 644.778 133.934 642.59 134.085C642.765 135.573 642.301 136.811 641.199 137.797C639.944 135.854 639.48 133.689 639.807 131.302C653.729 131.147 667.648 131.302 681.563 131.765C682.87 133.892 682.715 135.903 681.099 137.797C679.997 136.811 679.533 135.573 679.708 134.085C677.673 132.882 675.507 132.882 673.212 134.085C673.327 134.649 673.636 134.958 674.14 135.013C677.121 143.761 680.368 152.422 683.883 160.995C685.777 161.852 687.788 162.161 689.915 161.923C689.915 160.067 689.915 158.211 689.915 156.356C685.283 156.282 685.283 155.354 689.915 153.572C688.834 152.566 687.597 151.793 686.203 151.252C688.285 150.328 689.986 148.936 691.307 147.076C692.337 148.694 693.729 149.931 695.482 150.788C694.774 151.919 693.846 152.847 692.699 153.572C696.297 154.857 696.297 155.939 692.699 156.82C700.359 169.484 711.184 178.454 725.176 183.729C739.076 188.504 752.684 190.823 766.005 190.689C772.92 189.856 779.725 188.464 786.419 186.513C788.096 185.027 789.952 183.789 791.987 182.802C791.107 182.353 790.179 182.199 789.203 182.338C789.203 181.41 789.203 180.482 789.203 179.554C790.728 179.572 791.965 178.953 792.915 177.698C794.192 178.943 795.429 180.18 796.626 181.41C795.814 182.107 794.886 182.57 793.843 182.802C797.084 183.811 797.238 184.894 794.307 186.049C793.858 186.929 793.704 187.857 793.843 188.833C795.368 189.032 796.76 188.722 798.018 187.905C800.602 181.811 802.922 175.625 804.978 169.347C803.875 168.485 802.638 168.176 801.266 168.419C800.603 171.97 799.675 171.97 798.482 168.419C798.583 167.545 798.892 166.772 799.41 166.099C809.617 165.48 819.825 165.48 830.032 166.099C831.201 167.782 831.201 169.483 830.032 171.202C828.827 170.655 828.054 169.727 827.712 168.419C827.093 169.656 826.475 169.656 825.856 168.419C825.701 169.038 825.547 169.656 825.392 170.275C827.742 176.085 829.907 181.962 831.888 187.905C832.991 188.767 834.228 189.076 835.599 188.833C835.708 186.992 835.089 185.446 833.744 184.193C834.231 183.551 834.85 183.087 835.599 182.802C834.738 182.441 834.119 181.823 833.744 180.946C836.029 176.842 838.195 176.842 840.239 180.946C839.863 181.823 839.244 182.441 838.383 182.802C839.471 183.19 840.399 183.808 841.167 184.657C839.816 185.05 839.352 185.823 839.775 186.977C853.381 206.39 872.095 217.062 895.915 218.991C910.702 219.81 925.24 218.263 939.527 214.351C940.149 212.186 940.762 210.02 941.383 207.856C954.059 207.392 966.744 207.237 979.428 207.392C979.271 216.676 979.428 225.956 979.892 235.229C984.309 238.919 989.413 240.466 995.203 239.869C1003.26 240.401 1010.22 237.927 1016.08 232.446C1015.65 227.98 1017.5 225.197 1021.65 224.094C1022.85 224.512 1023.92 225.131 1024.9 225.95C1025.65 223.848 1026.11 221.682 1026.29 219.455C1028.27 218.277 1030.29 218.277 1032.32 219.455C1032.84 221.639 1033.46 223.804 1034.18 225.95C1036.65 223.475 1039.12 223.475 1041.6 225.95C1042.36 228.369 1042.82 230.844 1042.99 233.374C1044.71 230.994 1046.41 230.994 1048.09 233.374C1048.58 230.821 1049.65 228.656 1051.34 226.878C1052.27 227.187 1053.2 227.497 1054.13 227.806C1055.53 229.474 1055.68 231.176 1054.59 232.91C1056.31 232.183 1058.16 231.874 1060.16 231.982C1061.46 232.967 1062.39 234.204 1062.94 235.693C1062.64 237.572 1062.49 239.582 1062.48 241.725C1060.27 242.593 1057.95 242.902 1055.52 242.653C1055.52 251.004 1055.52 259.356 1055.52 267.707C1070.99 267.707 1086.45 267.707 1101.91 267.707C1101.91 221.002 1101.91 174.295 1101.91 127.59C1104.7 127.59 1107.48 127.59 1110.27 127.59C1110.27 122.022 1110.27 116.455 1110.27 110.887C1124.19 109.543 1138.25 107.687 1152.49 105.32C1152.79 105.629 1153.11 105.938 1153.41 106.247C1160.36 105.064 1167.32 103.827 1174.29 102.536C1174.84 102.73 1175.3 103.04 1175.69 103.464C1176.45 111.424 1176.29 119.312 1175.22 127.126C1177.05 127.585 1178.9 127.74 1180.79 127.59C1180.79 116.764 1180.79 105.938 1180.79 95.1123C1183.88 95.1123 1186.98 95.1123 1190.07 95.1123C1190.07 89.854 1190.07 84.5958 1190.07 79.3376C1201.52 79.4921 1212.96 79.3375 1224.4 78.8736C1225 74.4346 1225.62 69.9496 1226.26 65.4186C1226.8 65.6129 1227.27 65.9221 1227.65 66.3466C1228.11 70.6659 1228.27 74.9963 1228.11 79.3376C1230.9 79.3376 1233.68 79.3376 1236.46 79.3376C1237.09 53.3556 1237.7 53.3556 1238.32 79.3376C1240.48 79.3376 1242.65 79.3376 1244.82 79.3376C1244.82 84.5958 1244.82 89.854 1244.82 95.1123C1246.37 95.1123 1247.91 95.1123 1249.46 95.1123ZM681.563 221.311C687.991 235.834 693.868 250.68 699.194 265.851C697.092 266.915 694.927 267.07 692.699 266.315C682.548 257.389 672.65 248.264 663.005 238.941C669.21 233.044 675.396 227.168 681.563 221.311ZM639.807 221.311C645.999 227.194 652.184 233.07 658.365 238.941C648.662 247.56 639.073 256.375 629.599 265.387C627.563 266.661 625.397 266.97 623.104 266.315C628.534 251.275 634.102 236.274 639.807 221.311ZM643.518 221.311C655.111 220.234 666.865 220.079 678.78 220.847C672.748 226.259 666.717 231.673 660.685 237.085C654.805 231.978 649.082 226.719 643.518 221.311ZM1196.56 212.959C1215.12 212.959 1233.68 212.959 1252.24 212.959C1252.24 215.124 1252.24 217.29 1252.24 219.455C1233.68 219.455 1215.12 219.455 1196.56 219.455C1196.56 217.29 1196.56 215.124 1196.56 212.959ZM560.933 232.446C562.059 230.916 563.296 229.37 564.645 227.806C562.819 227.155 561.272 227.155 560.005 227.806C561.611 226.094 563.158 224.393 564.645 222.702C564.336 222.238 564.026 221.775 563.717 221.311C562.497 222.065 561.414 222.993 560.469 224.094C560.281 222.465 559.817 220.919 559.077 219.455C558.533 219.649 558.069 219.959 557.685 220.383C557.221 228.418 557.067 236.461 557.221 244.509C554.828 244.607 552.663 243.988 550.726 242.653C549.787 234.909 547.932 227.486 545.158 220.383C554.786 209.281 564.22 209.59 573.46 221.311C576.886 230.517 574.566 237.785 566.5 243.117C564.48 244.232 562.314 244.696 560.005 244.509C558.931 239.505 560.478 235.64 564.645 232.91C564.336 232.446 564.026 231.982 563.717 231.518C562.866 232.1 561.938 232.409 560.933 232.446ZM827.248 220.383C819.066 221.304 810.714 221.614 802.194 221.311C806.46 217.926 810.79 214.524 815.185 211.103C819.094 214.437 823.115 217.53 827.248 220.383ZM943.239 210.175C954.374 210.175 965.509 210.175 976.645 210.175C976.645 229.353 976.645 248.529 976.645 267.707C965.509 267.707 954.374 267.707 943.239 267.707C943.239 248.529 943.239 229.353 943.239 210.175ZM684.347 208.32C687.148 208.166 689.932 208.321 692.699 208.784C689.794 210.758 687.165 213.078 684.811 215.743C684.35 213.288 684.195 210.813 684.347 208.32ZM640.735 208.32C654.345 208.32 667.954 208.32 681.563 208.32C681.563 211.412 681.563 214.506 681.563 217.599C667.954 217.599 654.345 217.599 640.735 217.599C640.735 214.506 640.735 211.412 640.735 208.32ZM629.599 209.247C632.186 208.341 634.969 208.032 637.951 208.32C638.103 210.813 637.948 213.288 637.487 215.743C635.245 213.031 632.615 210.865 629.599 209.247ZM696.41 202.752C707.118 213.521 720.109 220.17 735.383 222.702C753.129 225.302 770.606 224.22 787.811 219.455C789.242 224.922 792.49 229.098 797.554 231.982C792.71 243.419 788.225 255.018 784.099 266.779C757.101 267.857 730.037 268.011 702.906 267.243C696.758 251.741 690.882 236.121 685.275 220.383C688.011 215.944 691.567 212.233 695.946 209.247C696.408 207.104 696.562 204.939 696.41 202.752ZM800.338 199.04C804.636 202.101 808.658 205.502 812.401 209.247C808.696 212.796 804.829 216.199 800.802 219.455C800.338 212.657 800.184 205.852 800.338 199.04ZM829.104 198.112C830.177 205.372 830.332 212.795 829.568 220.383C825.72 216.227 821.544 212.361 817.041 208.784C821.242 205.351 825.263 201.794 829.104 198.112ZM803.122 197.184C810.861 197.03 818.593 197.184 826.32 197.648C822.448 200.75 818.736 203.998 815.185 207.392C810.851 204.289 806.829 200.887 803.122 197.184ZM1196.56 192.545C1215.12 192.545 1233.68 192.545 1252.24 192.545C1252.24 194.71 1252.24 196.875 1252.24 199.04C1233.68 199.04 1215.12 199.04 1196.56 199.04C1196.56 196.875 1196.56 194.71 1196.56 192.545ZM829.104 190.689C830.294 191.81 830.294 193.048 829.104 194.401C819.605 193.343 810.171 193.343 800.802 194.401C800.354 193.521 800.2 192.593 800.338 191.617C810.094 191.921 819.683 191.611 829.104 190.689ZM660.221 190.689C666.519 195.242 672.705 200.037 678.78 205.072C667.026 205.691 655.272 205.691 643.518 205.072C649.538 200.75 655.105 195.956 660.221 190.689ZM838.383 189.761C854.705 211.568 876.666 222.394 904.266 222.238C916.283 221.897 928.04 220.041 939.527 216.671C940.762 222.857 940.762 229.043 939.527 235.229C912.624 246.847 886.023 246.074 859.726 232.91C852.066 228.638 846.188 223.071 842.095 216.207C844.34 213.863 843.722 212.161 840.239 211.103C839.108 212.167 837.871 213.095 836.527 213.887C837.216 215.604 838.144 216.222 839.311 215.743C835.753 217.131 835.753 218.059 839.311 218.527C839.311 219.455 839.311 220.383 839.311 221.311C837.146 221.311 834.981 221.311 832.816 221.311C832.662 212.645 832.816 203.983 833.28 195.329C835.444 193.748 837.144 191.892 838.383 189.761ZM680.636 173.986C681.872 183.884 681.872 193.782 680.636 203.68C674.663 198.797 668.786 193.694 663.005 188.369C669.057 183.701 674.934 178.907 680.636 173.986ZM640.735 173.986C647.019 178.559 653.205 183.353 659.293 188.369C653.534 193.821 647.502 198.924 641.199 203.68C640.735 193.787 640.58 183.889 640.735 173.986ZM1196.56 172.13C1214.96 173.363 1233.37 173.363 1251.78 172.13C1252.24 174.274 1252.39 176.439 1252.24 178.626C1233.68 178.626 1215.12 178.626 1196.56 178.626C1196.56 176.461 1196.56 174.295 1196.56 172.13ZM642.59 172.13C654.802 171.054 667.175 170.899 679.708 171.666C673.762 176.88 667.731 181.984 661.613 186.977C655.37 181.807 649.029 176.858 642.59 172.13ZM807.762 169.347C812.411 169.193 817.051 169.348 821.681 169.811C824.423 175.714 826.897 181.746 829.104 187.905C819.531 188.987 809.941 189.141 800.338 188.369C802.904 182.064 805.379 175.723 807.762 169.347ZM684.347 164.707C687.718 164.654 687.873 165.582 684.811 167.491C684.363 166.611 684.209 165.683 684.347 164.707ZM640.735 164.707C654.345 164.707 667.954 164.707 681.563 164.707C681.563 166.254 681.563 167.8 681.563 169.347C667.954 169.347 654.345 169.347 640.735 169.347C640.735 167.8 640.735 166.254 640.735 164.707ZM635.167 165.635C635.989 164.451 636.917 164.451 637.951 165.635C637.092 166.62 636.165 166.62 635.167 165.635ZM692.699 162.851C706.649 179.576 724.589 189.319 746.518 192.081C761.716 194.208 776.563 192.816 791.059 187.905C792.087 191.274 794.097 194.058 797.09 196.256C797.554 204.602 797.708 212.954 797.554 221.311C795.39 221.311 793.224 221.311 791.059 221.311C791.04 219.786 791.659 218.549 792.915 217.599C792.428 216.957 791.809 216.493 791.059 216.207C793.543 213.874 793.079 212.173 789.667 211.103C788.275 212.031 786.883 212.959 785.491 213.887C785.988 215.53 786.762 215.839 787.811 214.815C788.36 215.727 788.05 216.346 786.883 216.671C763.995 223.251 741.261 222.787 718.681 215.279C711.132 211.756 704.327 207.116 698.266 201.36C699.617 200.968 700.081 200.195 699.658 199.04C698.449 198.472 697.366 198.162 696.41 198.112C700.32 197.159 700.784 195.613 697.802 193.473C697.493 193.782 697.183 194.092 696.874 194.401C695.994 190.802 694.912 190.802 693.627 194.401C692.332 193.18 691.404 193.49 690.843 195.329C691.864 197.086 693.101 197.705 694.554 197.184C689.87 199.046 689.87 200.283 694.554 200.896C694.554 202.443 694.554 203.989 694.554 205.536C691.152 205.536 687.75 205.536 684.347 205.536C684.039 193.766 684.348 182.012 685.275 170.275C688.078 168.09 690.553 165.615 692.699 162.851ZM1196.56 151.716C1215.12 151.716 1233.68 151.716 1252.24 151.716C1252.24 153.881 1252.24 156.047 1252.24 158.211C1233.68 158.211 1215.12 158.211 1196.56 158.211C1196.56 156.047 1196.56 153.881 1196.56 151.716ZM680.636 160.995C667.703 162.215 654.712 162.215 641.663 160.995C644.658 152.224 647.906 143.563 651.406 135.013C658.002 133.796 664.653 133.796 671.356 135.013C674.639 143.625 677.732 152.286 680.636 160.995ZM1196.56 132.229C1215.12 132.229 1233.68 132.229 1252.24 132.229C1252.24 134.394 1252.24 136.56 1252.24 138.725C1233.68 138.725 1215.12 138.725 1196.56 138.725C1196.56 136.56 1196.56 134.394 1196.56 132.229ZM1104.7 129.446C1130.68 129.446 1156.66 129.446 1182.64 129.446C1182.64 175.533 1182.64 221.62 1182.64 267.707C1156.66 267.707 1130.68 267.707 1104.7 267.707C1104.7 221.62 1104.7 175.533 1104.7 129.446ZM1159.45 216.671C1161.92 216.671 1164.39 216.671 1166.87 216.671C1166.87 219.146 1166.87 221.62 1166.87 224.094C1164.39 224.094 1161.92 224.094 1159.45 224.094C1159.45 221.62 1159.45 219.146 1159.45 216.671ZM1139.03 216.671C1141.51 216.671 1143.98 216.671 1146.46 216.671C1146.46 219.146 1146.46 221.62 1146.46 224.094C1143.96 224.247 1141.49 224.092 1139.03 223.63C1139.65 221.468 1139.65 219.148 1139.03 216.671ZM1118.62 216.671C1121.1 216.671 1123.56 216.671 1126.04 216.671C1126.04 219.146 1126.04 221.62 1126.04 224.094C1123.56 224.094 1121.1 224.094 1118.62 224.094C1118.62 221.62 1118.62 219.146 1118.62 216.671ZM1139.03 198.112C1141.51 198.112 1143.98 198.112 1146.46 198.112C1146.46 200.587 1146.46 203.061 1146.46 205.536C1143.96 205.688 1141.49 205.533 1139.03 205.072C1139.65 202.91 1139.65 200.59 1139.03 198.112ZM1159.45 198.112C1161.92 198.112 1164.39 198.112 1166.87 198.112C1166.87 200.587 1166.87 203.061 1166.87 205.536C1164.39 205.536 1161.92 205.536 1159.45 205.536C1159.45 203.061 1159.45 200.587 1159.45 198.112ZM1118.62 198.112C1121.1 198.112 1123.56 198.112 1126.04 198.112C1126.04 200.587 1126.04 203.061 1126.04 205.536C1123.56 205.536 1121.1 205.536 1118.62 205.536C1118.62 203.061 1118.62 200.587 1118.62 198.112ZM1159.45 179.554C1161.92 179.554 1164.39 179.554 1166.87 179.554C1166.87 182.029 1166.87 184.502 1166.87 186.977C1164.39 186.977 1161.92 186.977 1159.45 186.977C1159.45 184.502 1159.45 182.029 1159.45 179.554ZM1139.03 179.554C1141.51 179.554 1143.98 179.554 1146.46 179.554C1146.46 182.029 1146.46 184.502 1146.46 186.977C1143.96 187.129 1141.49 186.974 1139.03 186.513C1139.65 184.351 1139.65 182.031 1139.03 179.554ZM1118.62 179.554C1121.1 179.554 1123.56 179.554 1126.04 179.554C1126.04 182.029 1126.04 184.502 1126.04 186.977C1123.56 186.977 1121.1 186.977 1118.62 186.977C1118.62 184.502 1118.62 182.029 1118.62 179.554ZM1159.45 160.995C1161.92 160.995 1164.39 160.995 1166.87 160.995C1166.87 163.47 1166.87 165.944 1166.87 168.419C1164.39 168.419 1161.92 168.419 1159.45 168.419C1159.45 165.944 1159.45 163.47 1159.45 160.995ZM1139.03 160.995C1141.51 160.995 1143.98 160.995 1146.46 160.995C1146.46 163.47 1146.46 165.944 1146.46 168.419C1143.96 168.571 1141.49 168.416 1139.03 167.955C1139.65 165.793 1139.65 163.473 1139.03 160.995ZM1118.62 160.995C1121.1 160.995 1123.56 160.995 1126.04 160.995C1126.04 163.47 1126.04 165.944 1126.04 168.419C1123.56 168.419 1121.1 168.419 1118.62 168.419C1118.62 165.944 1118.62 163.47 1118.62 160.995ZM1119.55 142.437C1122.02 142.437 1124.49 142.437 1126.97 142.437C1126.97 144.911 1126.97 147.385 1126.97 149.86C1124.49 149.86 1122.02 149.86 1119.55 149.86C1119.55 147.385 1119.55 144.911 1119.55 142.437ZM1160.37 142.437C1162.85 142.437 1165.32 142.437 1167.8 142.437C1167.8 144.911 1167.8 147.385 1167.8 149.86C1165.32 149.86 1162.85 149.86 1160.37 149.86C1160.37 147.385 1160.37 144.911 1160.37 142.437ZM1139.96 142.437C1142.44 142.437 1144.91 142.437 1147.38 142.437C1147.38 144.911 1147.38 147.385 1147.38 149.86C1144.91 149.86 1142.44 149.86 1139.96 149.86C1139.96 147.385 1139.96 144.911 1139.96 142.437ZM1196.56 111.815C1215.12 111.815 1233.68 111.815 1252.24 111.815C1252.24 113.98 1252.24 116.146 1252.24 118.311C1233.68 118.311 1215.12 118.311 1196.56 118.311C1196.56 116.146 1196.56 113.98 1196.56 111.815ZM1172.44 105.32C1173.36 112.572 1173.67 119.996 1173.37 127.59C1152.95 127.745 1132.54 127.59 1112.12 127.126C1113.02 122.73 1113.33 118.246 1113.05 113.671C1133.01 111.216 1152.81 108.432 1172.44 105.32ZM1183.57 97.8961C1206.46 97.8961 1229.35 97.8961 1252.24 97.8961C1252.24 101.608 1252.24 105.32 1252.24 109.031C1233.06 108.876 1213.88 109.031 1194.71 109.495C1193.47 113.207 1193.47 116.919 1194.71 120.63C1213.88 121.094 1233.06 121.249 1252.24 121.094C1252.24 123.878 1252.24 126.662 1252.24 129.446C1232.75 129.446 1213.27 129.446 1193.78 129.446C1193.5 133.405 1193.82 137.272 1194.71 141.045C1213.88 141.509 1233.06 141.664 1252.24 141.509C1252.24 144.293 1252.24 147.076 1252.24 149.86C1232.75 149.86 1213.27 149.86 1193.78 149.86C1193.78 153.572 1193.78 157.284 1193.78 160.995C1213.27 160.995 1232.75 160.995 1252.24 160.995C1252.24 164.088 1252.24 167.182 1252.24 170.275C1232.75 170.275 1213.27 170.275 1193.78 170.275C1193.78 173.986 1193.78 177.698 1193.78 181.41C1213.27 181.41 1232.75 181.41 1252.24 181.41C1252.24 184.193 1252.24 186.977 1252.24 189.761C1232.75 189.761 1213.27 189.761 1193.78 189.761C1193.78 193.782 1193.78 197.803 1193.78 201.824C1213.27 201.824 1232.75 201.824 1252.24 201.824C1252.24 204.608 1252.24 207.392 1252.24 210.175C1232.75 210.175 1213.27 210.175 1193.78 210.175C1193.78 213.887 1193.78 217.599 1193.78 221.311C1213.27 221.311 1232.75 221.311 1252.24 221.311C1252.24 224.403 1252.24 227.497 1252.24 230.59C1232.75 230.59 1213.27 230.59 1193.78 230.59C1193.38 234.795 1193.84 238.816 1195.17 242.653C1214.04 242.344 1232.91 242.034 1251.78 241.725C1252.24 250.38 1252.4 259.041 1252.24 267.707C1229.97 267.707 1207.7 267.707 1185.43 267.707C1185.78 211.088 1185.17 154.484 1183.57 97.8961ZM1192.85 82.1213C1209.55 82.1213 1226.26 82.1213 1242.96 82.1213C1242.96 86.4517 1242.96 90.782 1242.96 95.1123C1226.26 95.1123 1209.55 95.1123 1192.85 95.1123C1192.85 90.782 1192.85 86.4517 1192.85 82.1213ZM1028.61 221.311C1029.71 221.747 1030.33 222.675 1030.46 224.094C1030.08 237.687 1030.08 252.224 1030.46 267.707C1028.62 252.582 1028.01 237.117 1028.61 221.311ZM940.455 267.707C908.747 268.015 877.198 267.705 845.807 266.779C841.34 255.421 837.009 243.976 832.816 232.446C835.92 228.878 839.167 225.476 842.559 222.238C855.401 235.385 871.02 242.964 889.419 244.973C906.995 247.591 923.853 245.271 939.991 238.013C940.455 247.906 940.613 257.804 940.455 267.707ZM792.915 225.022C794.232 224.14 795.777 223.831 797.554 224.094C797.703 225.671 797.549 227.218 797.09 228.734C795.818 227.304 794.426 226.066 792.915 225.022ZM800.338 224.094C810.236 224.094 820.134 224.094 830.032 224.094C830.032 226.259 830.032 228.425 830.032 230.59C820.134 230.59 810.236 230.59 800.338 230.59C800.338 228.425 800.338 226.259 800.338 224.094ZM831.888 225.022C833.547 223.981 835.403 223.826 837.455 224.558C835.798 225.287 834.406 226.369 833.28 227.806C833.064 226.658 832.6 225.73 831.888 225.022ZM954.374 227.806C958.095 227.652 961.807 227.807 965.509 228.27C966.744 234.456 966.744 240.642 965.509 246.829C961.807 247.292 958.095 247.447 954.374 247.293C953.595 240.568 953.595 234.072 954.374 227.806ZM826.32 233.374C822.92 237.546 819.054 241.258 814.721 244.509C810.407 240.97 806.231 237.258 802.194 233.374C810.101 232.485 818.142 232.485 826.32 233.374ZM1196.56 233.374C1215.12 233.374 1233.68 233.374 1252.24 233.374C1252.24 235.538 1252.24 237.704 1252.24 239.869C1233.68 239.869 1215.12 239.869 1196.56 239.869C1196.56 237.704 1196.56 235.538 1196.56 233.374ZM798.482 234.302C803.383 237.961 808.022 241.982 812.401 246.365C804.794 253.494 796.907 260.298 788.739 266.779C788.275 266.47 787.811 266.16 787.347 265.851C791.249 255.383 794.961 244.866 798.482 234.302ZM829.104 234.302C830.264 234.373 831.037 234.992 831.424 236.157C835.112 246.298 838.979 256.351 843.023 266.315C841.476 266.934 839.93 266.934 838.383 266.315C831.105 259.809 823.991 253.159 817.041 246.365C821.366 242.658 825.387 238.638 829.104 234.302ZM1025.82 237.085C1025.82 247.293 1025.82 257.5 1025.82 267.707C1010.36 267.707 994.897 267.707 979.428 267.707C979.122 258.098 979.428 248.51 980.356 238.941C991.222 243.961 1002.04 243.807 1012.83 238.477C1013.92 237.394 1015 236.312 1016.08 235.229C1016.55 235.693 1017.01 236.157 1017.47 236.621C1020.24 237.083 1023.02 237.238 1025.82 237.085ZM1118.62 236.157C1121.1 236.157 1123.56 236.157 1126.04 236.157C1126.04 238.322 1126.04 240.488 1126.04 242.653C1123.56 242.653 1121.1 242.653 1118.62 242.653C1118.62 240.488 1118.62 238.322 1118.62 236.157ZM1139.03 237.085C1141.31 236.182 1143.77 235.873 1146.46 236.157C1146.46 238.322 1146.46 240.488 1146.46 242.653C1143.96 242.805 1141.49 242.65 1139.03 242.189C1140.18 240.367 1140.18 238.666 1139.03 237.085ZM1159.45 236.157C1161.92 236.157 1164.39 236.157 1166.87 236.157C1166.87 238.322 1166.87 240.488 1166.87 242.653C1164.39 242.653 1161.92 242.653 1159.45 242.653C1159.45 240.488 1159.45 238.322 1159.45 236.157ZM1042.53 241.725C1044.49 242.623 1046.65 242.933 1049.02 242.653C1049.02 251.004 1049.02 259.356 1049.02 267.707C1043.76 267.707 1038.51 267.707 1033.25 267.707C1033.25 258.428 1033.25 249.148 1033.25 239.869C1036.05 239.68 1038.83 239.371 1041.6 238.941C1041.38 240.139 1041.69 241.067 1042.53 241.725ZM660.221 240.797C670.515 249.075 680.413 257.89 689.915 267.243C670.119 267.862 650.323 267.862 630.527 267.243C640.606 258.553 650.504 249.738 660.221 240.797ZM813.329 248.22C821.126 253.998 828.549 260.338 835.599 267.243C821.372 267.862 807.143 267.862 792.915 267.243C799.965 261.102 806.77 254.761 813.329 248.22Z" fill="#1C849E"/>
<path fill-rule="evenodd" clip-rule="evenodd" d="M545.157 220.383C547.931 227.486 549.787 234.91 550.725 242.653C543.534 238.592 540.904 232.406 542.837 224.095C543.023 222.406 543.797 221.169 545.157 220.383Z" fill="#18B4DB"/>
<path opacity="0.247" fill-rule="evenodd" clip-rule="evenodd" d="M680.635 203.68C681.872 193.782 681.872 183.885 680.635 173.986C680.898 173.254 681.362 172.635 682.027 172.131C682.8 182.97 682.645 193.796 681.563 204.608C681 204.493 680.691 204.184 680.635 203.68Z" fill="#1CD3FE"/>
<path opacity="0.129" fill-rule="evenodd" clip-rule="evenodd" d="M679.707 134.086C677.633 133.812 675.777 134.122 674.14 135.014C673.636 134.958 673.327 134.649 673.212 134.086C675.506 132.882 677.672 132.882 679.707 134.086Z" fill="#090401"/>
<path opacity="0.973" fill-rule="evenodd" clip-rule="evenodd" d="M1156.66 214.815C1161 214.815 1165.32 214.815 1169.65 214.815C1169.65 218.836 1169.65 222.858 1169.65 226.878C1165.62 227.033 1161.6 226.878 1157.59 226.415C1156.7 222.642 1156.38 218.775 1156.66 214.815ZM1159.45 216.671C1159.45 219.146 1159.45 221.62 1159.45 224.095C1161.92 224.095 1164.39 224.095 1166.87 224.095C1166.87 221.62 1166.87 219.146 1166.87 216.671C1164.39 216.671 1161.92 216.671 1159.45 216.671Z" fill="#1E7187"/>
<path opacity="0.941" fill-rule="evenodd" clip-rule="evenodd" d="M1136.25 214.815C1140.58 214.815 1144.91 214.815 1149.24 214.815C1149.24 218.836 1149.24 222.858 1149.24 226.878C1145.2 227.033 1141.18 226.878 1137.18 226.415C1136.29 222.642 1135.97 218.775 1136.25 214.815ZM1139.03 216.671C1139.65 219.149 1139.65 221.469 1139.03 223.631C1141.49 224.092 1143.96 224.247 1146.46 224.095C1146.46 221.62 1146.46 219.146 1146.46 216.671C1143.98 216.671 1141.51 216.671 1139.03 216.671Z" fill="#1B8AA6"/>
<path opacity="0.941" fill-rule="evenodd" clip-rule="evenodd" d="M1115.83 214.815C1120.17 214.815 1124.49 214.815 1128.82 214.815C1129.1 218.775 1128.79 222.642 1127.9 226.415C1123.89 226.878 1119.87 227.033 1115.83 226.878C1115.83 222.858 1115.83 218.836 1115.83 214.815ZM1118.62 216.671C1118.62 219.146 1118.62 221.62 1118.62 224.095C1121.09 224.095 1123.56 224.095 1126.04 224.095C1126.04 221.62 1126.04 219.146 1126.04 216.671C1123.56 216.671 1121.09 216.671 1118.62 216.671Z" fill="#1F667A"/>
<path opacity="0.141" fill-rule="evenodd" clip-rule="evenodd" d="M1136.25 196.257C1140.58 196.257 1144.91 196.257 1149.24 196.257C1149.24 200.278 1149.24 204.299 1149.24 208.32C1145.2 208.474 1141.18 208.319 1137.18 207.856C1136.29 204.083 1135.97 200.216 1136.25 196.257ZM1139.03 198.113C1139.65 200.59 1139.65 202.91 1139.03 205.072C1141.49 205.533 1143.96 205.688 1146.46 205.536C1146.46 203.061 1146.46 200.587 1146.46 198.113C1143.98 198.113 1141.51 198.113 1139.03 198.113Z" fill="#1790AB"/>
<path opacity="0.973" fill-rule="evenodd" clip-rule="evenodd" d="M1156.66 196.257C1161 196.257 1165.32 196.257 1169.65 196.257C1169.65 200.278 1169.65 204.299 1169.65 208.32C1165.62 208.474 1161.6 208.319 1157.59 207.856C1156.7 204.083 1156.38 200.216 1156.66 196.257ZM1159.45 198.113C1159.45 200.587 1159.45 203.061 1159.45 205.536C1161.92 205.536 1164.39 205.536 1166.87 205.536C1166.87 203.061 1166.87 200.587 1166.87 198.113C1164.39 198.113 1161.92 198.113 1159.45 198.113Z" fill="#1C768D"/>
<path opacity="0.941" fill-rule="evenodd" clip-rule="evenodd" d="M1115.83 196.257C1120.17 196.257 1124.49 196.257 1128.82 196.257C1128.98 199.982 1128.82 203.693 1128.36 207.392C1124.34 208.629 1120.32 208.629 1116.3 207.392C1115.83 203.693 1115.68 199.982 1115.83 196.257ZM1118.62 198.113C1118.62 200.587 1118.62 203.061 1118.62 205.536C1121.09 205.536 1123.56 205.536 1126.04 205.536C1126.04 203.061 1126.04 200.587 1126.04 198.113C1123.56 198.113 1121.09 198.113 1118.62 198.113Z" fill="#1E6C80"/>
<path opacity="0.973" fill-rule="evenodd" clip-rule="evenodd" d="M1157.59 176.77C1161.55 176.495 1165.41 176.804 1169.19 177.698C1169.93 181.647 1169.77 185.512 1168.73 189.297C1164.78 190.036 1160.91 189.881 1157.13 188.833C1156.41 184.732 1156.57 180.711 1157.59 176.77ZM1159.45 179.554C1159.45 182.029 1159.45 184.503 1159.45 186.977C1161.92 186.977 1164.39 186.977 1166.87 186.977C1166.87 184.503 1166.87 182.029 1166.87 179.554C1164.39 179.554 1161.92 179.554 1159.45 179.554Z" fill="#206376"/>
<path opacity="0.941" fill-rule="evenodd" clip-rule="evenodd" d="M1137.18 176.77C1141.14 176.495 1145 176.804 1148.77 177.698C1149.52 181.647 1149.36 185.512 1148.31 189.297C1144.37 190.036 1140.5 189.881 1136.71 188.833C1136 184.732 1136.16 180.711 1137.18 176.77ZM1139.03 179.554C1139.65 182.032 1139.65 184.351 1139.03 186.514C1141.49 186.975 1143.96 187.13 1146.46 186.977C1146.46 184.503 1146.46 182.029 1146.46 179.554C1143.98 179.554 1141.51 179.554 1139.03 179.554Z" fill="#20778F"/>
<path opacity="0.941" fill-rule="evenodd" clip-rule="evenodd" d="M1116.76 176.77C1120.72 176.495 1124.58 176.804 1128.36 177.698C1129.1 181.647 1128.95 185.512 1127.9 189.297C1123.95 190.036 1120.08 189.881 1116.3 188.833C1115.58 184.732 1115.74 180.711 1116.76 176.77ZM1118.62 179.554C1118.62 182.029 1118.62 184.503 1118.62 186.977C1121.09 186.977 1123.56 186.977 1126.04 186.977C1126.04 184.503 1126.04 182.029 1126.04 179.554C1123.56 179.554 1121.09 179.554 1118.62 179.554Z" fill="#215C6D"/>
<path opacity="0.941" fill-rule="evenodd" clip-rule="evenodd" d="M1157.59 158.212C1161.61 158.212 1165.63 158.212 1169.65 158.212C1169.81 162.245 1169.65 166.265 1169.19 170.275C1157.04 174.363 1153.17 170.342 1157.59 158.212ZM1159.45 160.996C1159.45 163.47 1159.45 165.944 1159.45 168.419C1161.92 168.419 1164.39 168.419 1166.87 168.419C1166.87 165.944 1166.87 163.47 1166.87 160.996C1164.39 160.996 1161.92 160.996 1159.45 160.996Z" fill="#1F7186"/>
<path opacity="0.941" fill-rule="evenodd" clip-rule="evenodd" d="M1137.18 158.212C1141.19 158.212 1145.22 158.212 1149.24 158.212C1149.4 162.245 1149.24 166.265 1148.77 170.275C1136.63 174.363 1132.76 170.342 1137.18 158.212ZM1139.03 160.996C1139.65 163.473 1139.65 165.793 1139.03 167.955C1141.49 168.416 1143.96 168.571 1146.45 168.419C1146.45 165.944 1146.45 163.47 1146.45 160.996C1143.98 160.996 1141.51 160.996 1139.03 160.996Z" fill="#1D87A1"/>
<path opacity="0.941" fill-rule="evenodd" clip-rule="evenodd" d="M1116.76 158.212C1120.72 157.936 1124.58 158.245 1128.36 159.14C1129.1 163.088 1128.95 166.954 1127.9 170.739C1123.95 171.477 1120.08 171.322 1116.3 170.275C1115.58 166.173 1115.74 162.153 1116.76 158.212ZM1118.62 160.995C1118.62 163.47 1118.62 165.944 1118.62 168.419C1121.09 168.419 1123.56 168.419 1126.04 168.419C1126.04 165.944 1126.04 163.47 1126.04 160.995C1123.56 160.995 1121.09 160.995 1118.62 160.995Z" fill="#20687C"/>
<path opacity="0.973" fill-rule="evenodd" clip-rule="evenodd" d="M1117.69 139.653C1121.41 139.499 1125.12 139.654 1128.82 140.117C1129.72 143.89 1130.03 147.757 1129.75 151.716C1125.42 151.716 1121.1 151.716 1116.76 151.716C1116.51 147.604 1116.82 143.583 1117.69 139.653ZM1119.55 142.437C1119.55 144.912 1119.55 147.385 1119.55 149.86C1122.02 149.86 1124.49 149.86 1126.97 149.86C1126.97 147.385 1126.97 144.912 1126.97 142.437C1124.49 142.437 1122.02 142.437 1119.55 142.437Z" fill="#1E7188"/>
<path opacity="0.941" fill-rule="evenodd" clip-rule="evenodd" d="M1158.52 139.653C1162.24 139.499 1165.95 139.654 1169.65 140.117C1170.54 143.89 1170.86 147.757 1170.58 151.716C1166.25 151.716 1161.92 151.716 1157.59 151.716C1157.34 147.604 1157.65 143.583 1158.52 139.653ZM1160.37 142.437C1160.37 144.912 1160.37 147.385 1160.37 149.86C1162.85 149.86 1165.32 149.86 1167.8 149.86C1167.8 147.385 1167.8 144.912 1167.8 142.437C1165.32 142.437 1162.85 142.437 1160.37 142.437Z" fill="#1E7288"/>
<path opacity="0.941" fill-rule="evenodd" clip-rule="evenodd" d="M1138.1 139.653C1141.82 139.499 1145.54 139.654 1149.24 140.117C1150.13 143.89 1150.45 147.757 1150.17 151.716C1145.83 151.716 1141.51 151.716 1137.18 151.716C1136.93 147.604 1137.23 143.583 1138.1 139.653ZM1139.96 142.437C1139.96 144.912 1139.96 147.385 1139.96 149.86C1142.44 149.86 1144.91 149.86 1147.38 149.86C1147.38 147.385 1147.38 144.912 1147.38 142.437C1144.91 142.437 1142.44 142.437 1139.96 142.437Z" fill="#1498B7"/>
<path opacity="0.247" fill-rule="evenodd" clip-rule="evenodd" d="M827.247 220.383C827.98 220.646 828.598 221.11 829.103 221.775C819.441 222.536 810.471 222.382 802.193 221.311C810.714 221.614 819.065 221.304 827.247 220.383Z" fill="#1CD2FC"/>
<path opacity="0.247" fill-rule="evenodd" clip-rule="evenodd" d="M1028.61 221.311C1028 237.117 1028.62 252.582 1030.46 267.707C1029.81 268.546 1028.88 268.855 1027.68 268.635C1027.37 252.698 1027.68 236.923 1028.61 221.311Z" fill="#1CD2FD"/>
<path opacity="0.973" fill-rule="evenodd" clip-rule="evenodd" d="M957.158 221.311C959.403 221.025 961.575 221.335 963.653 222.239C964.349 223.386 964.655 224.624 964.581 225.951C966.391 225.697 967.783 226.315 968.757 227.806C969.379 234.302 969.379 240.797 968.757 247.293C967.374 248.688 965.676 249.461 963.653 249.613C964.433 252.406 963.199 253.798 959.942 253.788C956.777 253.878 955.543 252.331 956.23 249.149C953.687 249.645 951.989 248.717 951.126 246.365C950.504 240.488 950.504 234.611 951.126 228.734C951.989 226.382 953.687 225.454 956.23 225.951C956.109 224.288 956.415 222.742 957.158 221.311ZM954.374 227.806C953.594 234.073 953.594 240.568 954.374 247.293C958.095 247.447 961.807 247.292 965.509 246.829C966.743 240.642 966.743 234.457 965.509 228.27C961.807 227.807 958.095 227.652 954.374 227.806Z" fill="#1890AD"/>
<path opacity="0.973" fill-rule="evenodd" clip-rule="evenodd" d="M1416.48 217.599C1418.13 219.31 1420.3 219.928 1422.98 219.455C1423.9 227.637 1424.21 235.989 1423.91 244.509C1427 244.509 1430.09 244.509 1433.18 244.509C1433.18 252.241 1433.18 259.975 1433.18 267.707C1450.19 267.707 1467.21 267.707 1484.22 267.707C1484.22 268.326 1484.22 268.944 1484.22 269.563C1414.32 269.563 1344.41 269.563 1274.51 269.563C1267.71 268.944 1260.9 268.326 1254.09 267.707C1260.9 267.707 1267.71 267.707 1274.51 267.707C1274.01 265.166 1274.94 263.465 1277.29 262.604C1273.62 261.57 1273.62 260.797 1277.29 260.284C1277.29 259.356 1277.29 258.428 1277.29 257.5C1273.87 256.807 1273.87 255.57 1277.29 253.788C1273.79 252.4 1273.79 250.853 1277.29 249.149C1276.15 248.424 1274.92 247.96 1273.58 247.757C1273.04 246.928 1272.74 246 1272.65 244.973C1274.07 240.949 1275.16 236.774 1275.9 232.446C1278.08 227.751 1281.33 224.04 1285.64 221.311C1286.4 219.208 1286.86 217.042 1287.04 214.815C1289.24 213.948 1291.56 213.639 1294 213.887C1293.85 211.7 1294 209.535 1294.46 207.392C1295.55 206.099 1296.94 205.325 1298.64 205.072C1310.14 204.201 1321.59 204.51 1332.97 206C1333.43 206.464 1333.9 206.928 1334.36 207.392C1334.53 216.092 1335.15 224.752 1336.22 233.374C1336.39 228.502 1336.86 223.708 1337.61 218.991C1345.64 218.527 1353.69 218.373 1361.73 218.527C1362.89 201.197 1364.13 183.875 1365.45 166.563C1371.75 166.005 1377.78 166.624 1383.54 168.419C1385.24 184.775 1386.32 201.169 1386.79 217.599C1387.06 218.665 1387.83 219.284 1389.11 219.455C1390.39 219.284 1391.16 218.665 1391.43 217.599C1391.82 193.106 1393.06 168.671 1395.14 144.293C1401.01 144.293 1406.9 144.293 1412.77 144.293C1414.16 168.454 1415.4 192.889 1416.48 217.599ZM1287.5 223.167C1294.72 222.766 1301.84 223.23 1308.84 224.558C1314.49 228.897 1317.28 234.619 1317.19 241.725C1303.9 241.725 1290.59 241.725 1277.29 241.725C1277.35 233.571 1280.74 227.385 1287.5 223.167ZM1339.46 221.311C1366.68 221.311 1393.91 221.311 1421.12 221.311C1421.12 225.331 1421.12 229.353 1421.12 233.374C1393.91 233.374 1366.68 233.374 1339.46 233.374C1339.46 229.353 1339.46 225.331 1339.46 221.311ZM1288.43 217.599C1293.82 216.68 1299.39 216.371 1305.13 216.671C1305.13 217.908 1305.13 219.146 1305.13 220.383C1299.55 220.537 1293.99 220.382 1288.43 219.919C1289.61 219.012 1289.61 218.238 1288.43 217.599ZM1300.49 211.104C1310.08 211.104 1319.67 211.104 1329.26 211.104C1329.45 218.617 1328.83 226.04 1327.4 233.374C1325.85 233.374 1324.31 233.374 1322.76 233.374C1323.07 244.835 1322.76 256.28 1321.83 267.707C1321.1 265.27 1319.55 263.569 1317.19 262.604C1321.98 261.97 1321.98 261.197 1317.19 260.284C1317.19 259.356 1317.19 258.428 1317.19 257.5C1320.02 257.505 1320.49 256.578 1318.59 254.716C1318.28 255.025 1317.96 255.335 1317.66 255.644C1317.21 254.764 1317.05 253.836 1317.19 252.86C1322.01 252.059 1322.01 250.822 1317.19 249.149C1318.34 248.424 1319.57 247.96 1320.91 247.757C1320.89 240.899 1319.18 234.249 1315.8 227.806C1313.62 225.471 1311.3 223.306 1308.84 221.311C1308.09 219.208 1307.63 217.042 1307.45 214.815C1305.24 213.948 1302.92 213.639 1300.49 213.887C1300.49 212.959 1300.49 212.031 1300.49 211.104ZM1297.71 207.392C1308.84 207.237 1319.98 207.392 1331.11 207.856C1332.17 214.121 1332.33 220.463 1331.58 226.878C1331.4 220.772 1330.94 214.74 1330.18 208.784C1319.65 208.012 1309.14 208.166 1298.64 209.248C1298.03 210.746 1297.57 212.293 1297.24 213.887C1296.59 211.633 1296.74 209.469 1297.71 207.392ZM1368.23 169.347C1372.56 169.347 1376.89 169.347 1381.22 169.347C1382.08 185.774 1383.32 202.167 1384.93 218.527C1377.79 218.834 1370.68 218.524 1363.59 217.599C1365.46 201.294 1367 185.21 1368.23 169.347ZM1397 147.077C1401.33 147.077 1405.65 147.077 1409.99 147.077C1411.36 170.901 1412.91 194.717 1414.63 218.527C1407.51 218.527 1400.4 218.527 1393.28 218.527C1394.85 194.988 1396.09 171.172 1397 147.077ZM1330.18 229.662C1331.42 229.662 1332.66 229.662 1333.9 229.662C1334.04 230.936 1333.89 232.174 1333.43 233.374C1332.5 232.597 1331.41 232.288 1330.18 232.446C1330.18 231.518 1330.18 230.59 1330.18 229.662ZM1325.55 235.23C1357.4 235.23 1389.27 235.23 1421.12 235.23C1420.96 239.262 1421.12 243.283 1421.59 247.293C1424.68 248.53 1427.77 248.53 1430.86 247.293C1431.33 254.091 1431.49 260.895 1431.33 267.707C1425.46 267.707 1419.57 267.707 1413.7 267.707C1413.7 263.067 1413.7 258.428 1413.7 253.788C1410.29 253.788 1406.9 253.788 1403.49 253.788C1403.49 258.428 1403.49 263.067 1403.49 267.707C1401.64 267.707 1399.78 267.707 1397.92 267.707C1398.08 260.895 1397.92 254.091 1397.46 247.293C1392.82 246.056 1388.18 246.056 1383.54 247.293C1383.08 254.091 1382.92 260.895 1383.08 267.707C1379.36 267.707 1375.65 267.707 1371.94 267.707C1372.24 260.73 1371.93 253.926 1371.01 247.293C1366.62 246.064 1362.13 246.064 1357.56 247.293C1357.09 254.091 1356.94 260.895 1357.09 267.707C1354 267.707 1350.91 267.707 1347.82 267.707C1347.97 260.895 1347.82 254.091 1347.35 247.293C1342.78 246.064 1338.29 246.064 1333.9 247.293C1332.98 253.926 1332.67 260.73 1332.97 267.707C1330.49 267.707 1328.02 267.707 1325.55 267.707C1325.55 256.881 1325.55 246.056 1325.55 235.23ZM1275.44 243.581C1290.32 242.977 1304.85 243.596 1319.05 245.437C1304.17 246.041 1289.63 245.422 1275.44 243.581ZM1280.08 248.221C1285.38 247.915 1290.63 248.225 1295.85 249.149C1293.23 249.458 1290.59 249.768 1287.96 250.076C1284.95 250.059 1282.32 249.44 1280.08 248.221ZM1315.34 250.076C1309.77 250.076 1304.2 250.076 1298.64 250.076C1301.04 248.855 1303.82 248.236 1306.99 248.221C1310.15 248.236 1312.93 248.855 1315.34 250.076ZM1335.75 249.149C1338.84 249.149 1341.94 249.149 1345.03 249.149C1345.03 255.335 1345.03 261.521 1345.03 267.707C1341.94 267.707 1338.84 267.707 1335.75 267.707C1335.75 261.521 1335.75 255.335 1335.75 249.149ZM1369.16 249.149C1369.16 255.335 1369.16 261.521 1369.16 267.707C1366.07 267.707 1362.97 267.707 1359.88 267.707C1359.88 261.521 1359.88 255.335 1359.88 249.149C1362.97 249.149 1366.07 249.149 1369.16 249.149ZM1385.86 249.149C1388.95 249.149 1392.05 249.149 1395.14 249.149C1395.14 255.335 1395.14 261.521 1395.14 267.707C1392.05 267.707 1388.95 267.707 1385.86 267.707C1385.86 261.521 1385.86 255.335 1385.86 249.149ZM1280.08 252.86C1285.34 252.86 1290.59 252.86 1295.85 252.86C1295.85 253.788 1295.85 254.716 1295.85 255.644C1291.04 254.545 1286.25 254.545 1281.47 255.644C1280.5 254.954 1280.04 254.026 1280.08 252.86ZM1298.64 252.86C1304.2 252.86 1309.77 252.86 1315.34 252.86C1315.48 253.836 1315.32 254.764 1314.87 255.644C1309.74 255.285 1304.49 255.285 1299.1 255.644C1298.65 254.764 1298.5 253.836 1298.64 252.86ZM1405.35 256.572C1407.2 256.572 1409.06 256.572 1410.91 256.572C1410.91 260.284 1410.91 263.995 1410.91 267.707C1409.06 267.707 1407.2 267.707 1405.35 267.707C1405.35 263.995 1405.35 260.284 1405.35 256.572ZM1280.08 257.5C1285.34 257.5 1290.59 257.5 1295.85 257.5C1295.85 258.428 1295.85 259.356 1295.85 260.284C1290.27 260.438 1284.71 260.283 1279.15 259.82C1279.84 259.197 1280.16 258.424 1280.08 257.5ZM1298.64 257.5C1304.2 257.5 1309.77 257.5 1315.34 257.5C1315.34 258.428 1315.34 259.356 1315.34 260.284C1309.77 260.284 1304.2 260.284 1298.64 260.284C1298.64 259.356 1298.64 258.428 1298.64 257.5ZM1279.15 263.067C1284.55 261.998 1290.12 261.844 1295.85 262.604C1293.49 263.465 1292.57 265.166 1293.07 267.707C1289.66 267.707 1286.27 267.707 1282.86 267.707C1282.98 265.047 1281.75 263.501 1279.15 263.067ZM1298.64 263.067C1304.04 261.998 1309.6 261.844 1315.34 262.604C1312.98 263.465 1312.05 265.166 1312.55 267.707C1308.84 267.707 1305.13 267.707 1301.42 267.707C1301.63 265.449 1300.7 263.904 1298.64 263.067ZM1276.36 265.851C1277.74 265.608 1278.97 265.917 1280.08 266.779C1279.45 267.088 1278.84 267.398 1278.22 267.707C1277.1 267.478 1276.48 266.859 1276.36 265.851ZM1295.85 265.851C1296.95 265.648 1297.87 265.957 1298.64 266.779C1297.2 267.984 1296.27 267.675 1295.85 265.851ZM1315.34 265.851C1316.43 265.648 1317.36 265.957 1318.12 266.779C1316.68 267.984 1315.76 267.675 1315.34 265.851Z" fill="#1A87A3"/>
<path opacity="0.129" fill-rule="evenodd" clip-rule="evenodd" d="M1386.79 217.599C1388.34 218.836 1389.88 218.836 1391.43 217.599C1391.16 218.666 1390.39 219.284 1389.11 219.455C1387.83 219.284 1387.06 218.666 1386.79 217.599Z" fill="#090401"/>
<path opacity="0.941" fill-rule="evenodd" clip-rule="evenodd" d="M1115.83 233.374C1119.87 233.22 1123.89 233.375 1127.9 233.838C1129.13 237.549 1129.13 241.261 1127.9 244.973C1123.89 245.436 1119.87 245.591 1115.83 245.437C1115.83 241.416 1115.83 237.394 1115.83 233.374ZM1118.62 236.158C1118.62 238.322 1118.62 240.488 1118.62 242.653C1121.09 242.653 1123.56 242.653 1126.04 242.653C1126.04 240.488 1126.04 238.322 1126.04 236.158C1123.56 236.158 1121.09 236.158 1118.62 236.158Z" fill="#206275"/>
<path opacity="0.941" fill-rule="evenodd" clip-rule="evenodd" d="M1137.18 234.302C1140.89 234.302 1144.6 234.302 1148.31 234.302C1148.31 237.704 1148.31 241.106 1148.31 244.509C1144.6 244.509 1140.89 244.509 1137.18 244.509C1135.94 241.106 1135.94 237.704 1137.18 234.302ZM1139.03 237.086C1140.18 238.666 1140.18 240.368 1139.03 242.189C1141.49 242.65 1143.96 242.805 1146.45 242.653C1146.45 240.488 1146.45 238.322 1146.45 236.158C1143.77 235.874 1141.3 236.183 1139.03 237.086Z" fill="#1F7186"/>
<path opacity="0.247" fill-rule="evenodd" clip-rule="evenodd" d="M1137.18 234.302C1141.01 233.388 1145.03 233.079 1149.24 233.374C1149.24 237.394 1149.24 241.416 1149.24 245.437C1145.03 245.732 1141.01 245.423 1137.18 244.509C1140.89 244.509 1144.6 244.509 1148.31 244.509C1148.31 241.106 1148.31 237.704 1148.31 234.302C1144.6 234.302 1140.89 234.302 1137.18 234.302Z" fill="#1BC2EA"/>
<path opacity="0.973" fill-rule="evenodd" clip-rule="evenodd" d="M1157.59 233.374C1161.61 233.374 1165.64 233.374 1169.65 233.374C1169.65 237.395 1169.65 241.416 1169.65 245.437C1165.62 245.591 1161.6 245.436 1157.59 244.973C1156.38 241.107 1156.38 237.241 1157.59 233.374ZM1159.45 236.158C1159.45 238.323 1159.45 240.488 1159.45 242.653C1161.92 242.653 1164.39 242.653 1166.87 242.653C1166.87 240.488 1166.87 238.323 1166.87 236.158C1164.39 236.158 1161.92 236.158 1159.45 236.158Z" fill="#1F6F85"/>
<path opacity="0.973" fill-rule="evenodd" clip-rule="evenodd" d="M521.959 268.635C521.404 264.997 520.786 261.905 520.103 259.356C515.233 259.008 511.367 256.843 508.504 252.86C503.129 239.794 507.305 231.752 521.031 228.734C530.232 229.738 535.181 234.842 535.878 244.045C535.28 252.839 530.64 257.942 521.959 259.356C521.959 262.448 521.959 265.542 521.959 268.635Z" fill="#4A8C8F"/>
<path fill-rule="evenodd" clip-rule="evenodd" d="M518.248 230.59C527.731 230.481 533.299 235.121 534.95 244.509C533.964 252.3 529.634 256.63 521.959 257.5C521.141 253.409 522.379 250.161 525.671 247.757C524.325 248.001 523.088 247.846 521.959 247.293C522.887 245.746 524.124 244.509 525.671 243.581C524.276 243.27 523.04 243.27 521.959 243.581C523.025 242.051 524.262 240.659 525.671 239.405C524.698 238.949 523.77 239.103 522.887 239.869C522.268 238.941 521.65 238.013 521.031 237.085C520.106 243.862 519.796 250.668 520.104 257.5C512.185 256.54 507.854 252.055 507.113 244.045C508.341 237.411 512.053 232.927 518.248 230.59Z" fill="#18B4DB"/>
<path opacity="0.247" fill-rule="evenodd" clip-rule="evenodd" d="M1325.54 235.23C1325.54 246.056 1325.54 256.881 1325.54 267.707C1328.02 267.707 1330.49 267.707 1332.97 267.707C1332.67 260.73 1332.98 253.926 1333.9 247.293C1333.9 254.407 1333.9 261.521 1333.9 268.635C1330.81 268.635 1327.71 268.635 1324.62 268.635C1324.31 257.335 1324.62 246.2 1325.54 235.23Z" fill="#1CCFFA"/>
<path opacity="0.941" fill-rule="evenodd" clip-rule="evenodd" d="M95.1129 236.158C99.025 236.377 102.891 236.377 106.712 236.158C108.186 239.693 108.495 243.404 107.64 247.293C103.545 248.344 99.3693 248.499 95.1129 247.757C93.9038 243.892 93.9038 240.025 95.1129 236.158ZM105.32 238.942C105.32 240.798 105.32 242.654 105.32 244.51C102.643 244.226 100.168 244.535 97.8967 245.437C96.9984 243.482 96.6885 241.317 96.9687 238.942C99.7525 238.942 102.536 238.942 105.32 238.942Z" fill="#1D7890"/>
<path opacity="0.129" fill-rule="evenodd" clip-rule="evenodd" d="M105.32 238.941C106.218 240.896 106.528 243.062 106.248 245.437C103.464 245.437 100.68 245.437 97.8965 245.437C100.168 244.534 102.643 244.225 105.32 244.509C105.32 242.653 105.32 240.797 105.32 238.941Z" fill="#090401"/>
<path opacity="0.596" fill-rule="evenodd" clip-rule="evenodd" d="M1042.53 241.725C1045 241.725 1047.47 241.725 1049.95 241.725C1050.26 250.554 1049.94 259.215 1049.02 267.707C1049.02 259.356 1049.02 251.004 1049.02 242.653C1046.65 242.933 1044.48 242.623 1042.53 241.725Z" fill="#19BAE1"/>
<path opacity="0.69" fill-rule="evenodd" clip-rule="evenodd" d="M62.635 236.158C66.5467 236.377 70.4131 236.377 74.2341 236.158C75.7078 239.692 76.0172 243.404 75.162 247.293C71.0669 248.344 66.8912 248.498 62.635 247.757C61.4257 243.891 61.4257 240.025 62.635 236.158ZM64.4908 238.942C64.3393 241.129 64.494 243.294 64.9548 245.437C67.4779 244.561 70.1071 244.252 72.8422 244.509C72.8422 242.653 72.8422 240.798 72.8422 238.942C70.0584 238.942 67.2746 238.942 64.4908 238.942Z" fill="#207890"/>
<path opacity="0.69" fill-rule="evenodd" clip-rule="evenodd" d="M79.3374 236.158C83.2491 236.377 87.1155 236.377 90.9365 236.158C94.7651 247.178 90.8992 251.045 79.3374 247.757C78.1281 243.891 78.1281 240.025 79.3374 236.158ZM81.1932 238.942C81.1932 240.798 81.1932 242.653 81.1932 244.509C83.977 244.509 86.7608 244.509 89.5446 244.509C89.5446 242.653 89.5446 240.798 89.5446 238.942C86.7608 238.942 83.977 238.942 81.1932 238.942Z" fill="#1E768D"/>
<path opacity="0.247" fill-rule="evenodd" clip-rule="evenodd" d="M1275.44 243.581C1289.63 245.422 1304.17 246.041 1319.05 245.437C1304.37 246.361 1289.52 246.671 1274.51 246.365C1274.29 245.167 1274.6 244.239 1275.44 243.581Z" fill="#1CD3FE"/>
<path opacity="0.247" fill-rule="evenodd" clip-rule="evenodd" d="M553.509 246.365C555.056 246.365 556.602 246.365 558.148 246.365C558.148 253.788 558.148 261.212 558.148 268.635C556.371 268.899 554.826 268.59 553.509 267.707C554.746 267.707 555.984 267.707 557.221 267.707C557.221 260.903 557.221 254.097 557.221 247.293C555.737 247.542 554.5 247.232 553.509 246.365Z" fill="#1CCDF7"/>
<path opacity="0.247" fill-rule="evenodd" clip-rule="evenodd" d="M1371.01 247.293C1371.93 253.926 1372.24 260.73 1371.94 267.707C1375.65 267.707 1379.36 267.707 1383.08 267.707C1379.77 268.636 1375.75 268.945 1371.01 268.635C1371.01 261.521 1371.01 254.407 1371.01 247.293Z" fill="#1BCBF5"/>
<path opacity="0.247" fill-rule="evenodd" clip-rule="evenodd" d="M1369.16 249.149C1370.08 255.471 1370.38 261.966 1370.09 268.635C1365.96 268.947 1362.55 268.638 1359.88 267.707C1362.97 267.707 1366.07 267.707 1369.16 267.707C1369.16 261.521 1369.16 255.335 1369.16 249.149Z" fill="#1BCBF5"/>
<path opacity="0.973" fill-rule="evenodd" clip-rule="evenodd" d="M292.761 220.383C293.672 223.596 293.981 226.998 293.689 230.59C293.689 242.962 293.689 255.335 293.689 267.707C296.782 267.707 299.876 267.707 302.968 267.707C302.671 254.427 302.671 242.364 302.968 231.518C302.968 230.899 303.277 230.59 303.896 230.59C304.1 244.563 304.41 257.245 304.824 268.635C320.602 268.79 336.377 268.635 352.149 268.171C353.523 264.626 353.214 261.223 351.221 257.964C345.042 257.5 338.856 257.346 332.662 257.5C333.794 247.011 334.722 236.495 335.446 225.951C349.056 225.951 362.665 225.951 376.275 225.951C377.108 236.475 378.036 246.991 379.058 257.5C372.865 257.346 366.678 257.5 360.5 257.964C358.71 260.985 358.246 264.233 359.108 267.707C374.05 268.936 389.051 268.936 404.113 267.707C403.859 265.454 404.168 263.444 405.04 261.676C403.614 260.646 402.996 259.254 403.185 257.5C396.998 257.5 390.813 257.5 384.626 257.5C385.165 247.24 386.093 237.033 387.41 226.879C401.006 225.952 414.615 225.642 428.239 225.951C428.945 236.719 429.564 247.236 430.095 257.5C423.908 257.5 417.722 257.5 411.536 257.5C410.481 261.102 410.481 264.66 411.536 268.171C426.451 268.929 441.298 268.775 456.077 267.707C456.695 267.707 457.313 267.707 457.932 267.707C458.86 267.707 459.788 267.707 460.716 267.707C460.716 265.233 460.716 262.759 460.716 260.284C459.788 260.284 458.86 260.284 457.932 260.284C457.313 260.284 456.695 260.284 456.077 260.284C455.365 259.66 454.746 258.887 454.221 257.964C448.012 257.807 441.825 257.343 435.662 256.572C436.979 246.418 437.907 236.211 438.446 225.951C452.056 225.951 465.665 225.951 479.275 225.951C480.305 236.457 481.233 246.974 482.058 257.5C475.872 257.5 469.686 257.5 463.5 257.5C461.665 261.112 461.355 264.823 462.572 268.635C461.953 268.635 461.644 268.944 461.644 269.563C404.884 269.871 348.28 269.562 291.833 268.635C292.434 252.558 292.743 236.474 292.761 220.383Z" fill="#3C8894"/>
<path fill-rule="evenodd" clip-rule="evenodd" d="M424.527 228.734C424.845 227.957 425.463 227.647 426.383 227.806C427.244 236.894 428.172 245.709 429.167 254.252C429.032 254.969 428.723 255.588 428.239 256.108C414.318 255.341 400.399 255.496 386.482 256.572C386.482 255.025 386.482 253.479 386.482 251.932C387.321 252.59 387.63 253.518 387.41 254.716C400.874 255.022 414.174 254.713 427.311 253.788C426.749 245.274 425.821 236.922 424.527 228.734Z" fill="#18B4DB"/>
<path fill-rule="evenodd" clip-rule="evenodd" d="M438.446 246.365C438.755 246.365 439.065 246.365 439.374 246.365C439.645 248.645 439.645 251.12 439.374 253.788C452.365 253.788 465.356 253.788 478.347 253.788C478.966 253.788 479.584 253.788 480.203 253.788C480.282 254.713 479.973 255.486 479.275 256.108C476.646 256.263 474.016 256.417 471.387 256.572C461.266 256.265 450.285 256.11 438.446 256.108C437.735 252.937 437.735 249.689 438.446 246.365Z" fill="#18B4DB"/>
<path fill-rule="evenodd" clip-rule="evenodd" d="M426.383 227.806C425.463 227.647 424.845 227.957 424.527 228.734C412.773 228.734 401.02 228.734 389.266 228.734C388.912 237.084 388.603 245.435 388.338 253.788C401.329 253.788 414.32 253.788 427.311 253.788C414.174 254.713 400.874 255.022 387.41 254.716C387.63 253.518 387.321 252.59 386.482 251.932C387.152 243.586 387.77 235.234 388.338 226.878C401.184 226.573 413.865 226.882 426.383 227.806Z" fill="#18B4DB"/>
<path fill-rule="evenodd" clip-rule="evenodd" d="M375.347 229.662C375.685 237.105 376.304 244.528 377.202 251.932C377.155 253.417 376.846 254.809 376.274 256.108C362.574 256.29 348.965 256.29 335.446 256.108C334.851 252.635 334.851 249.077 335.446 245.437C336.065 245.437 336.374 245.746 336.374 246.365C336.374 248.84 336.374 251.313 336.374 253.788C349.365 253.788 362.356 253.788 375.347 253.788C374.861 246.374 374.552 238.951 374.419 231.518C374.259 230.597 374.569 229.979 375.347 229.662Z" fill="#18B4DB"/>
<path opacity="0.973" fill-rule="evenodd" clip-rule="evenodd" d="M478.347 253.788C465.356 253.788 452.365 253.788 439.374 253.788C439.645 251.119 439.645 248.645 439.374 246.365C440.342 240.658 440.961 234.781 441.23 228.734C452.987 228.579 464.741 228.734 476.491 229.198C477.538 237.315 478.157 245.511 478.347 253.788Z" fill="#458A91"/>
<path fill-rule="evenodd" clip-rule="evenodd" d="M470.923 247.293C472.779 247.293 474.635 247.293 476.491 247.293C476.491 249.149 476.491 251.004 476.491 252.86C471.851 253.788 469.995 251.932 470.923 247.293Z" fill="#18B4DB"/>
<path fill-rule="evenodd" clip-rule="evenodd" d="M463.5 247.293C465.452 247.015 467.308 247.324 469.067 248.221C470.858 252.156 469.312 253.548 464.428 252.396C463.587 250.82 463.278 249.118 463.5 247.293Z" fill="#18B4DB"/>
<path fill-rule="evenodd" clip-rule="evenodd" d="M457.005 247.293C458.551 247.293 460.097 247.293 461.644 247.293C463.468 252.426 461.767 253.972 456.541 251.932C455.947 250.295 456.102 248.748 457.005 247.293Z" fill="#18B4DB"/>
<path fill-rule="evenodd" clip-rule="evenodd" d="M448.653 247.293C450.509 247.293 452.365 247.293 454.221 247.293C454.221 249.149 454.221 251.004 454.221 252.86C452.365 252.86 450.509 252.86 448.653 252.86C448.653 251.004 448.653 249.149 448.653 247.293Z" fill="#18B4DB"/>
<path fill-rule="evenodd" clip-rule="evenodd" d="M442.158 247.293C446.682 246.276 448.229 247.823 446.797 251.932C445.038 252.829 443.182 253.138 441.23 252.86C441.067 250.892 441.377 249.036 442.158 247.293Z" fill="#18B4DB"/>
<path opacity="0.973" fill-rule="evenodd" clip-rule="evenodd" d="M424.527 228.734C425.821 236.922 426.749 245.273 427.311 253.788C414.32 253.788 401.329 253.788 388.338 253.788C388.603 245.435 388.912 237.083 389.266 228.734C401.02 228.734 412.773 228.734 424.527 228.734Z" fill="#438A91"/>
<path fill-rule="evenodd" clip-rule="evenodd" d="M419.887 247.293C424.527 246.365 426.383 248.221 425.455 252.861C420.389 253.722 418.533 251.866 419.887 247.293Z" fill="#18B4DB"/>
<path fill-rule="evenodd" clip-rule="evenodd" d="M412.464 247.293C414.32 247.293 416.176 247.293 418.032 247.293C418.032 249.149 418.032 251.004 418.032 252.86C416.176 252.86 414.32 252.86 412.464 252.86C412.464 251.004 412.464 249.149 412.464 247.293Z" fill="#18B4DB"/>
<path fill-rule="evenodd" clip-rule="evenodd" d="M405.041 247.293C409.331 246.279 411.031 247.826 410.144 251.932C404.966 254.022 403.266 252.475 405.041 247.293Z" fill="#18B4DB"/>
<path fill-rule="evenodd" clip-rule="evenodd" d="M397.617 247.293C399.473 247.293 401.329 247.293 403.185 247.293C403.333 248.869 403.179 250.416 402.721 251.932C397.225 253.704 395.524 252.157 397.617 247.293Z" fill="#18B4DB"/>
<path fill-rule="evenodd" clip-rule="evenodd" d="M390.193 247.293C394.483 246.279 396.184 247.826 395.297 251.932C390.124 254.026 388.423 252.48 390.193 247.293Z" fill="#18B4DB"/>
<path fill-rule="evenodd" clip-rule="evenodd" d="M418.96 241.725C420.815 241.725 422.671 241.725 424.527 241.725C424.527 243.272 424.527 244.818 424.527 246.365C420.409 247.362 418.553 245.815 418.96 241.725Z" fill="#18B4DB"/>
<path fill-rule="evenodd" clip-rule="evenodd" d="M411.536 241.725C413.701 241.725 415.867 241.725 418.031 241.725C418.346 246.124 416.49 247.361 412.464 245.437C411.772 244.29 411.463 243.052 411.536 241.725Z" fill="#18B4DB"/>
<path fill-rule="evenodd" clip-rule="evenodd" d="M405.04 241.725C406.896 241.725 408.752 241.725 410.608 241.725C410.608 243.272 410.608 244.818 410.608 246.365C408.752 246.365 406.896 246.365 405.04 246.365C405.04 244.818 405.04 243.272 405.04 241.725Z" fill="#18B4DB"/>
<path fill-rule="evenodd" clip-rule="evenodd" d="M397.617 241.725C399.473 241.725 401.329 241.725 403.185 241.725C403.185 243.272 403.185 244.818 403.185 246.365C401.329 246.365 399.473 246.365 397.617 246.365C397.617 244.818 397.617 243.272 397.617 241.725Z" fill="#18B4DB"/>
<path fill-rule="evenodd" clip-rule="evenodd" d="M390.194 241.725C392.049 241.725 393.905 241.725 395.761 241.725C395.761 243.272 395.761 244.818 395.761 246.365C393.905 246.365 392.049 246.365 390.194 246.365C390.194 244.818 390.194 243.272 390.194 241.725Z" fill="#18B4DB"/>
<path fill-rule="evenodd" clip-rule="evenodd" d="M418.959 236.158C420.815 236.158 422.671 236.158 424.527 236.158C424.527 237.395 424.527 238.633 424.527 239.87C422.671 239.87 420.815 239.87 418.959 239.87C418.959 238.633 418.959 237.395 418.959 236.158Z" fill="#18B4DB"/>
<path fill-rule="evenodd" clip-rule="evenodd" d="M411.536 236.158C413.392 236.158 415.248 236.158 417.104 236.158C417.104 237.395 417.104 238.633 417.104 239.87C415.248 239.87 413.392 239.87 411.536 239.87C411.536 238.633 411.536 237.395 411.536 236.158Z" fill="#18B4DB"/>
<path fill-rule="evenodd" clip-rule="evenodd" d="M405.04 236.158C406.896 236.158 408.752 236.158 410.608 236.158C410.608 237.395 410.608 238.633 410.608 239.87C408.752 239.87 406.896 239.87 405.04 239.87C405.04 238.633 405.04 237.395 405.04 236.158Z" fill="#18B4DB"/>
<path fill-rule="evenodd" clip-rule="evenodd" d="M397.617 236.158C399.473 236.158 401.329 236.158 403.185 236.158C403.185 237.395 403.185 238.633 403.185 239.87C401.329 239.87 399.473 239.87 397.617 239.87C397.617 238.633 397.617 237.395 397.617 236.158Z" fill="#18B4DB" fill-opacity="0.0941176"/>
<path fill-rule="evenodd" clip-rule="evenodd" d="M391.122 236.158C392.978 236.158 394.833 236.158 396.689 236.158C396.847 237.385 396.538 238.468 395.761 239.406C393.931 239.865 392.075 240.02 390.194 239.87C390.132 238.516 390.441 237.279 391.122 236.158Z" fill="#18B4DB"/>
<path fill-rule="evenodd" clip-rule="evenodd" d="M418.959 230.59C421.547 230.198 423.402 231.126 424.527 233.374C422.768 234.27 420.912 234.579 418.959 234.302C418.959 233.065 418.959 231.827 418.959 230.59Z" fill="#18B4DB"/>
<path fill-rule="evenodd" clip-rule="evenodd" d="M416.176 229.662C417.058 230.979 417.367 232.525 417.104 234.302C415.248 234.302 413.392 234.302 411.536 234.302C411.536 233.065 411.536 231.827 411.536 230.59C413.313 230.854 414.859 230.545 416.176 229.662Z" fill="#18B4DB"/>
<path fill-rule="evenodd" clip-rule="evenodd" d="M408.752 229.662C410.342 230.715 410.96 232.262 410.608 234.302C408.752 234.302 406.896 234.302 405.04 234.302C405.04 233.065 405.04 231.827 405.04 230.59C406.524 230.839 407.761 230.529 408.752 229.662Z" fill="#18B4DB"/>
<path fill-rule="evenodd" clip-rule="evenodd" d="M402.257 229.662C403.139 230.979 403.448 232.525 403.185 234.302C401.329 234.302 399.473 234.302 397.617 234.302C397.617 233.065 397.617 231.827 397.617 230.59C399.394 230.854 400.94 230.545 402.257 229.662Z" fill="#18B4DB"/>
<path fill-rule="evenodd" clip-rule="evenodd" d="M394.833 229.662C396.423 230.715 397.042 232.262 396.689 234.302C394.833 234.302 392.977 234.302 391.122 234.302C391.122 233.065 391.122 231.827 391.122 230.59C392.605 230.839 393.842 230.529 394.833 229.662Z" fill="#18B4DB"/>
<path opacity="0.973" fill-rule="evenodd" clip-rule="evenodd" d="M374.419 231.518C374.553 238.95 374.862 246.374 375.347 253.788C362.356 253.788 349.365 253.788 336.374 253.788C336.374 251.313 336.374 248.839 336.374 246.365C337.269 240.65 337.888 234.773 338.23 228.734C349.984 228.734 361.737 228.734 373.491 228.734C373.271 229.932 373.58 230.86 374.419 231.518Z" fill="#468B90"/>
<path fill-rule="evenodd" clip-rule="evenodd" d="M367.923 247.293C369.779 247.293 371.635 247.293 373.491 247.293C373.491 249.149 373.491 251.004 373.491 252.86C368.851 253.788 366.995 251.932 367.923 247.293Z" fill="#18B4DB"/>
<path fill-rule="evenodd" clip-rule="evenodd" d="M360.5 247.293C362.356 247.293 364.212 247.293 366.068 247.293C366.068 249.149 366.068 251.004 366.068 252.86C364.212 252.86 362.356 252.86 360.5 252.86C360.5 251.004 360.5 249.149 360.5 247.293Z" fill="#18B4DB"/>
<path fill-rule="evenodd" clip-rule="evenodd" d="M354.005 247.293C355.552 247.293 357.098 247.293 358.644 247.293C358.644 249.149 358.644 251.004 358.644 252.86C356.789 252.86 354.933 252.86 353.077 252.86C352.914 250.892 353.224 249.036 354.005 247.293Z" fill="#18B4DB" fill-opacity="0.705882"/>
<path fill-rule="evenodd" clip-rule="evenodd" d="M346.581 247.293C348.128 247.293 349.674 247.293 351.221 247.293C351.221 249.149 351.221 251.004 351.221 252.86C349.365 252.86 347.509 252.86 345.653 252.86C345.491 250.892 345.801 249.036 346.581 247.293Z" fill="#18B4DB"/>
<path fill-rule="evenodd" clip-rule="evenodd" d="M339.158 247.293C344.242 246.487 345.788 248.343 343.798 252.86C341.942 252.86 340.086 252.86 338.23 252.86C338.068 250.892 338.378 249.036 339.158 247.293Z" fill="#18B4DB"/>
<path fill-rule="evenodd" clip-rule="evenodd" d="M367.924 241.725C369.779 241.725 371.635 241.725 373.491 241.725C373.491 243.272 373.491 244.818 373.491 246.365C371.635 246.365 369.779 246.365 367.924 246.365C367.924 244.818 367.924 243.272 367.924 241.725Z" fill="#18B4DB"/>
<path fill-rule="evenodd" clip-rule="evenodd" d="M360.5 241.725C362.356 241.725 364.212 241.725 366.068 241.725C366.068 243.272 366.068 244.818 366.068 246.365C364.212 246.365 362.356 246.365 360.5 246.365C360.5 244.818 360.5 243.272 360.5 241.725Z" fill="#18B4DB"/>
<path fill-rule="evenodd" clip-rule="evenodd" d="M353.076 241.725C354.932 241.725 356.788 241.725 358.644 241.725C358.644 243.272 358.644 244.818 358.644 246.365C356.788 246.365 354.932 246.365 353.076 246.365C353.076 244.818 353.076 243.272 353.076 241.725Z" fill="#18B4DB"/>
<path fill-rule="evenodd" clip-rule="evenodd" d="M345.653 241.725C347.509 241.725 349.365 241.725 351.22 241.725C351.22 243.272 351.22 244.818 351.22 246.365C349.365 246.365 347.509 246.365 345.653 246.365C345.653 244.818 345.653 243.272 345.653 241.725Z" fill="#18B4DB"/>
<path fill-rule="evenodd" clip-rule="evenodd" d="M339.158 241.725C341.014 241.725 342.87 241.725 344.725 241.725C344.832 246.205 342.821 247.442 338.694 245.437C338.157 244.112 338.312 242.874 339.158 241.725Z" fill="#18B4DB"/>
<path fill-rule="evenodd" clip-rule="evenodd" d="M366.996 236.158C368.851 236.158 370.707 236.158 372.563 236.158C372.405 237.385 372.714 238.468 373.491 239.406C371.635 240.025 369.779 240.025 367.923 239.406C367.147 238.468 366.838 237.385 366.996 236.158Z" fill="#18B4DB"/>
<path fill-rule="evenodd" clip-rule="evenodd" d="M360.5 236.158C362.356 236.158 364.212 236.158 366.068 236.158C366.068 237.395 366.068 238.633 366.068 239.87C364.212 239.87 362.356 239.87 360.5 239.87C360.5 238.633 360.5 237.395 360.5 236.158Z" fill="#18B4DB"/>
<path fill-rule="evenodd" clip-rule="evenodd" d="M353.076 236.158C354.932 236.158 356.788 236.158 358.644 236.158C358.644 237.395 358.644 238.633 358.644 239.87C356.788 239.87 354.932 239.87 353.076 239.87C353.076 238.633 353.076 237.395 353.076 236.158Z" fill="#18B4DB"/>
<path fill-rule="evenodd" clip-rule="evenodd" d="M346.581 236.158C348.437 236.158 350.292 236.158 352.148 236.158C352.148 237.395 352.148 238.633 352.148 239.87C349.961 240.021 347.796 239.867 345.653 239.406C345.763 238.343 346.072 237.26 346.581 236.158Z" fill="#18B4DB"/>
<path fill-rule="evenodd" clip-rule="evenodd" d="M339.158 236.158C341.014 236.158 342.869 236.158 344.725 236.158C344.725 237.395 344.725 238.633 344.725 239.87C342.869 239.87 341.014 239.87 339.158 239.87C339.158 238.633 339.158 237.395 339.158 236.158Z" fill="#18B4DB"/>
<path fill-rule="evenodd" clip-rule="evenodd" d="M370.707 229.662C372.297 230.715 372.916 232.262 372.563 234.302C370.707 234.302 368.851 234.302 366.995 234.302C366.995 233.065 366.995 231.827 366.995 230.59C368.479 230.839 369.716 230.529 370.707 229.662Z" fill="#18B4DB"/>
<path fill-rule="evenodd" clip-rule="evenodd" d="M364.212 229.662C365.801 230.715 366.42 232.262 366.068 234.302C364.212 234.302 362.356 234.302 360.5 234.302C360.5 233.065 360.5 231.827 360.5 230.59C361.984 230.839 363.221 230.529 364.212 229.662Z" fill="#18B4DB"/>
<path fill-rule="evenodd" clip-rule="evenodd" d="M353.076 230.59C354.932 230.59 356.788 230.59 358.644 230.59C358.644 231.827 358.644 233.065 358.644 234.302C356.788 234.302 354.932 234.302 353.076 234.302C353.076 233.065 353.076 231.827 353.076 230.59Z" fill="#18B4DB"/>
<path fill-rule="evenodd" clip-rule="evenodd" d="M350.293 229.662C351.882 230.715 352.501 232.262 352.149 234.302C350.293 234.302 348.437 234.302 346.581 234.302C346.581 233.065 346.581 231.827 346.581 230.59C348.065 230.839 349.302 230.529 350.293 229.662Z" fill="#18B4DB"/>
<path fill-rule="evenodd" clip-rule="evenodd" d="M339.158 230.59C341.014 230.59 342.869 230.59 344.725 230.59C344.725 231.827 344.725 233.065 344.725 234.302C342.869 234.302 341.014 234.302 339.158 234.302C339.158 233.065 339.158 231.827 339.158 230.59Z" fill="#18B4DB"/>
<path fill-rule="evenodd" clip-rule="evenodd" d="M480.203 253.788C479.584 253.788 478.966 253.788 478.347 253.788C478.157 245.511 477.538 237.315 476.491 229.198C464.742 228.734 452.988 228.579 441.23 228.734C440.961 234.781 440.342 240.658 439.374 246.365C439.065 246.365 438.755 246.365 438.446 246.365C438.842 239.84 439.461 233.344 440.302 226.878C452.678 226.723 465.051 226.878 477.419 227.342C478.829 236.065 479.757 244.88 480.203 253.788Z" fill="#18B4DB"/>
<path fill-rule="evenodd" clip-rule="evenodd" d="M470.923 241.725C472.779 241.725 474.635 241.725 476.491 241.725C476.491 243.272 476.491 244.818 476.491 246.365C474.635 246.365 472.779 246.365 470.923 246.365C470.923 244.818 470.923 243.272 470.923 241.725Z" fill="#18B4DB"/>
<path fill-rule="evenodd" clip-rule="evenodd" d="M463.5 241.725C465.356 241.725 467.212 241.725 469.068 241.725C469.068 243.272 469.068 244.818 469.068 246.365C467.212 246.365 465.356 246.365 463.5 246.365C463.5 244.818 463.5 243.272 463.5 241.725Z" fill="#18B4DB"/>
<path fill-rule="evenodd" clip-rule="evenodd" d="M456.077 241.725C457.933 241.725 459.788 241.725 461.644 241.725C461.644 243.272 461.644 244.818 461.644 246.365C459.788 246.365 457.933 246.365 456.077 246.365C456.077 244.818 456.077 243.272 456.077 241.725Z" fill="#18B4DB"/>
<path fill-rule="evenodd" clip-rule="evenodd" d="M448.653 241.725C450.509 241.725 452.365 241.725 454.22 241.725C454.22 243.272 454.22 244.818 454.22 246.365C450.102 247.362 448.246 245.815 448.653 241.725Z" fill="#18B4DB" fill-opacity="0.705882"/>
<path fill-rule="evenodd" clip-rule="evenodd" d="M442.157 241.725C444.013 241.725 445.869 241.725 447.725 241.725C447.832 246.205 445.821 247.442 441.693 245.437C441.513 244.213 441.668 242.975 442.157 241.725Z" fill="#18B4DB"/>
<path fill-rule="evenodd" clip-rule="evenodd" d="M469.995 236.158C471.851 236.158 473.707 236.158 475.563 236.158C475.405 237.385 475.714 238.468 476.491 239.406C474.635 240.025 472.779 240.025 470.923 239.406C470.147 238.468 469.838 237.385 469.995 236.158Z" fill="#18B4DB"/>
<path fill-rule="evenodd" clip-rule="evenodd" d="M463.5 236.158C465.356 236.158 467.212 236.158 469.068 236.158C469.068 237.395 469.068 238.633 469.068 239.87C467.212 239.87 465.356 239.87 463.5 239.87C463.5 238.633 463.5 237.395 463.5 236.158Z" fill="#18B4DB" fill-opacity="0.0941176"/>
<path fill-rule="evenodd" clip-rule="evenodd" d="M456.077 236.158C457.933 236.158 459.788 236.158 461.644 236.158C461.644 237.395 461.644 238.633 461.644 239.87C459.788 239.87 457.933 239.87 456.077 239.87C456.077 238.633 456.077 237.395 456.077 236.158Z" fill="#18B4DB"/>
<path fill-rule="evenodd" clip-rule="evenodd" d="M449.581 236.158C451.437 236.158 453.293 236.158 455.148 236.158C455.148 237.395 455.148 238.633 455.148 239.87C453.293 239.87 451.437 239.87 449.581 239.87C449.581 238.633 449.581 237.395 449.581 236.158Z" fill="#18B4DB"/>
<path fill-rule="evenodd" clip-rule="evenodd" d="M442.157 236.158C444.013 236.158 445.869 236.158 447.725 236.158C447.725 237.395 447.725 238.633 447.725 239.87C445.869 239.87 444.013 239.87 442.157 239.87C442.157 238.633 442.157 237.395 442.157 236.158Z" fill="#18B4DB"/>
<path fill-rule="evenodd" clip-rule="evenodd" d="M473.707 229.662C475.296 230.715 475.915 232.262 475.563 234.302C473.707 234.302 471.851 234.302 469.995 234.302C469.995 233.065 469.995 231.827 469.995 230.59C471.479 230.839 472.716 230.529 473.707 229.662Z" fill="#18B4DB"/>
<path fill-rule="evenodd" clip-rule="evenodd" d="M467.212 229.662C468.801 230.715 469.42 232.262 469.068 234.302C467.212 234.302 465.356 234.302 463.5 234.302C463.5 233.065 463.5 231.827 463.5 230.59C464.984 230.839 466.221 230.529 467.212 229.662Z" fill="#18B4DB"/>
<path fill-rule="evenodd" clip-rule="evenodd" d="M456.077 230.59C457.933 230.59 459.788 230.59 461.644 230.59C461.644 231.827 461.644 233.065 461.644 234.302C459.788 234.302 457.933 234.302 456.077 234.302C456.077 233.065 456.077 231.827 456.077 230.59Z" fill="#18B4DB"/>
<path fill-rule="evenodd" clip-rule="evenodd" d="M453.293 229.662C454.882 230.715 455.501 232.262 455.148 234.302C453.293 234.302 451.437 234.302 449.581 234.302C449.581 233.065 449.581 231.827 449.581 230.59C451.065 230.839 452.301 230.529 453.293 229.662Z" fill="#18B4DB"/>
<path fill-rule="evenodd" clip-rule="evenodd" d="M446.797 229.662C447.68 230.979 447.989 232.525 447.725 234.302C445.869 234.302 444.013 234.302 442.157 234.302C442.157 233.065 442.157 231.827 442.157 230.59C443.934 230.854 445.48 230.545 446.797 229.662Z" fill="#18B4DB"/>
<path fill-rule="evenodd" clip-rule="evenodd" d="M375.347 229.662C374.569 229.98 374.259 230.598 374.419 231.518C373.58 230.86 373.271 229.932 373.491 228.735C361.737 228.735 349.984 228.735 338.23 228.735C337.888 234.773 337.269 240.651 336.374 246.365C336.374 245.746 336.065 245.437 335.446 245.437C335.735 239.329 336.353 233.297 337.302 227.343C349.674 226.724 362.047 226.724 374.419 227.343C375.117 227.965 375.427 228.738 375.347 229.662Z" fill="#18B4DB"/>
<path opacity="0.69" fill-rule="evenodd" clip-rule="evenodd" d="M1280.08 252.86C1280.04 254.026 1280.5 254.954 1281.47 255.644C1286.25 254.545 1291.04 254.545 1295.85 255.644C1290.46 256.563 1284.89 256.872 1279.15 256.572C1278.9 255.088 1279.21 253.851 1280.08 252.86Z" fill="#226174"/>
<path opacity="0.69" fill-rule="evenodd" clip-rule="evenodd" d="M1298.64 250.076C1304.2 250.076 1309.77 250.076 1315.34 250.076C1316.15 252.134 1316.45 254.298 1316.27 256.572C1310.08 256.572 1303.9 256.572 1297.71 256.572C1297.46 255.088 1297.77 253.851 1298.64 252.86C1298.5 253.836 1298.65 254.764 1299.1 255.644C1304.49 255.285 1309.74 255.285 1314.87 255.644C1315.32 254.764 1315.48 253.836 1315.34 252.86C1309.63 252.092 1303.75 251.628 1297.71 251.468C1298.23 251.113 1298.53 250.649 1298.64 250.076ZM1298.64 252.86C1304.2 252.86 1309.77 252.86 1315.34 252.86C1315.48 253.836 1315.32 254.764 1314.87 255.644C1309.74 255.285 1304.49 255.285 1299.1 255.644C1298.65 254.764 1298.5 253.836 1298.64 252.86Z" fill="#207187"/>
<path fill-rule="evenodd" clip-rule="evenodd" d="M354.932 260.284C356.09 261.058 356.709 262.295 356.788 263.995C356.479 265.232 356.169 266.47 355.86 267.707C354.951 265.307 354.642 262.833 354.932 260.284Z" fill="#1BCBF5"/>
<path fill-rule="evenodd" clip-rule="evenodd" d="M405.968 260.284C406.896 260.284 407.824 260.284 408.752 260.284C408.752 262.758 408.752 265.232 408.752 267.707C407.824 267.707 406.896 267.707 405.968 267.707C405.968 265.232 405.968 262.758 405.968 260.284Z" fill="#18B4DB"/>
<path fill-rule="evenodd" clip-rule="evenodd" d="M456.077 260.284C456.696 260.284 457.314 260.284 457.933 260.284C457.933 262.758 457.933 265.232 457.933 267.707C457.314 267.707 456.696 267.707 456.077 267.707C456.077 265.232 456.077 262.758 456.077 260.284Z" fill="#719F7D"/>
<path fill-rule="evenodd" clip-rule="evenodd" d="M457.932 260.284C458.86 260.284 459.788 260.284 460.716 260.284C460.716 262.758 460.716 265.232 460.716 267.707C459.788 267.707 458.86 267.707 457.932 267.707C457.932 265.232 457.932 262.758 457.932 260.284Z" fill="#18B4DB"/>
<path opacity="0.596" fill-rule="evenodd" clip-rule="evenodd" d="M221.311 248.221C221.311 254.716 221.311 261.212 221.311 267.707C233.683 267.707 246.056 267.707 258.428 267.707C245.91 268.631 233.229 268.94 220.383 268.635C220.081 261.658 220.39 254.854 221.311 248.221Z" fill="#1ABDE5"/>
<path opacity="0.596" fill-rule="evenodd" clip-rule="evenodd" d="M845.806 266.779C877.197 267.705 908.747 268.015 940.455 267.707C925.366 268.332 909.591 268.642 893.131 268.635C877.047 268.326 860.962 268.016 844.878 267.707C844.993 267.144 845.302 266.835 845.806 266.779Z" fill="#18B4DB"/>
<path opacity="0.596" fill-rule="evenodd" clip-rule="evenodd" d="M979.428 267.707C994.896 267.707 1010.36 267.707 1025.82 267.707C1025.82 257.5 1025.82 247.293 1025.82 237.085C1026.75 246.908 1027.06 257.424 1026.75 268.635C1010.82 268.941 995.045 268.632 979.428 267.707Z" fill="#1ABDE6"/>
</g>
<defs>
<clipPath id="clip0_187_2828">
<rect width="1484.68" height="309" fill="white"/>
</clipPath>
</defs>
</svg>
