<svg width="768" height="347" viewBox="0 0 768 347" fill="none" xmlns="http://www.w3.org/2000/svg">
<g clip-path="url(#clip0_244_8094)">
<path opacity="0.941" fill-rule="evenodd" clip-rule="evenodd" d="M354.562 113.135C355.926 114.047 356.655 115.504 356.748 117.508C356.384 118.965 356.019 120.423 355.655 121.88C354.583 119.054 354.219 116.138 354.562 113.135Z" fill="#197D96"/>
<path opacity="0.973" fill-rule="evenodd" clip-rule="evenodd" d="M340.352 127.345C343.519 126.935 346.433 127.482 349.097 128.985C346.414 130.668 343.499 131.033 340.352 130.078C339.152 129.236 339.152 128.326 340.352 127.345Z" fill="#1B86A1"/>
<path opacity="0.973" fill-rule="evenodd" clip-rule="evenodd" d="M363.307 127.345C366.474 126.935 369.388 127.482 372.052 128.985C369.368 130.668 366.454 131.033 363.307 130.078C362.107 129.236 362.107 128.326 363.307 127.345Z" fill="#1C88A3"/>
<path opacity="0.973" fill-rule="evenodd" clip-rule="evenodd" d="M166.55 155.766C163.699 158.397 164.063 160.765 167.643 162.871C166.51 164.949 165.236 166.954 163.817 168.883C159.939 165.558 155.749 163.736 151.246 163.418C149.998 161.305 148.177 159.665 145.781 158.499C134.346 152.342 123.05 145.966 111.895 139.37C111.531 140.463 111.166 141.556 110.802 142.649C111.478 158.85 112.207 174.882 112.988 190.745C111.912 209.244 111.548 227.826 111.895 246.493C112.242 251.086 111.877 255.458 110.802 259.61C110.667 238.108 110.303 216.61 109.709 195.118C108.975 176.546 108.429 157.963 108.069 139.37C106.976 140.827 105.883 140.827 104.79 139.37C104.566 159.807 104.019 180.212 103.15 200.583C102.725 214.734 102.361 230.402 102.057 247.586C101.141 247.212 100.776 246.484 100.964 245.4C100.307 238.516 100.307 230.499 100.964 221.352C100.957 215.831 100.229 210.73 98.778 206.049C100.473 193.421 101.203 180.668 100.964 167.79C100.6 158.316 100.235 148.844 99.8711 139.37C98.8021 139.891 97.8915 140.619 97.1384 141.556C95.9087 145.262 94.269 148.723 92.2195 151.94C82.0297 155.583 71.8278 159.226 61.6129 162.871C62.4917 164.807 63.7673 166.447 65.4387 167.79C66.2574 169.031 66.076 170.124 64.8921 171.07C62.4961 169.584 60.6739 167.58 59.4267 165.058C57.8482 164.204 56.3912 164.386 55.0543 165.604C58.2691 170.462 62.0949 174.834 66.5318 178.721C67.1778 179.796 66.8127 180.525 65.4387 180.907C60.3263 177.435 56.1365 173.062 52.8681 167.79C51.0809 166.499 49.2587 166.499 47.4026 167.79C45.2602 165.833 43.8031 163.465 43.0303 160.685C60.7001 150.576 78.1896 140.192 95.4987 129.532C97.4772 125.759 99.2983 121.933 100.964 118.055C100.64 114.087 98.6359 111.354 94.9522 109.856C94.7697 108.217 94.5882 106.577 94.4057 104.937C96.3186 94.9218 98.1397 84.9019 99.8711 74.8773C97.2258 74.6504 94.6756 75.0148 92.2195 75.9704C91.3362 75.6342 90.6072 75.0876 90.0333 74.3308C93.3126 72.1413 96.9558 71.2303 100.964 71.5981C100.964 70.505 100.964 69.4119 100.964 68.3188C94.95 68.4708 89.1205 69.5639 83.4747 71.5981C82.5062 70.6963 82.1422 69.6032 82.3816 68.3188C88.8484 66.5203 95.4069 65.0628 102.057 63.9464C102.873 62.5951 103.237 61.1377 103.15 59.574C106.066 59.574 108.98 59.574 111.895 59.574C111.713 79.9816 111.895 100.386 112.442 120.787C115.538 123.341 116.814 126.62 116.268 130.625C118.436 130.497 120.257 131.226 121.733 132.811C125.561 130.885 129.568 130.339 133.757 131.172C141.247 138.116 148.899 144.856 156.712 151.394C158.098 149.422 158.827 147.236 158.898 144.835C159.991 144.835 161.084 144.835 162.177 144.835C161.714 147.955 160.621 150.87 158.898 153.58C159.709 154.44 160.62 155.168 161.631 155.766C164.332 150.058 166.7 144.229 168.736 138.277C170.065 144.331 168.972 149.979 165.457 155.22C165.706 155.656 166.071 155.837 166.55 155.766ZM94.4057 133.904C96.4377 133.862 97.8948 134.772 98.778 136.637C96.8258 137.495 95.1861 138.77 93.8591 140.463C93.1552 143.861 91.8795 146.959 90.0333 149.754C77.3468 154.293 64.5937 158.665 51.775 162.871C50.1966 163.725 48.7395 163.542 47.4026 162.325C62.9541 152.55 78.6225 143.077 94.4057 133.904ZM103.15 122.973C113.5 122.738 116.05 126.928 110.802 135.544C104.604 138.029 100.596 136.024 98.778 129.532C99.1781 126.519 100.636 124.333 103.15 122.973ZM105.337 62.8533C106.43 62.8533 107.523 62.8533 108.616 62.8533C108.616 81.8002 108.616 100.747 108.616 119.694C107.159 119.694 105.701 119.694 104.243 119.694C104.44 114.942 102.437 111.298 98.2315 108.763C98.0489 107.67 97.8675 106.577 97.6849 105.484C100.414 91.2921 102.965 77.0819 105.337 62.8533ZM159.991 159.046C158.779 159.108 157.686 159.472 156.712 160.139C153.224 159.491 149.945 158.216 146.874 156.313C135.943 149.754 125.012 143.196 114.081 136.637C114.626 135.371 115.536 134.461 116.814 133.904C120.995 135.319 125.186 135.319 129.385 133.904C130.956 134.144 132.414 134.69 133.757 135.544C142.742 143.262 151.487 151.095 159.991 159.046ZM109.709 195.118C106.851 196.156 104.664 197.978 103.15 200.583C104.019 180.212 104.566 159.807 104.79 139.37C105.883 140.827 106.976 140.827 108.069 139.37C108.429 157.963 108.975 176.546 109.709 195.118Z" fill="#218BA4"/>
<path opacity="0.941" fill-rule="evenodd" clip-rule="evenodd" d="M354.562 136.09C356.23 137.175 356.959 138.814 356.748 141.009C356.384 142.285 356.019 143.559 355.655 144.835C354.583 142.008 354.219 139.093 354.562 136.09Z" fill="#158BA8"/>
<path fill-rule="evenodd" clip-rule="evenodd" d="M396.099 255.237C388.413 269.671 391.327 281.331 404.844 290.216C406.213 298.529 406.942 306.91 407.03 315.357C394.731 316.425 382.342 316.791 369.865 316.451C369.865 312.807 369.865 309.163 369.865 305.52C380.091 303.855 385.556 297.843 386.262 287.484C385.441 276.642 379.61 270.63 368.772 269.448C352.602 273.002 347.683 282.476 354.015 297.868C357.387 302.56 361.941 305.11 367.679 305.52C367.989 309.102 367.625 312.562 366.586 315.904C344.362 316.451 322.136 316.633 299.907 316.451C298.474 311.96 298.839 307.588 301 303.333C308.288 303.333 315.574 303.333 322.862 303.333C321.889 290.933 320.796 278.544 319.583 266.168C303.55 266.168 287.519 266.168 271.487 266.168C270.852 278.255 269.759 290.279 268.207 302.24C275.468 303.149 282.755 303.695 290.069 303.88C290.688 304.968 291.417 305.878 292.256 306.613C292.256 309.528 292.256 312.442 292.256 315.357C274.847 316.615 257.357 316.797 239.787 315.904C238.544 311.768 238.544 307.577 239.787 303.333C247.075 303.333 254.361 303.333 261.649 303.333C261.024 291.243 260.295 278.854 259.463 266.168C243.414 265.804 227.383 266.169 211.367 267.261C209.816 279.223 208.722 291.247 208.087 303.333C215.375 303.333 222.662 303.333 229.949 303.333C229.727 305.399 230.455 307.039 232.135 308.252C231.108 310.335 230.744 312.703 231.042 315.357C213.3 316.805 195.629 316.805 178.027 315.357C177.012 311.265 177.558 307.439 179.667 303.88C186.945 303.333 194.232 303.152 201.529 303.333C200.324 290.954 199.231 278.566 198.25 266.168C182.217 266.168 166.186 266.168 150.153 266.168C149.301 278.589 148.208 290.977 146.874 303.333C154.171 303.152 161.458 303.333 168.736 303.88C171.084 307.719 171.448 311.727 169.829 315.904C151.25 316.451 132.667 316.633 114.081 316.451C113.594 303.033 113.229 288.094 112.988 271.634C113.344 263.051 112.98 254.671 111.895 246.493C111.548 227.826 111.912 209.243 112.988 190.745C124.213 179.523 136.966 170.413 151.247 163.418C155.749 163.736 159.939 165.558 163.817 168.883C165.236 166.954 166.51 164.949 167.643 162.871C164.063 160.765 163.699 158.397 166.55 155.766C242.987 128.7 309.119 144.368 364.946 202.769C377.864 218.771 388.249 236.26 396.099 255.237Z" fill="#24DCFC"/>
<path fill-rule="evenodd" clip-rule="evenodd" d="M159.992 159.046C163.584 159.857 165.042 161.861 164.365 165.058C161.353 164.692 158.438 163.599 155.62 161.779C156.228 161.36 156.592 160.813 156.713 160.139C157.687 159.472 158.78 159.108 159.992 159.046Z" fill="#18B4DB"/>
<path opacity="0.69" fill-rule="evenodd" clip-rule="evenodd" d="M503.222 177.628C500.069 177.293 497.154 177.657 494.478 178.721C493.884 178.655 493.52 178.291 493.385 177.628C494.684 176.612 496.141 176.248 497.757 176.535C497.518 175.25 497.882 174.157 498.85 173.255C499.997 175.131 501.454 176.588 503.222 177.628Z" fill="#1C96B5"/>
<path opacity="0.247" fill-rule="evenodd" clip-rule="evenodd" d="M14.6097 220.258C13.5209 205.877 13.1569 191.302 13.5166 176.534C10.9084 176.271 8.72226 176.999 6.95801 178.72C6.95801 177.627 6.95801 176.534 6.95801 175.441C9.50819 175.441 12.0595 175.441 14.6097 175.441C14.6097 190.38 14.6097 205.319 14.6097 220.258Z" fill="#1CCFF9"/>
<path fill-rule="evenodd" clip-rule="evenodd" d="M109.708 195.117C110.302 216.609 110.666 238.107 110.801 259.609C110.455 264.202 110.82 268.575 111.895 272.726C111.544 285.502 111.544 299.713 111.895 315.357C108.251 315.357 104.607 315.357 100.964 315.357C100.964 300.783 100.964 286.207 100.964 271.633C102.048 263.82 102.412 255.804 102.057 247.585C102.361 230.401 102.725 214.733 103.15 200.582C104.664 197.977 106.85 196.155 109.708 195.117Z" fill="#18B4DB"/>
<path fill-rule="evenodd" clip-rule="evenodd" d="M98.7781 206.048C100.229 210.73 100.957 215.83 100.964 221.352C100.307 230.499 100.307 238.515 100.964 245.4C99.8876 249.919 99.5236 254.656 99.8712 259.61C99.8493 278.565 99.4853 297.512 98.7781 316.451C85.5735 316.792 72.4564 316.428 59.4268 315.358C59.7897 274.18 72.9068 237.743 98.7781 206.048Z" fill="#1BCBF5"/>
<path fill-rule="evenodd" clip-rule="evenodd" d="M100.964 245.4C100.776 246.484 101.141 247.212 102.057 247.586C102.413 255.805 102.049 263.82 100.964 271.634C101.309 267.403 100.945 263.394 99.8712 259.61C99.5236 254.656 99.8876 249.919 100.964 245.4Z" fill="#719F7D"/>
<path fill-rule="evenodd" clip-rule="evenodd" d="M111.895 246.492C112.98 254.671 113.344 263.051 112.988 271.634C112.259 271.634 111.895 271.998 111.895 272.727C110.821 268.575 110.456 264.203 110.802 259.61C111.877 255.458 112.242 251.086 111.895 246.492Z" fill="#719F7D"/>
<path opacity="0.973" fill-rule="evenodd" clip-rule="evenodd" d="M6.95886 178.721C8.72311 177 10.9093 176.272 13.5174 176.535C13.1578 191.303 13.5218 205.878 14.6105 220.259C16.7388 222.134 18.197 224.503 18.9829 227.364C22.6513 227.599 26.2946 227.599 29.9138 227.364C35.5618 232.283 41.2087 237.202 46.8568 242.121C47.141 239.805 48.2341 237.984 50.136 236.655C50.6826 237.202 51.2291 237.748 51.7757 238.295C50.3087 240.497 49.7622 242.866 50.136 245.4C52.4053 241.691 53.6798 237.683 53.9619 233.376C55.055 233.376 56.1481 233.376 57.2411 233.376C56.4946 237.819 55.4015 242.192 53.9619 246.493C53.9936 248.164 54.7227 249.44 56.1481 250.319C55.6387 252.639 54.363 254.279 52.3222 255.238C39.6653 248.771 27.2773 241.848 15.1571 234.469C14.7843 254.929 14.9669 274.24 15.7036 292.403C14.6193 300.216 14.2552 308.232 14.6105 316.451C29.7433 316.811 44.6815 316.447 59.4273 315.358C72.457 316.428 85.5741 316.792 98.7787 316.451C165.273 317.543 231.951 317.907 298.815 317.544C617.998 317.544 937.181 317.544 1256.36 317.544C1338.71 317.544 1421.06 317.544 1503.4 317.544C1503.4 317.908 1503.4 318.273 1503.4 318.637C920.424 318.637 337.437 318.637 -245.546 318.637C-245.546 317.544 -245.546 316.451 -245.546 315.358C-228.056 315.358 -210.567 315.358 -193.077 315.358C-193.077 296.046 -193.077 276.736 -193.077 257.424C-190.698 257.518 -188.511 258.247 -186.519 259.61C-184.912 245.362 -183.09 231.151 -181.053 216.979C-178.138 216.979 -175.223 216.979 -172.308 216.979C-172.318 215.003 -171.771 213.181 -170.669 211.514C-168.254 209.467 -166.25 207.098 -164.657 204.409C-156.112 203.523 -150.829 198.969 -148.807 190.745C-139.051 187.193 -133.951 180.269 -133.504 169.976C-133.051 169.477 -132.505 169.112 -131.864 168.883C-129.76 177.321 -132.31 184.061 -139.516 189.106C-141.971 190.241 -144.339 191.517 -146.621 192.931C-148.628 201.15 -153.911 205.705 -162.471 206.595C-163.225 207.761 -163.772 209.037 -164.11 210.421C-167.207 212.061 -169.576 214.429 -171.215 217.526C-170.669 218.073 -170.122 218.619 -169.576 219.166C-167.925 236.016 -165.739 252.777 -163.017 269.448C-162.826 265.391 -162.28 261.383 -161.377 257.424C-152.969 260.627 -144.771 264.27 -136.783 268.355C-136.238 264.729 -136.056 261.086 -136.236 257.424C-134.461 257.577 -133.187 256.848 -132.411 255.238C-130.66 248.529 -128.474 241.971 -125.852 235.562C-125.307 230.474 -125.124 225.373 -125.305 220.259C-112.532 220.622 -99.7795 220.258 -87.0471 219.166C-81.5751 215.148 -78.6598 209.683 -78.3024 202.769C-70.3414 203.561 -65.969 199.917 -65.1853 191.838C-51.3413 191.117 -43.3256 183.83 -41.1372 169.976C-39.8037 170.399 -39.0746 171.31 -38.951 172.709C-41.7472 185.89 -49.7628 193.724 -62.9991 196.211C-64.9208 202.881 -69.2931 206.16 -76.1162 206.049C-75.9752 212.145 -78.5254 216.7 -83.7679 219.712C-82.8836 225.633 -82.337 231.645 -82.1282 237.748C-73.6819 263.27 -65.1186 288.776 -56.4405 314.265C-36.0489 315.358 -15.6452 315.722 4.77267 315.358C6.04504 288.396 6.04504 261.432 4.77267 234.469C3.25656 237.739 1.43437 240.836 -0.69278 243.76C-7.65251 246.321 -14.5751 248.873 -21.4616 251.412C-20.504 253.146 -19.4109 254.785 -18.1823 256.331C-18.7288 256.695 -19.2754 257.06 -19.8219 257.424C-21.6201 255.626 -23.4422 253.804 -25.2874 251.958C-25.8339 252.505 -26.3805 253.052 -26.927 253.598C-24.1943 256.331 -21.4616 259.064 -18.7288 261.796C-18.1134 263.135 -18.4774 264.228 -19.8219 265.076C-23.3242 261.939 -26.4209 258.479 -29.1132 254.691C-32.8778 254.57 -35.428 252.749 -36.7649 249.226C-24.0478 241.771 -11.2947 234.302 1.49339 226.817C2.50888 223.634 3.96597 220.719 5.86577 218.073C4.28079 215.206 2.4586 212.474 0.400299 209.874C2.12083 202.448 3.57793 194.979 4.77267 187.466C2.47281 187.793 0.286621 187.429 -1.78587 186.373C0.381729 184.707 2.93192 183.614 5.86577 183.094C5.31923 182.73 4.77267 182.364 4.22614 182C0.0548859 183.609 -4.13493 183.973 -8.34444 183.094C-7.38142 181.486 -5.92433 180.575 -3.97206 180.361C-0.372513 179.458 3.27077 178.911 6.95886 178.721ZM-124.212 237.748C-111.189 237.397 -98.2546 237.761 -85.4075 238.841C-76.5119 264.251 -67.9497 289.758 -59.7198 315.358C-75.0231 315.358 -90.3264 315.358 -105.63 315.358C-105.266 300.401 -105.631 285.462 -106.723 270.541C-115.116 267.074 -123.131 263.065 -130.771 258.517C-127.701 251.859 -125.515 244.936 -124.212 237.748ZM9.14505 235.562C9.21063 234.968 9.57463 234.604 10.2381 234.469C11.5214 261.417 12.2505 288.38 12.4243 315.358C10.9672 315.358 9.50905 315.358 8.05196 315.358C8.3777 288.861 9.1068 262.446 10.2381 236.109C9.98892 235.672 9.62383 235.491 9.14505 235.562ZM16.7967 230.097C20.7745 231.085 24.7817 231.267 28.8207 230.643C35.9728 236.204 42.8954 242.034 49.5895 248.133C51.2368 249.048 51.7833 250.323 51.2291 251.958C40.2053 245.444 29.0918 239.068 17.8898 232.829C17.0678 232.096 16.7027 231.185 16.7967 230.097ZM1.49339 230.097C2.45094 229.953 3.18004 230.317 3.67958 231.19C0.956696 233.886 -0.500397 237.166 -0.69278 241.027C-11.3144 244.269 -21.8813 247.365 -32.3925 250.319C-21.197 243.292 -9.9021 236.551 1.49339 230.097ZM-85.9541 223.538C-85.9541 227.181 -85.9541 230.826 -85.9541 234.469C-98.3421 234.469 -110.731 234.469 -123.119 234.469C-123.119 230.826 -123.119 227.181 -123.119 223.538C-110.731 223.538 -98.3421 223.538 -85.9541 223.538ZM9.14505 221.352C17.0645 224.095 17.4296 227.375 10.2381 231.19C6.39702 230.1 5.12137 227.55 6.41232 223.538C7.49994 222.919 8.41049 222.19 9.14505 221.352ZM-178.867 220.259C-176.717 219.997 -174.713 220.361 -172.855 221.352C-170.406 236.208 -168.766 251.147 -167.936 266.169C-173.852 265.211 -178.953 262.842 -183.239 259.064C-181.314 246.185 -179.856 233.249 -178.867 220.259ZM10.2381 177.628C11.6865 190.934 11.6865 204.415 10.2381 218.073C8.68376 214.874 6.49757 212.141 3.67958 209.874C5.79034 199.138 7.97653 188.39 10.2381 177.628ZM-189.798 261.796C-179.802 266.068 -169.6 269.711 -159.191 272.727C-159.372 269.065 -159.189 265.422 -158.645 261.796C-150.399 265.281 -142.201 268.924 -134.05 272.727C-133.149 269.136 -132.603 265.493 -132.411 261.796C-125.023 265.398 -117.554 268.86 -110.002 272.181C-108.921 286.486 -108.556 300.879 -108.909 315.358C-112.917 315.358 -116.925 315.358 -120.933 315.358C-120.933 311.715 -120.933 308.07 -120.933 304.427C-124.576 304.427 -128.221 304.427 -131.864 304.427C-131.864 308.07 -131.864 311.715 -131.864 315.358C-151.175 315.358 -170.487 315.358 -189.798 315.358C-189.798 297.504 -189.798 279.65 -189.798 261.796ZM-120.933 281.472C-120.933 283.658 -120.933 285.844 -120.933 288.03C-124.087 287.696 -127.002 288.06 -129.678 289.124C-130.736 286.82 -131.101 284.269 -130.771 281.472C-127.492 281.472 -124.212 281.472 -120.933 281.472ZM-169.029 281.472C-165.75 281.472 -162.471 281.472 -159.191 281.472C-159.191 283.658 -159.191 285.844 -159.191 288.03C-162.413 287.728 -165.51 288.092 -168.483 289.124C-169.025 286.599 -169.208 284.048 -169.029 281.472ZM-149.353 281.472C-146.074 281.472 -142.795 281.472 -139.516 281.472C-139.516 283.658 -139.516 285.844 -139.516 288.03C-142.795 288.03 -146.074 288.03 -149.353 288.03C-149.353 285.844 -149.353 283.658 -149.353 281.472ZM-128.585 307.706C-127.128 307.706 -125.669 307.706 -124.212 307.706C-123.876 310.356 -124.241 312.906 -125.305 315.358C-126.317 314.111 -127.228 314.111 -128.038 315.358C-128.581 312.833 -128.763 310.283 -128.585 307.706Z" fill="#1A9DBD"/>
<path opacity="0.973" fill-rule="evenodd" clip-rule="evenodd" d="M1226.85 112.042C1228.02 113.063 1229.47 113.428 1231.22 113.135C1230.86 180.728 1231.22 248.134 1232.32 315.357C1240.33 316.086 1248.35 316.814 1256.36 317.543C937.181 317.543 617.998 317.543 298.815 317.543C298.815 316.814 299.179 316.45 299.908 316.45C322.137 316.633 344.363 316.45 366.587 315.904C367.626 312.562 367.99 309.101 367.68 305.519C368.483 308.522 369.212 312.165 369.866 316.45C382.343 316.79 394.732 316.425 407.031 315.357C408.582 316.397 410.403 316.761 412.497 316.45C412.497 307.706 412.497 298.961 412.497 290.216C410.674 290.216 408.853 290.216 407.031 290.216C406.302 290.216 405.574 290.216 404.845 290.216C391.328 281.33 388.414 269.67 396.1 255.237C408.211 244.73 420.053 245.095 431.626 256.33C438.877 271.52 435.052 282.997 420.148 290.763C418.362 291.303 416.54 291.484 414.683 291.309C414.683 299.325 414.683 307.342 414.683 315.357C438.378 315.721 462.062 315.357 485.734 314.264C492.336 295.731 499.26 277.33 506.503 259.063C502.276 254.47 497.722 250.28 492.839 246.492C492.295 243.233 492.112 239.954 492.292 236.655C486.706 235.931 486.706 234.656 492.292 232.829C487.845 231.79 487.298 230.151 490.653 227.91C491.017 228.274 491.382 228.639 491.746 229.003C492.274 227.967 492.455 226.874 492.292 225.724C493.386 225.724 494.479 225.724 495.572 225.724C495.409 226.874 495.59 227.967 496.118 229.003C497.355 227.796 498.266 228.16 498.851 230.096C498.206 231.516 497.113 232.426 495.572 232.829C499.701 234.621 499.701 235.897 495.572 236.655C495.572 238.477 495.572 240.298 495.572 242.12C499.215 242.12 502.859 242.12 506.503 242.12C506.685 228.269 506.503 214.423 505.956 200.582C503.083 198.805 500.533 196.619 498.304 194.024C497.76 190.764 497.578 187.485 497.758 184.186C492.08 183.703 492.08 182.61 497.758 180.907C496.553 180.168 495.46 179.44 494.479 178.721C497.155 177.657 500.07 177.293 503.223 177.628C503.702 177.556 504.067 177.738 504.316 178.174C502.859 179.267 501.401 180.36 499.944 181.453C505.774 182.546 505.774 183.64 499.944 184.733C500.934 186.59 501.298 188.595 501.037 190.745C503.337 191.071 505.523 190.707 507.596 189.652C511.284 179.133 515.292 168.748 519.62 158.498C517.095 157.955 514.545 157.774 511.968 157.952C512.174 159.704 511.627 161.162 510.328 162.324C508.851 160.035 508.304 157.485 508.689 154.673C525.09 154.49 541.486 154.673 557.878 155.219C559.417 157.724 559.235 160.093 557.331 162.324C556.033 161.162 555.486 159.704 555.692 157.952C553.295 156.534 550.743 156.534 548.04 157.952C548.176 158.615 548.54 158.979 549.133 159.045C552.644 169.35 556.47 179.552 560.611 189.652C562.842 190.66 565.21 191.024 567.716 190.745C567.716 188.558 567.716 186.372 567.716 184.186C562.259 184.1 562.259 183.007 567.716 180.907C566.442 179.722 564.985 178.811 563.343 178.174C565.796 177.085 567.8 175.446 569.355 173.255C570.569 175.16 572.208 176.618 574.274 177.628C573.44 178.96 572.347 180.053 570.995 180.907C575.234 182.421 575.234 183.695 570.995 184.733C580.019 199.651 592.771 210.218 609.253 216.432C625.627 222.056 641.658 224.789 657.349 224.631C665.495 223.649 673.512 222.009 681.398 219.712C683.373 217.96 685.559 216.502 687.956 215.339C686.92 214.811 685.827 214.63 684.677 214.793C684.677 213.7 684.677 212.607 684.677 211.513C686.473 211.535 687.93 210.806 689.049 209.327C690.553 210.794 692.01 212.251 693.422 213.7C692.464 214.521 691.371 215.067 690.142 215.339C693.96 216.529 694.142 217.804 690.689 219.165C690.161 220.201 689.979 221.294 690.142 222.444C691.939 222.678 693.579 222.313 695.061 221.351C698.104 214.173 700.837 206.885 703.259 199.489C701.96 198.474 700.503 198.11 698.887 198.396C698.105 202.58 697.012 202.58 695.608 198.396C695.726 197.367 696.09 196.456 696.701 195.664C708.725 194.934 720.749 194.934 732.773 195.664C734.15 197.646 734.15 199.65 732.773 201.676C731.353 201.031 730.442 199.938 730.04 198.396C729.311 199.853 728.583 199.853 727.854 198.396C727.671 199.125 727.49 199.853 727.307 200.582C730.075 207.427 732.625 214.35 734.959 221.351C736.259 222.367 737.716 222.731 739.331 222.444C739.459 220.276 738.73 218.455 737.145 216.979C737.719 216.222 738.448 215.676 739.331 215.339C738.317 214.915 737.588 214.186 737.145 213.153C739.838 208.319 742.389 208.319 744.797 213.153C744.354 214.186 743.625 214.915 742.611 215.339C743.892 215.797 744.985 216.525 745.89 217.525C744.298 217.988 743.752 218.898 744.25 220.258C760.278 243.127 782.323 255.697 810.383 257.97C827.802 258.935 844.928 257.113 861.758 252.504C862.49 249.954 863.212 247.403 863.944 244.853C878.876 244.306 893.818 244.124 908.761 244.306C908.575 255.244 908.761 266.175 909.307 277.099C914.511 281.445 920.523 283.267 927.344 282.564C936.832 283.191 945.03 280.277 951.938 273.82C951.424 268.56 953.611 265.28 958.497 263.982C959.907 264.474 961.175 265.203 962.323 266.168C963.208 263.691 963.754 261.14 963.962 258.516C966.301 257.129 968.673 257.129 971.067 258.516C971.679 261.09 972.412 263.64 973.253 266.168C976.172 263.253 979.08 263.253 981.998 266.168C982.895 269.018 983.441 271.933 983.638 274.913C985.66 272.11 987.66 272.11 989.65 274.913C990.218 271.906 991.486 269.356 993.476 267.261C994.569 267.625 995.662 267.99 996.755 268.354C998.406 270.32 998.58 272.324 997.301 274.366C999.324 273.51 1001.51 273.146 1003.86 273.273C1005.39 274.434 1006.48 275.891 1007.14 277.646C1006.78 279.859 1006.6 282.227 1006.59 284.751C1003.99 285.773 1001.26 286.137 998.395 285.844C998.395 295.682 998.395 305.519 998.395 315.357C1016.62 315.357 1034.83 315.357 1053.05 315.357C1053.05 260.339 1053.05 205.319 1053.05 150.3C1056.33 150.3 1059.61 150.3 1062.89 150.3C1062.89 143.742 1062.89 137.183 1062.89 130.625C1079.28 129.041 1095.85 126.854 1112.62 124.066C1112.98 124.43 1113.36 124.795 1113.72 125.159C1121.89 123.765 1130.09 122.308 1138.31 120.787C1138.96 121.015 1139.5 121.38 1139.95 121.88C1140.85 131.257 1140.66 140.549 1139.4 149.754C1141.56 150.295 1143.74 150.477 1145.96 150.3C1145.96 137.547 1145.96 124.795 1145.96 112.042C1149.6 112.042 1153.25 112.042 1156.89 112.042C1156.89 105.848 1156.89 99.6536 1156.89 93.4594C1170.38 93.6414 1183.86 93.4592 1197.34 92.9128C1198.04 87.6837 1198.77 82.4004 1199.52 77.063C1200.17 77.2917 1200.72 77.6561 1201.16 78.156C1201.71 83.2442 1201.9 88.3453 1201.71 93.4594C1204.99 93.4594 1208.27 93.4594 1211.55 93.4594C1212.28 62.8527 1213 62.8527 1213.73 93.4594C1216.28 93.4594 1218.84 93.4594 1221.39 93.4594C1221.39 99.6536 1221.39 105.848 1221.39 112.042C1223.21 112.042 1225.03 112.042 1226.85 112.042ZM557.878 260.703C565.45 277.811 572.372 295.3 578.647 313.171C576.171 314.425 573.621 314.607 570.995 313.718C559.038 303.203 547.378 292.454 536.016 281.471C543.326 274.525 550.613 267.602 557.878 260.703ZM508.689 260.703C515.983 267.633 523.27 274.555 530.551 281.471C519.12 291.624 507.824 302.008 496.665 312.625C494.265 314.125 491.714 314.489 489.013 313.718C495.41 296.001 501.968 278.33 508.689 260.703ZM513.061 260.703C526.717 259.435 540.563 259.252 554.599 260.156C547.494 266.532 540.389 272.909 533.283 279.285C526.356 273.269 519.615 267.074 513.061 260.703ZM1164.54 250.865C1186.41 250.865 1208.27 250.865 1230.13 250.865C1230.13 253.415 1230.13 255.966 1230.13 258.516C1208.27 258.516 1186.41 258.516 1164.54 258.516C1164.54 255.966 1164.54 253.415 1164.54 250.865ZM415.776 273.82C417.103 272.017 418.56 270.196 420.148 268.354C417.998 267.587 416.176 267.587 414.683 268.354C416.575 266.337 418.397 264.334 420.148 262.342C419.784 261.796 419.419 261.249 419.055 260.703C417.619 261.591 416.343 262.684 415.229 263.982C415.009 262.062 414.462 260.241 413.59 258.516C412.949 258.745 412.403 259.11 411.95 259.61C411.404 269.076 411.222 278.55 411.404 288.03C408.584 288.146 406.034 287.417 403.752 285.844C402.647 276.722 400.461 267.977 397.193 259.61C408.535 246.532 419.649 246.896 430.533 260.703C434.568 271.547 431.836 280.109 422.334 286.39C419.955 287.704 417.404 288.251 414.683 288.03C413.418 282.136 415.24 277.582 420.148 274.366C419.784 273.82 419.419 273.273 419.055 272.727C418.053 273.412 416.96 273.777 415.776 273.82ZM729.494 259.61C719.855 260.695 710.017 261.06 699.98 260.703C705.005 256.716 710.107 252.708 715.283 248.679C719.889 252.606 724.625 256.249 729.494 259.61ZM866.13 247.585C879.247 247.585 892.365 247.585 905.482 247.585C905.482 270.176 905.482 292.766 905.482 315.357C892.365 315.357 879.247 315.357 866.13 315.357C866.13 292.766 866.13 270.176 866.13 247.585ZM561.157 245.399C564.456 245.219 567.736 245.401 570.995 245.946C567.574 248.272 564.477 251.005 561.704 254.144C561.161 251.252 560.978 248.336 561.157 245.399ZM509.782 245.399C525.814 245.399 541.846 245.399 557.878 245.399C557.878 249.043 557.878 252.687 557.878 256.33C541.846 256.33 525.814 256.33 509.782 256.33C509.782 252.687 509.782 249.043 509.782 245.399ZM496.665 246.492C499.711 245.424 502.991 245.06 506.503 245.399C506.682 248.336 506.499 251.252 505.956 254.144C503.315 250.949 500.217 248.398 496.665 246.492ZM575.368 238.841C587.981 251.526 603.284 259.359 621.277 262.342C642.182 265.405 662.769 264.129 683.037 258.516C684.723 264.957 688.549 269.876 694.515 273.273C688.808 286.747 683.525 300.41 678.665 314.264C646.861 315.534 614.98 315.716 583.019 314.811C575.777 296.549 568.855 278.149 562.25 259.61C565.473 254.381 569.663 250.009 574.821 246.492C575.364 243.967 575.546 241.417 575.368 238.841ZM697.794 234.468C702.857 238.073 707.595 242.081 712.004 246.492C707.639 250.672 703.085 254.681 698.34 258.516C697.794 250.508 697.612 242.493 697.794 234.468ZM731.68 233.375C732.943 241.927 733.126 250.671 732.226 259.61C727.693 254.715 722.774 250.16 717.47 245.946C722.418 241.902 727.156 237.713 731.68 233.375ZM701.073 232.282C710.19 232.101 719.298 232.282 728.401 232.829C723.839 236.483 719.467 240.309 715.283 244.306C710.178 240.651 705.44 236.644 701.073 232.282ZM1164.54 226.817C1186.41 226.817 1208.27 226.817 1230.13 226.817C1230.13 229.367 1230.13 231.918 1230.13 234.468C1208.27 234.468 1186.41 234.468 1164.54 234.468C1164.54 231.918 1164.54 229.367 1164.54 226.817ZM731.68 224.631C733.081 225.951 733.081 227.409 731.68 229.003C720.49 227.757 709.377 227.757 698.34 229.003C697.813 227.967 697.631 226.874 697.794 225.724C709.287 226.082 720.582 225.717 731.68 224.631ZM532.737 224.631C540.156 229.994 547.443 235.642 554.599 241.573C540.753 242.303 526.907 242.303 513.061 241.573C520.152 236.482 526.711 230.835 532.737 224.631ZM742.611 223.537C761.837 249.226 787.707 261.979 820.22 261.796C834.376 261.393 848.225 259.207 861.758 255.237C863.212 262.525 863.212 269.811 861.758 277.099C830.066 290.785 798.73 289.874 767.752 274.366C758.728 269.335 751.805 262.776 746.983 254.691C749.627 251.929 748.899 249.925 744.797 248.679C743.464 249.931 742.007 251.024 740.425 251.958C741.236 253.98 742.329 254.708 743.704 254.144C739.512 255.779 739.512 256.872 743.704 257.423C743.704 258.516 743.704 259.61 743.704 260.703C741.154 260.703 738.602 260.703 736.052 260.703C735.871 250.494 736.052 240.291 736.599 230.096C739.148 228.234 741.151 226.048 742.611 223.537ZM556.785 204.955C558.242 216.615 558.242 228.274 556.785 239.934C549.75 234.182 542.826 228.17 536.016 221.898C543.145 216.398 550.069 210.752 556.785 204.955ZM509.782 204.955C517.184 210.342 524.472 215.989 531.644 221.898C524.859 228.32 517.754 234.332 510.328 239.934C509.782 228.28 509.599 216.62 509.782 204.955ZM1164.54 202.769C1186.22 204.22 1207.91 204.22 1229.58 202.769C1230.13 205.294 1230.31 207.844 1230.13 210.42C1208.27 210.42 1186.41 210.42 1164.54 210.42C1164.54 207.87 1164.54 205.319 1164.54 202.769ZM511.968 202.769C526.353 201.501 540.929 201.318 555.692 202.222C548.688 208.364 541.583 214.376 534.377 220.258C527.022 214.167 519.553 208.338 511.968 202.769ZM706.539 199.489C712.016 199.308 717.482 199.49 722.935 200.036C726.165 206.99 729.08 214.095 731.68 221.351C720.402 222.626 709.106 222.807 697.794 221.898C700.816 214.47 703.732 207.001 706.539 199.489ZM561.157 194.024C565.129 193.962 565.311 195.055 561.704 197.303C561.176 196.267 560.994 195.174 561.157 194.024ZM509.782 194.024C525.814 194.024 541.846 194.024 557.878 194.024C557.878 195.846 557.878 197.667 557.878 199.489C541.846 199.489 525.814 199.489 509.782 199.489C509.782 197.667 509.782 195.846 509.782 194.024ZM503.223 195.117C504.192 193.722 505.285 193.722 506.503 195.117C505.492 196.278 504.398 196.278 503.223 195.117ZM570.995 191.838C587.429 211.54 608.561 223.017 634.395 226.27C652.297 228.776 669.787 227.136 686.863 221.351C688.074 225.32 690.442 228.6 693.968 231.189C694.515 241.02 694.696 250.858 694.515 260.703C691.964 260.703 689.413 260.703 686.863 260.703C686.841 258.907 687.57 257.45 689.049 256.33C688.475 255.574 687.746 255.027 686.863 254.691C689.789 251.943 689.243 249.939 685.223 248.679C683.584 249.772 681.944 250.865 680.304 251.958C680.889 253.894 681.801 254.258 683.037 253.051C683.683 254.125 683.318 254.855 681.944 255.237C654.982 262.988 628.201 262.442 601.602 253.598C592.709 249.447 584.694 243.982 577.554 237.201C579.145 236.739 579.692 235.828 579.193 234.468C577.769 233.799 576.493 233.434 575.368 233.375C579.973 232.253 580.519 230.43 577.007 227.91C576.643 228.274 576.278 228.639 575.914 229.003C574.877 224.764 573.602 224.764 572.088 229.003C570.563 227.565 569.47 227.931 568.809 230.096C570.012 232.166 571.47 232.895 573.181 232.282C567.663 234.475 567.663 235.932 573.181 236.655C573.181 238.477 573.181 240.298 573.181 242.12C569.173 242.12 565.166 242.12 561.157 242.12C560.794 228.255 561.158 214.409 562.25 200.582C565.553 198.009 568.468 195.094 570.995 191.838ZM1164.54 178.721C1186.41 178.721 1208.27 178.721 1230.13 178.721C1230.13 181.271 1230.13 183.822 1230.13 186.372C1208.27 186.372 1186.41 186.372 1164.54 186.372C1164.54 183.822 1164.54 181.271 1164.54 178.721ZM556.785 189.652C541.55 191.088 526.247 191.088 510.875 189.652C514.404 179.319 518.229 169.117 522.352 159.045C530.123 157.611 537.957 157.611 545.854 159.045C549.721 169.19 553.365 179.392 556.785 189.652ZM1164.54 155.766C1186.41 155.766 1208.27 155.766 1230.13 155.766C1230.13 158.316 1230.13 160.867 1230.13 163.417C1208.27 163.417 1186.41 163.417 1164.54 163.417C1164.54 160.867 1164.54 158.316 1164.54 155.766ZM1056.33 152.486C1086.94 152.486 1117.54 152.486 1148.15 152.486C1148.15 206.777 1148.15 261.067 1148.15 315.357C1117.54 315.357 1086.94 315.357 1056.33 315.357C1056.33 261.067 1056.33 206.777 1056.33 152.486ZM1120.82 255.237C1123.74 255.237 1126.65 255.237 1129.57 255.237C1129.57 258.152 1129.57 261.067 1129.57 263.982C1126.65 263.982 1123.74 263.982 1120.82 263.982C1120.82 261.067 1120.82 258.152 1120.82 255.237ZM1096.77 255.237C1099.69 255.237 1102.6 255.237 1105.52 255.237C1105.52 258.152 1105.52 261.067 1105.52 263.982C1102.58 264.161 1099.67 263.979 1096.77 263.435C1097.51 260.888 1097.51 258.156 1096.77 255.237ZM1072.72 255.237C1075.64 255.237 1078.55 255.237 1081.47 255.237C1081.47 258.152 1081.47 261.067 1081.47 263.982C1078.55 263.982 1075.64 263.982 1072.72 263.982C1072.72 261.067 1072.72 258.152 1072.72 255.237ZM1096.77 233.375C1099.69 233.375 1102.6 233.375 1105.52 233.375C1105.52 236.291 1105.52 239.205 1105.52 242.12C1102.58 242.299 1099.67 242.117 1096.77 241.573C1097.51 239.027 1097.51 236.294 1096.77 233.375ZM1120.82 233.375C1123.74 233.375 1126.65 233.375 1129.57 233.375C1129.57 236.291 1129.57 239.205 1129.57 242.12C1126.65 242.12 1123.74 242.12 1120.82 242.12C1120.82 239.205 1120.82 236.291 1120.82 233.375ZM1072.72 233.375C1075.64 233.375 1078.55 233.375 1081.47 233.375C1081.47 236.291 1081.47 239.205 1081.47 242.12C1078.55 242.12 1075.64 242.12 1072.72 242.12C1072.72 239.205 1072.72 236.291 1072.72 233.375ZM1120.82 211.513C1123.74 211.513 1126.65 211.513 1129.57 211.513C1129.57 214.429 1129.57 217.343 1129.57 220.258C1126.65 220.258 1123.74 220.258 1120.82 220.258C1120.82 217.343 1120.82 214.429 1120.82 211.513ZM1096.77 211.513C1099.69 211.513 1102.6 211.513 1105.52 211.513C1105.52 214.429 1105.52 217.343 1105.52 220.258C1102.58 220.437 1099.67 220.255 1096.77 219.712C1097.51 217.165 1097.51 214.432 1096.77 211.513ZM1072.72 211.513C1075.64 211.513 1078.55 211.513 1081.47 211.513C1081.47 214.429 1081.47 217.343 1081.47 220.258C1078.55 220.258 1075.64 220.258 1072.72 220.258C1072.72 217.343 1072.72 214.429 1072.72 211.513ZM1120.82 189.652C1123.74 189.652 1126.65 189.652 1129.57 189.652C1129.57 192.567 1129.57 195.481 1129.57 198.396C1126.65 198.396 1123.74 198.396 1120.82 198.396C1120.82 195.481 1120.82 192.567 1120.82 189.652ZM1096.77 189.652C1099.69 189.652 1102.6 189.652 1105.52 189.652C1105.52 192.567 1105.52 195.481 1105.52 198.396C1102.58 198.576 1099.67 198.393 1096.77 197.85C1097.51 195.303 1097.51 192.57 1096.77 189.652ZM1072.72 189.652C1075.64 189.652 1078.55 189.652 1081.47 189.652C1081.47 192.567 1081.47 195.481 1081.47 198.396C1078.55 198.396 1075.64 198.396 1072.72 198.396C1072.72 195.481 1072.72 192.567 1072.72 189.652ZM1073.82 167.79C1076.74 167.79 1079.64 167.79 1082.56 167.79C1082.56 170.705 1082.56 173.619 1082.56 176.534C1079.64 176.534 1076.74 176.534 1073.82 176.534C1073.82 173.619 1073.82 170.705 1073.82 167.79ZM1121.91 167.79C1124.83 167.79 1127.74 167.79 1130.66 167.79C1130.66 170.705 1130.66 173.619 1130.66 176.534C1127.74 176.534 1124.83 176.534 1121.91 176.534C1121.91 173.619 1121.91 170.705 1121.91 167.79ZM1097.87 167.79C1100.78 167.79 1103.69 167.79 1106.61 167.79C1106.61 170.705 1106.61 173.619 1106.61 176.534C1103.69 176.534 1100.78 176.534 1097.87 176.534C1097.87 173.619 1097.87 170.705 1097.87 167.79ZM1164.54 131.718C1186.41 131.718 1208.27 131.718 1230.13 131.718C1230.13 134.268 1230.13 136.819 1230.13 139.369C1208.27 139.369 1186.41 139.369 1164.54 139.369C1164.54 136.819 1164.54 134.268 1164.54 131.718ZM1136.12 124.066C1137.21 132.61 1137.58 141.354 1137.22 150.3C1113.17 150.483 1089.12 150.3 1065.07 149.754C1066.13 144.576 1066.49 139.293 1066.17 133.904C1089.68 131.011 1113.01 127.732 1136.12 124.066ZM1149.24 115.321C1176.21 115.321 1203.16 115.321 1230.13 115.321C1230.13 119.694 1230.13 124.066 1230.13 128.438C1207.54 128.256 1184.94 128.438 1162.36 128.985C1160.9 133.357 1160.9 137.73 1162.36 142.102C1184.94 142.649 1207.54 142.831 1230.13 142.649C1230.13 145.928 1230.13 149.207 1230.13 152.486C1207.18 152.486 1184.22 152.486 1161.27 152.486C1160.94 157.151 1161.31 161.706 1162.36 166.15C1184.94 166.697 1207.54 166.879 1230.13 166.697C1230.13 169.976 1230.13 173.255 1230.13 176.534C1207.18 176.534 1184.22 176.534 1161.27 176.534C1161.27 180.907 1161.27 185.279 1161.27 189.652C1184.22 189.652 1207.18 189.652 1230.13 189.652C1230.13 193.295 1230.13 196.939 1230.13 200.582C1207.18 200.582 1184.22 200.582 1161.27 200.582C1161.27 204.955 1161.27 209.327 1161.27 213.7C1184.22 213.7 1207.18 213.7 1230.13 213.7C1230.13 216.979 1230.13 220.258 1230.13 223.537C1207.18 223.537 1184.22 223.537 1161.27 223.537C1161.27 228.274 1161.27 233.011 1161.27 237.748C1184.22 237.748 1207.18 237.748 1230.13 237.748C1230.13 241.027 1230.13 244.306 1230.13 247.585C1207.18 247.585 1184.22 247.585 1161.27 247.585C1161.27 251.958 1161.27 256.33 1161.27 260.703C1184.22 260.703 1207.18 260.703 1230.13 260.703C1230.13 264.346 1230.13 267.99 1230.13 271.634C1207.18 271.634 1184.22 271.634 1161.27 271.634C1160.8 276.587 1161.34 281.324 1162.91 285.844C1185.13 285.48 1207.36 285.115 1229.58 284.751C1230.13 294.946 1230.32 305.149 1230.13 315.357C1203.9 315.357 1177.66 315.357 1151.43 315.357C1151.84 248.66 1151.12 181.981 1149.24 115.321ZM1160.17 96.7386C1179.85 96.7386 1199.52 96.7386 1219.2 96.7386C1219.2 101.84 1219.2 106.941 1219.2 112.042C1199.52 112.042 1179.85 112.042 1160.17 112.042C1160.17 106.941 1160.17 101.84 1160.17 96.7386ZM966.695 260.703C967.996 261.216 968.728 262.309 968.881 263.982C968.433 279.994 968.433 297.119 968.881 315.357C966.706 297.54 965.984 279.322 966.695 260.703ZM862.851 315.357C825.499 315.72 788.334 315.355 751.355 314.264C746.093 300.885 740.992 287.402 736.052 273.82C739.709 269.617 743.534 265.609 747.53 261.796C762.657 277.283 781.057 286.21 802.731 288.576C823.435 291.661 843.293 288.928 862.304 280.378C862.851 292.032 863.037 303.692 862.851 315.357ZM689.049 265.075C690.6 264.035 692.421 263.671 694.515 263.982C694.69 265.839 694.508 267.661 693.968 269.447C692.469 267.763 690.83 266.305 689.049 265.075ZM697.794 263.982C709.454 263.982 721.113 263.982 732.773 263.982C732.773 266.532 732.773 269.083 732.773 271.634C721.113 271.634 709.454 271.634 697.794 271.634C697.794 269.083 697.794 266.532 697.794 263.982ZM734.959 265.075C736.914 263.849 739.1 263.666 741.518 264.528C739.565 265.387 737.926 266.661 736.599 268.354C736.345 267.002 735.799 265.909 734.959 265.075ZM879.247 268.354C883.631 268.173 888.003 268.355 892.365 268.901C893.818 276.188 893.818 283.475 892.365 290.763C888.003 291.308 883.631 291.491 879.247 291.309C878.329 283.388 878.329 275.736 879.247 268.354ZM728.401 274.913C724.395 279.828 719.841 284.201 714.737 288.03C709.655 283.861 704.736 279.489 699.98 274.913C709.294 273.866 718.767 273.866 728.401 274.913ZM1164.54 274.913C1186.41 274.913 1208.27 274.913 1230.13 274.913C1230.13 277.463 1230.13 280.014 1230.13 282.564C1208.27 282.564 1186.41 282.564 1164.54 282.564C1164.54 280.014 1164.54 277.463 1164.54 274.913ZM695.608 276.006C701.38 280.317 706.846 285.053 712.004 290.216C703.043 298.614 693.752 306.63 684.13 314.264C683.584 313.9 683.037 313.535 682.491 313.171C687.087 300.84 691.459 288.451 695.608 276.006ZM731.68 276.006C733.046 276.09 733.957 276.819 734.413 278.192C738.758 290.137 743.313 301.98 748.076 313.718C746.254 314.447 744.433 314.447 742.611 313.718C734.037 306.054 725.657 298.22 717.47 290.216C722.565 285.85 727.301 281.114 731.68 276.006ZM963.416 279.285C963.416 291.309 963.416 303.333 963.416 315.357C945.194 315.357 926.983 315.357 908.761 315.357C908.4 304.038 908.761 292.743 909.854 281.471C922.654 287.385 935.4 287.204 948.112 280.925C949.391 279.649 950.659 278.375 951.938 277.099C952.485 277.646 953.031 278.192 953.578 278.739C956.835 279.283 960.114 279.466 963.416 279.285ZM1072.72 278.192C1075.64 278.192 1078.55 278.192 1081.47 278.192C1081.47 280.742 1081.47 283.294 1081.47 285.844C1078.55 285.844 1075.64 285.844 1072.72 285.844C1072.72 283.294 1072.72 280.742 1072.72 278.192ZM1096.77 279.285C1099.45 278.222 1102.36 277.858 1105.52 278.192C1105.52 280.742 1105.52 283.294 1105.52 285.844C1102.58 286.023 1099.67 285.84 1096.77 285.297C1098.13 283.151 1098.13 281.147 1096.77 279.285ZM1120.82 278.192C1123.74 278.192 1126.65 278.192 1129.57 278.192C1129.57 280.742 1129.57 283.294 1129.57 285.844C1126.65 285.844 1123.74 285.844 1120.82 285.844C1120.82 283.294 1120.82 280.742 1120.82 278.192ZM983.091 284.751C985.398 285.809 987.945 286.174 990.743 285.844C990.743 295.682 990.743 305.519 990.743 315.357C984.545 315.357 978.358 315.357 972.16 315.357C972.16 304.426 972.16 293.495 972.16 282.564C975.461 282.341 978.741 281.977 981.998 281.471C981.736 282.883 982.107 283.976 983.091 284.751ZM532.737 283.658C544.863 293.409 556.523 303.793 567.716 314.811C544.397 315.54 521.077 315.54 497.758 314.811C509.63 304.574 521.29 294.19 532.737 283.658ZM713.097 292.402C722.281 299.208 731.026 306.677 739.331 314.811C722.571 315.54 705.81 315.54 689.049 314.811C697.355 307.577 705.37 300.108 713.097 292.402Z" fill="#1C849E"/>
<path fill-rule="evenodd" clip-rule="evenodd" d="M397.191 259.61C400.459 267.978 402.645 276.723 403.75 285.845C395.279 281.06 392.182 273.774 394.459 263.983C394.677 261.993 395.589 260.536 397.191 259.61Z" fill="#18B4DB"/>
<path opacity="0.247" fill-rule="evenodd" clip-rule="evenodd" d="M556.784 239.934C558.241 228.274 558.241 216.615 556.784 204.955C557.093 204.092 557.639 203.363 558.423 202.768C559.334 215.537 559.151 228.29 557.877 241.027C557.213 240.891 556.849 240.527 556.784 239.934Z" fill="#1CD3FE"/>
<path opacity="0.129" fill-rule="evenodd" clip-rule="evenodd" d="M555.691 157.952C553.248 157.629 551.061 157.994 549.132 159.045C548.538 158.979 548.174 158.615 548.039 157.952C550.742 156.534 553.293 156.534 555.691 157.952Z" fill="#090401"/>
<path opacity="0.247" fill-rule="evenodd" clip-rule="evenodd" d="M729.492 259.61C730.355 259.92 731.084 260.466 731.678 261.25C720.296 262.146 709.73 261.965 699.979 260.704C710.016 261.061 719.853 260.696 729.492 259.61Z" fill="#1CD2FC"/>
<path opacity="0.973" fill-rule="evenodd" clip-rule="evenodd" d="M369.865 316.45C369.212 312.165 368.483 308.522 367.679 305.519C361.941 305.109 357.388 302.559 354.015 297.868C347.683 282.476 352.602 273.002 368.772 269.447C379.61 270.63 385.441 276.642 386.262 287.483C385.557 297.843 380.091 303.855 369.865 305.519C369.865 309.163 369.865 312.807 369.865 316.45Z" fill="#4A8C8F"/>
<path fill-rule="evenodd" clip-rule="evenodd" d="M365.492 271.633C376.664 271.505 383.222 276.971 385.168 288.03C384.006 297.207 378.906 302.309 369.865 303.333C368.901 298.513 370.359 294.688 374.237 291.855C372.651 292.143 371.194 291.96 369.865 291.309C370.958 289.487 372.415 288.03 374.237 286.936C372.594 286.57 371.137 286.57 369.865 286.936C371.12 285.134 372.577 283.494 374.237 282.018C373.09 281.48 371.997 281.661 370.958 282.564C370.229 281.471 369.501 280.378 368.772 279.285C367.682 287.268 367.317 295.284 367.679 303.333C358.35 302.202 353.249 296.919 352.375 287.483C353.822 279.669 358.195 274.386 365.492 271.633Z" fill="#18B4DB"/>
<path opacity="0.247" fill-rule="evenodd" clip-rule="evenodd" d="M407.03 290.217C408.852 290.217 410.673 290.217 412.496 290.217C412.496 298.962 412.496 307.707 412.496 316.451C410.402 316.762 408.581 316.398 407.03 315.358C408.487 315.358 409.945 315.358 411.403 315.358C411.403 307.343 411.403 299.326 411.403 291.31C409.655 291.603 408.198 291.238 407.03 290.217Z" fill="#1CCDF7"/>
<path opacity="0.973" fill-rule="evenodd" clip-rule="evenodd" d="M99.8709 259.61C100.944 263.395 101.308 267.403 100.964 271.634C100.964 286.209 100.964 300.784 100.964 315.358C104.607 315.358 108.252 315.358 111.895 315.358C111.544 299.714 111.544 285.504 111.895 272.728C111.895 271.998 112.259 271.634 112.988 271.634C113.229 288.094 113.594 303.034 114.081 316.451C132.667 316.634 151.25 316.451 169.829 315.905C171.448 311.728 171.084 307.72 168.736 303.881C161.458 303.334 154.17 303.153 146.874 303.334C148.208 290.978 149.301 278.59 150.153 266.169C166.186 266.169 182.217 266.169 198.249 266.169C199.231 278.567 200.324 290.955 201.529 303.334C194.232 303.153 186.945 303.334 179.667 303.881C177.558 307.44 177.012 311.266 178.027 315.358C195.629 316.805 213.3 316.805 231.042 315.358C230.744 312.704 231.108 310.335 232.135 308.253C230.455 307.04 229.727 305.4 229.949 303.334C222.661 303.334 215.375 303.334 208.087 303.334C208.722 291.248 209.815 279.224 211.366 267.262C227.382 266.17 243.414 265.805 259.463 266.169C260.294 278.854 261.023 291.243 261.649 303.334C254.361 303.334 247.075 303.334 239.787 303.334C238.544 307.578 238.544 311.768 239.787 315.905C257.357 316.798 274.847 316.615 292.255 315.358C292.984 315.358 293.712 315.358 294.442 315.358C295.535 315.358 296.628 315.358 297.721 315.358C297.721 312.443 297.721 309.529 297.721 306.613C296.628 306.613 295.535 306.613 294.442 306.613C293.712 306.613 292.984 306.613 292.255 306.613C291.417 305.879 290.688 304.968 290.069 303.881C282.755 303.696 275.468 303.149 268.207 302.241C269.758 290.279 270.851 278.255 271.487 266.169C287.519 266.169 303.55 266.169 319.583 266.169C320.796 278.545 321.889 290.934 322.862 303.334C315.574 303.334 308.288 303.334 301 303.334C298.839 307.588 298.474 311.961 299.907 316.451C299.178 316.451 298.814 316.815 298.814 317.544C231.95 317.907 165.272 317.543 98.7778 316.451C99.4851 297.512 99.8491 278.566 99.8709 259.61Z" fill="#3C8894"/>
<path fill-rule="evenodd" clip-rule="evenodd" d="M255.09 269.447C255.464 268.531 256.192 268.166 257.276 268.354C258.291 279.059 259.384 289.443 260.556 299.507C260.397 300.351 260.033 301.08 259.463 301.693C243.064 300.79 226.668 300.972 210.273 302.24C210.273 300.418 210.273 298.597 210.273 296.775C211.262 297.55 211.626 298.643 211.367 300.054C227.227 300.413 242.895 300.049 258.37 298.961C257.707 288.931 256.614 279.093 255.09 269.447Z" fill="#18B4DB"/>
<path fill-rule="evenodd" clip-rule="evenodd" d="M271.486 290.217C271.85 290.217 272.215 290.217 272.579 290.217C272.899 292.903 272.899 295.818 272.579 298.962C287.883 298.962 303.186 298.962 318.489 298.962C319.218 298.962 319.946 298.962 320.676 298.962C320.77 300.051 320.404 300.961 319.582 301.695C316.486 301.877 313.388 302.059 310.291 302.241C298.368 301.879 285.433 301.697 271.486 301.695C270.649 297.958 270.649 294.133 271.486 290.217Z" fill="#18B4DB"/>
<path fill-rule="evenodd" clip-rule="evenodd" d="M257.276 268.354C256.192 268.166 255.464 268.531 255.09 269.447C241.244 269.447 227.399 269.447 213.553 269.447C213.136 279.283 212.772 289.121 212.46 298.961C227.763 298.961 243.066 298.961 258.37 298.961C242.895 300.049 227.227 300.413 211.367 300.054C211.626 298.642 211.262 297.549 210.273 296.774C211.063 286.942 211.791 277.104 212.46 267.261C227.592 266.901 242.531 267.265 257.276 268.354Z" fill="#18B4DB"/>
<path fill-rule="evenodd" clip-rule="evenodd" d="M197.156 270.54C197.555 279.308 198.285 288.053 199.343 296.774C199.287 298.523 198.923 300.163 198.25 301.693C182.11 301.908 166.079 301.908 150.153 301.693C149.453 297.602 149.453 293.411 150.153 289.123C150.883 289.123 151.247 289.487 151.247 290.216C151.247 293.131 151.247 296.045 151.247 298.961C166.55 298.961 181.853 298.961 197.156 298.961C196.585 290.227 196.221 281.482 196.063 272.726C195.875 271.642 196.24 270.914 197.156 270.54Z" fill="#18B4DB"/>
<path opacity="0.973" fill-rule="evenodd" clip-rule="evenodd" d="M318.489 298.961C303.186 298.961 287.882 298.961 272.579 298.961C272.898 295.817 272.898 292.902 272.579 290.216C273.719 283.493 274.448 276.57 274.765 269.447C288.616 269.264 302.462 269.447 316.303 269.994C317.536 279.555 318.265 289.21 318.489 298.961Z" fill="#458A91"/>
<path fill-rule="evenodd" clip-rule="evenodd" d="M309.745 291.309C311.931 291.309 314.117 291.309 316.304 291.309C316.304 293.495 316.304 295.682 316.304 297.868C310.838 298.961 308.652 296.775 309.745 291.309Z" fill="#18B4DB"/>
<path fill-rule="evenodd" clip-rule="evenodd" d="M301 291.31C303.3 290.983 305.486 291.347 307.558 292.403C309.668 297.039 307.846 298.678 302.093 297.322C301.103 295.464 300.739 293.46 301 291.31Z" fill="#18B4DB"/>
<path fill-rule="evenodd" clip-rule="evenodd" d="M293.348 291.309C295.17 291.309 296.991 291.309 298.814 291.309C300.962 297.356 298.958 299.177 292.802 296.775C292.102 294.845 292.285 293.023 293.348 291.309Z" fill="#18B4DB"/>
<path fill-rule="evenodd" clip-rule="evenodd" d="M283.511 291.309C285.697 291.309 287.883 291.309 290.069 291.309C290.069 293.495 290.069 295.682 290.069 297.868C287.883 297.868 285.697 297.868 283.511 297.868C283.511 295.682 283.511 293.495 283.511 291.309Z" fill="#18B4DB"/>
<path fill-rule="evenodd" clip-rule="evenodd" d="M275.86 291.31C281.19 290.112 283.012 291.934 281.325 296.775C279.253 297.831 277.066 298.195 274.767 297.868C274.575 295.55 274.94 293.364 275.86 291.31Z" fill="#18B4DB"/>
<path opacity="0.973" fill-rule="evenodd" clip-rule="evenodd" d="M255.091 269.447C256.614 279.093 257.707 288.931 258.37 298.961C243.067 298.961 227.763 298.961 212.46 298.961C212.773 289.121 213.137 279.283 213.553 269.447C227.399 269.447 241.244 269.447 255.091 269.447Z" fill="#438A91"/>
<path fill-rule="evenodd" clip-rule="evenodd" d="M249.625 291.31C255.091 290.217 257.277 292.403 256.184 297.868C250.215 298.883 248.029 296.696 249.625 291.31Z" fill="#18B4DB"/>
<path fill-rule="evenodd" clip-rule="evenodd" d="M240.88 291.309C243.066 291.309 245.252 291.309 247.439 291.309C247.439 293.495 247.439 295.682 247.439 297.868C245.252 297.868 243.066 297.868 240.88 297.868C240.88 295.682 240.88 293.495 240.88 291.309Z" fill="#18B4DB"/>
<path fill-rule="evenodd" clip-rule="evenodd" d="M232.136 291.31C237.189 290.116 239.193 291.938 238.148 296.775C232.048 299.237 230.045 297.415 232.136 291.31Z" fill="#18B4DB"/>
<path fill-rule="evenodd" clip-rule="evenodd" d="M223.391 291.309C225.577 291.309 227.763 291.309 229.949 291.309C230.124 293.166 229.943 294.989 229.403 296.775C222.928 298.861 220.924 297.039 223.391 291.309Z" fill="#18B4DB"/>
<path fill-rule="evenodd" clip-rule="evenodd" d="M214.645 291.31C219.699 290.116 221.702 291.938 220.657 296.775C214.563 299.241 212.56 297.42 214.645 291.31Z" fill="#18B4DB"/>
<path fill-rule="evenodd" clip-rule="evenodd" d="M248.533 284.75C250.719 284.75 252.905 284.75 255.091 284.75C255.091 286.572 255.091 288.394 255.091 290.216C250.24 291.391 248.054 289.569 248.533 284.75Z" fill="#18B4DB"/>
<path fill-rule="evenodd" clip-rule="evenodd" d="M239.787 284.75C242.337 284.75 244.888 284.75 247.438 284.75C247.809 289.933 245.623 291.39 240.88 289.123C240.064 287.772 239.7 286.313 239.787 284.75Z" fill="#18B4DB"/>
<path fill-rule="evenodd" clip-rule="evenodd" d="M232.135 284.75C234.321 284.75 236.507 284.75 238.693 284.75C238.693 286.572 238.693 288.394 238.693 290.216C236.507 290.216 234.321 290.216 232.135 290.216C232.135 288.394 232.135 286.572 232.135 284.75Z" fill="#18B4DB"/>
<path fill-rule="evenodd" clip-rule="evenodd" d="M223.39 284.75C225.576 284.75 227.763 284.75 229.949 284.75C229.949 286.572 229.949 288.394 229.949 290.216C227.763 290.216 225.576 290.216 223.39 290.216C223.39 288.394 223.39 286.572 223.39 284.75Z" fill="#18B4DB"/>
<path fill-rule="evenodd" clip-rule="evenodd" d="M214.646 284.75C216.832 284.75 219.018 284.75 221.204 284.75C221.204 286.572 221.204 288.394 221.204 290.216C219.018 290.216 216.832 290.216 214.646 290.216C214.646 288.394 214.646 286.572 214.646 284.75Z" fill="#18B4DB"/>
<path fill-rule="evenodd" clip-rule="evenodd" d="M248.531 278.192C250.718 278.192 252.904 278.192 255.09 278.192C255.09 279.649 255.09 281.107 255.09 282.564C252.904 282.564 250.718 282.564 248.531 282.564C248.531 281.107 248.531 279.649 248.531 278.192Z" fill="#18B4DB"/>
<path fill-rule="evenodd" clip-rule="evenodd" d="M239.787 278.192C241.974 278.192 244.16 278.192 246.346 278.192C246.346 279.649 246.346 281.107 246.346 282.564C244.16 282.564 241.974 282.564 239.787 282.564C239.787 281.107 239.787 279.649 239.787 278.192Z" fill="#18B4DB"/>
<path fill-rule="evenodd" clip-rule="evenodd" d="M232.135 278.192C234.321 278.192 236.507 278.192 238.693 278.192C238.693 279.649 238.693 281.107 238.693 282.564C236.507 282.564 234.321 282.564 232.135 282.564C232.135 281.107 232.135 279.649 232.135 278.192Z" fill="#18B4DB"/>
<path fill-rule="evenodd" clip-rule="evenodd" d="M223.39 278.192C225.576 278.192 227.763 278.192 229.949 278.192C229.949 279.649 229.949 281.107 229.949 282.564C227.763 282.564 225.576 282.564 223.39 282.564C223.39 281.107 223.39 279.649 223.39 278.192Z" fill="#18B4DB" fill-opacity="0.0941176"/>
<path fill-rule="evenodd" clip-rule="evenodd" d="M215.739 278.192C217.925 278.192 220.112 278.192 222.298 278.192C222.484 279.637 222.12 280.913 221.205 282.018C219.048 282.559 216.862 282.741 214.646 282.564C214.573 280.97 214.937 279.512 215.739 278.192Z" fill="#18B4DB"/>
<path fill-rule="evenodd" clip-rule="evenodd" d="M248.531 271.634C251.579 271.171 253.765 272.264 255.09 274.913C253.018 275.969 250.831 276.333 248.531 276.006C248.531 274.549 248.531 273.091 248.531 271.634Z" fill="#18B4DB"/>
<path fill-rule="evenodd" clip-rule="evenodd" d="M245.253 270.54C246.292 272.091 246.656 273.912 246.346 276.006C244.16 276.006 241.974 276.006 239.787 276.006C239.787 274.549 239.787 273.09 239.787 271.633C241.881 271.944 243.702 271.58 245.253 270.54Z" fill="#18B4DB"/>
<path fill-rule="evenodd" clip-rule="evenodd" d="M236.507 270.54C238.38 271.781 239.109 273.603 238.693 276.006C236.507 276.006 234.321 276.006 232.135 276.006C232.135 274.549 232.135 273.09 232.135 271.633C233.883 271.926 235.34 271.561 236.507 270.54Z" fill="#18B4DB"/>
<path fill-rule="evenodd" clip-rule="evenodd" d="M228.856 270.54C229.895 272.091 230.259 273.912 229.949 276.006C227.763 276.006 225.576 276.006 223.39 276.006C223.39 274.549 223.39 273.09 223.39 271.633C225.483 271.944 227.305 271.58 228.856 270.54Z" fill="#18B4DB"/>
<path fill-rule="evenodd" clip-rule="evenodd" d="M220.111 270.54C221.983 271.781 222.712 273.603 222.297 276.006C220.111 276.006 217.924 276.006 215.738 276.006C215.738 274.549 215.738 273.09 215.738 271.633C217.486 271.926 218.943 271.561 220.111 270.54Z" fill="#18B4DB"/>
<path opacity="0.973" fill-rule="evenodd" clip-rule="evenodd" d="M196.064 272.727C196.222 281.482 196.586 290.227 197.157 298.961C181.854 298.961 166.551 298.961 151.247 298.961C151.247 296.046 151.247 293.131 151.247 290.216C152.302 283.485 153.031 276.561 153.434 269.447C167.28 269.447 181.125 269.447 194.971 269.447C194.712 270.858 195.076 271.952 196.064 272.727Z" fill="#468B90"/>
<path fill-rule="evenodd" clip-rule="evenodd" d="M188.411 291.309C190.597 291.309 192.784 291.309 194.97 291.309C194.97 293.495 194.97 295.682 194.97 297.868C189.504 298.961 187.318 296.775 188.411 291.309Z" fill="#18B4DB"/>
<path fill-rule="evenodd" clip-rule="evenodd" d="M179.667 291.309C181.854 291.309 184.04 291.309 186.226 291.309C186.226 293.495 186.226 295.682 186.226 297.868C184.04 297.868 181.854 297.868 179.667 297.868C179.667 295.682 179.667 293.495 179.667 291.309Z" fill="#18B4DB"/>
<path fill-rule="evenodd" clip-rule="evenodd" d="M172.015 291.309C173.837 291.309 175.659 291.309 177.481 291.309C177.481 293.495 177.481 295.682 177.481 297.868C175.295 297.868 173.108 297.868 170.922 297.868C170.731 295.549 171.096 293.363 172.015 291.309Z" fill="#18B4DB" fill-opacity="0.705882"/>
<path fill-rule="evenodd" clip-rule="evenodd" d="M163.271 291.309C165.093 291.309 166.914 291.309 168.737 291.309C168.737 293.495 168.737 295.682 168.737 297.868C166.55 297.868 164.364 297.868 162.178 297.868C161.987 295.549 162.352 293.363 163.271 291.309Z" fill="#18B4DB"/>
<path fill-rule="evenodd" clip-rule="evenodd" d="M154.526 291.309C160.515 290.36 162.336 292.546 159.991 297.867C157.805 297.867 155.619 297.867 153.433 297.867C153.241 295.549 153.606 293.363 154.526 291.309Z" fill="#18B4DB"/>
<path fill-rule="evenodd" clip-rule="evenodd" d="M188.412 284.75C190.598 284.75 192.784 284.75 194.97 284.75C194.97 286.572 194.97 288.394 194.97 290.216C192.784 290.216 190.598 290.216 188.412 290.216C188.412 288.394 188.412 286.572 188.412 284.75Z" fill="#18B4DB"/>
<path fill-rule="evenodd" clip-rule="evenodd" d="M179.667 284.75C181.854 284.75 184.04 284.75 186.226 284.75C186.226 286.572 186.226 288.394 186.226 290.216C184.04 290.216 181.854 290.216 179.667 290.216C179.667 288.394 179.667 286.572 179.667 284.75Z" fill="#18B4DB"/>
<path fill-rule="evenodd" clip-rule="evenodd" d="M170.922 284.75C173.109 284.75 175.295 284.75 177.481 284.75C177.481 286.572 177.481 288.394 177.481 290.216C175.295 290.216 173.109 290.216 170.922 290.216C170.922 288.394 170.922 286.572 170.922 284.75Z" fill="#18B4DB"/>
<path fill-rule="evenodd" clip-rule="evenodd" d="M162.177 284.75C164.363 284.75 166.549 284.75 168.736 284.75C168.736 286.572 168.736 288.394 168.736 290.216C166.549 290.216 164.363 290.216 162.177 290.216C162.177 288.394 162.177 286.572 162.177 284.75Z" fill="#18B4DB"/>
<path fill-rule="evenodd" clip-rule="evenodd" d="M154.526 284.75C156.713 284.75 158.899 284.75 161.085 284.75C161.211 290.028 158.842 291.485 153.98 289.123C153.347 287.562 153.529 286.104 154.526 284.75Z" fill="#18B4DB"/>
<path fill-rule="evenodd" clip-rule="evenodd" d="M187.319 278.192C189.505 278.192 191.691 278.192 193.878 278.192C193.692 279.637 194.056 280.913 194.971 282.018C192.785 282.747 190.598 282.747 188.412 282.018C187.497 280.913 187.133 279.637 187.319 278.192Z" fill="#18B4DB"/>
<path fill-rule="evenodd" clip-rule="evenodd" d="M179.667 278.192C181.854 278.192 184.04 278.192 186.226 278.192C186.226 279.649 186.226 281.107 186.226 282.564C184.04 282.564 181.854 282.564 179.667 282.564C179.667 281.107 179.667 279.649 179.667 278.192Z" fill="#18B4DB"/>
<path fill-rule="evenodd" clip-rule="evenodd" d="M170.922 278.192C173.109 278.192 175.295 278.192 177.481 278.192C177.481 279.649 177.481 281.107 177.481 282.564C175.295 282.564 173.109 282.564 170.922 282.564C170.922 281.107 170.922 279.649 170.922 278.192Z" fill="#18B4DB"/>
<path fill-rule="evenodd" clip-rule="evenodd" d="M163.27 278.192C165.456 278.192 167.642 278.192 169.829 278.192C169.829 279.649 169.829 281.107 169.829 282.564C167.252 282.743 164.702 282.561 162.177 282.018C162.307 280.766 162.671 279.491 163.27 278.192Z" fill="#18B4DB"/>
<path fill-rule="evenodd" clip-rule="evenodd" d="M154.526 278.192C156.712 278.192 158.898 278.192 161.084 278.192C161.084 279.649 161.084 281.107 161.084 282.564C158.898 282.564 156.712 282.564 154.526 282.564C154.526 281.107 154.526 279.649 154.526 278.192Z" fill="#18B4DB"/>
<path fill-rule="evenodd" clip-rule="evenodd" d="M191.691 270.54C193.564 271.781 194.293 273.603 193.877 276.006C191.691 276.006 189.505 276.006 187.319 276.006C187.319 274.549 187.319 273.09 187.319 271.633C189.067 271.926 190.524 271.561 191.691 270.54Z" fill="#18B4DB"/>
<path fill-rule="evenodd" clip-rule="evenodd" d="M184.04 270.54C185.912 271.781 186.641 273.603 186.226 276.006C184.04 276.006 181.854 276.006 179.667 276.006C179.667 274.549 179.667 273.09 179.667 271.633C181.415 271.926 182.872 271.561 184.04 270.54Z" fill="#18B4DB"/>
<path fill-rule="evenodd" clip-rule="evenodd" d="M170.922 271.634C173.109 271.634 175.295 271.634 177.481 271.634C177.481 273.091 177.481 274.55 177.481 276.007C175.295 276.007 173.109 276.007 170.922 276.007C170.922 274.55 170.922 273.091 170.922 271.634Z" fill="#18B4DB"/>
<path fill-rule="evenodd" clip-rule="evenodd" d="M167.643 270.54C169.516 271.781 170.245 273.603 169.83 276.006C167.643 276.006 165.457 276.006 163.271 276.006C163.271 274.549 163.271 273.09 163.271 271.633C165.019 271.926 166.476 271.561 167.643 270.54Z" fill="#18B4DB"/>
<path fill-rule="evenodd" clip-rule="evenodd" d="M154.526 271.634C156.712 271.634 158.898 271.634 161.084 271.634C161.084 273.091 161.084 274.55 161.084 276.007C158.898 276.007 156.712 276.007 154.526 276.007C154.526 274.55 154.526 273.091 154.526 271.634Z" fill="#18B4DB"/>
<path fill-rule="evenodd" clip-rule="evenodd" d="M320.676 298.96C319.947 298.96 319.219 298.96 318.49 298.96C318.266 289.21 317.537 279.555 316.304 269.993C302.463 269.447 288.617 269.264 274.766 269.447C274.449 276.57 273.72 283.493 272.58 290.216C272.216 290.216 271.851 290.216 271.487 290.216C271.954 282.529 272.683 274.877 273.673 267.261C288.252 267.078 302.827 267.261 317.397 267.807C319.058 278.082 320.151 288.467 320.676 298.96Z" fill="#18B4DB"/>
<path fill-rule="evenodd" clip-rule="evenodd" d="M309.745 284.75C311.931 284.75 314.117 284.75 316.303 284.75C316.303 286.572 316.303 288.394 316.303 290.216C314.117 290.216 311.931 290.216 309.745 290.216C309.745 288.394 309.745 286.572 309.745 284.75Z" fill="#18B4DB"/>
<path fill-rule="evenodd" clip-rule="evenodd" d="M301 284.75C303.186 284.75 305.372 284.75 307.559 284.75C307.559 286.572 307.559 288.394 307.559 290.216C305.372 290.216 303.186 290.216 301 290.216C301 288.394 301 286.572 301 284.75Z" fill="#18B4DB"/>
<path fill-rule="evenodd" clip-rule="evenodd" d="M292.256 284.75C294.442 284.75 296.628 284.75 298.815 284.75C298.815 286.572 298.815 288.394 298.815 290.216C296.628 290.216 294.442 290.216 292.256 290.216C292.256 288.394 292.256 286.572 292.256 284.75Z" fill="#18B4DB"/>
<path fill-rule="evenodd" clip-rule="evenodd" d="M283.511 284.75C285.697 284.75 287.883 284.75 290.069 284.75C290.069 286.572 290.069 288.394 290.069 290.216C285.218 291.391 283.032 289.569 283.511 284.75Z" fill="#18B4DB" fill-opacity="0.705882"/>
<path fill-rule="evenodd" clip-rule="evenodd" d="M275.859 284.75C278.046 284.75 280.232 284.75 282.418 284.75C282.544 290.028 280.175 291.485 275.313 289.122C275.1 287.681 275.282 286.223 275.859 284.75Z" fill="#18B4DB"/>
<path fill-rule="evenodd" clip-rule="evenodd" d="M308.652 278.192C310.838 278.192 313.024 278.192 315.211 278.192C315.025 279.637 315.389 280.913 316.304 282.018C314.118 282.747 311.931 282.747 309.745 282.018C308.83 280.913 308.466 279.637 308.652 278.192Z" fill="#18B4DB"/>
<path fill-rule="evenodd" clip-rule="evenodd" d="M301 278.192C303.186 278.192 305.372 278.192 307.559 278.192C307.559 279.649 307.559 281.107 307.559 282.564C305.372 282.564 303.186 282.564 301 282.564C301 281.107 301 279.649 301 278.192Z" fill="#18B4DB" fill-opacity="0.0941176"/>
<path fill-rule="evenodd" clip-rule="evenodd" d="M292.256 278.192C294.442 278.192 296.628 278.192 298.815 278.192C298.815 279.649 298.815 281.107 298.815 282.564C296.628 282.564 294.442 282.564 292.256 282.564C292.256 281.107 292.256 279.649 292.256 278.192Z" fill="#18B4DB"/>
<path fill-rule="evenodd" clip-rule="evenodd" d="M284.604 278.193C286.79 278.193 288.977 278.193 291.163 278.193C291.163 279.65 291.163 281.108 291.163 282.565C288.977 282.565 286.79 282.565 284.604 282.565C284.604 281.108 284.604 279.65 284.604 278.193Z" fill="#18B4DB"/>
<path fill-rule="evenodd" clip-rule="evenodd" d="M275.86 278.192C278.046 278.192 280.232 278.192 282.418 278.192C282.418 279.649 282.418 281.107 282.418 282.564C280.232 282.564 278.046 282.564 275.86 282.564C275.86 281.107 275.86 279.649 275.86 278.192Z" fill="#18B4DB"/>
<path fill-rule="evenodd" clip-rule="evenodd" d="M313.023 270.54C314.896 271.781 315.625 273.603 315.21 276.006C313.023 276.006 310.837 276.006 308.651 276.006C308.651 274.549 308.651 273.09 308.651 271.633C310.399 271.926 311.856 271.561 313.023 270.54Z" fill="#18B4DB"/>
<path fill-rule="evenodd" clip-rule="evenodd" d="M305.372 270.54C307.245 271.781 307.974 273.603 307.559 276.006C305.372 276.006 303.186 276.006 301 276.006C301 274.549 301 273.09 301 271.633C302.748 271.926 304.205 271.561 305.372 270.54Z" fill="#18B4DB"/>
<path fill-rule="evenodd" clip-rule="evenodd" d="M292.256 271.634C294.442 271.634 296.628 271.634 298.815 271.634C298.815 273.091 298.815 274.55 298.815 276.007C296.628 276.007 294.442 276.007 292.256 276.007C292.256 274.55 292.256 273.091 292.256 271.634Z" fill="#18B4DB"/>
<path fill-rule="evenodd" clip-rule="evenodd" d="M288.977 270.54C290.849 271.781 291.578 273.603 291.163 276.006C288.977 276.006 286.79 276.006 284.604 276.006C284.604 274.549 284.604 273.09 284.604 271.633C286.352 271.926 287.809 271.561 288.977 270.54Z" fill="#18B4DB"/>
<path fill-rule="evenodd" clip-rule="evenodd" d="M281.325 270.54C282.365 272.091 282.729 273.912 282.418 276.006C280.232 276.006 278.046 276.006 275.86 276.006C275.86 274.549 275.86 273.09 275.86 271.633C277.953 271.944 279.774 271.58 281.325 270.54Z" fill="#18B4DB"/>
<path fill-rule="evenodd" clip-rule="evenodd" d="M197.156 270.541C196.24 270.915 195.875 271.643 196.063 272.727C195.075 271.952 194.711 270.859 194.97 269.448C181.124 269.448 167.279 269.448 153.432 269.448C153.03 276.562 152.301 283.486 151.246 290.217C151.246 289.488 150.882 289.124 150.153 289.124C150.494 281.928 151.222 274.823 152.339 267.808C166.913 267.079 181.489 267.079 196.063 267.808C196.885 268.542 197.25 269.452 197.156 270.541Z" fill="#18B4DB"/>
<path fill-rule="evenodd" clip-rule="evenodd" d="M173.109 306.612C174.473 307.524 175.202 308.981 175.295 310.985C174.931 312.442 174.566 313.9 174.202 315.357C173.131 312.53 172.767 309.615 173.109 306.612Z" fill="#1BCBF5"/>
<path fill-rule="evenodd" clip-rule="evenodd" d="M233.229 306.612C234.322 306.612 235.415 306.612 236.508 306.612C236.508 309.528 236.508 312.442 236.508 315.357C235.415 315.357 234.322 315.357 233.229 315.357C233.229 312.442 233.229 309.528 233.229 306.612Z" fill="#18B4DB"/>
<path fill-rule="evenodd" clip-rule="evenodd" d="M292.256 306.612C292.985 306.612 293.713 306.612 294.442 306.612C294.442 309.528 294.442 312.442 294.442 315.357C293.713 315.357 292.985 315.357 292.256 315.357C292.256 312.442 292.256 309.528 292.256 306.612Z" fill="#719F7D"/>
<path fill-rule="evenodd" clip-rule="evenodd" d="M294.442 306.612C295.535 306.612 296.628 306.612 297.721 306.612C297.721 309.528 297.721 312.442 297.721 315.357C296.628 315.357 295.535 315.357 294.442 315.357C294.442 312.442 294.442 309.528 294.442 306.612Z" fill="#18B4DB"/>
<path opacity="0.596" fill-rule="evenodd" clip-rule="evenodd" d="M15.7025 292.402C15.7025 300.054 15.7025 307.705 15.7025 315.357C30.2767 315.357 44.852 315.357 59.4262 315.357C44.6804 316.446 29.7421 316.81 14.6094 316.45C14.2541 308.231 14.6181 300.216 15.7025 292.402Z" fill="#1ABDE5"/>
<path opacity="0.596" fill-rule="evenodd" clip-rule="evenodd" d="M751.354 314.265C788.332 315.356 825.497 315.721 862.85 315.358C845.075 316.094 826.492 316.459 807.102 316.451C788.155 316.087 769.208 315.722 750.261 315.358C750.397 314.694 750.761 314.33 751.354 314.265Z" fill="#18B4DB"/>
</g>
<defs>
<clipPath id="clip0_244_8094">
<rect width="1748.95" height="364" fill="white" transform="translate(-245)"/>
</clipPath>
</defs>
</svg>
